<svg width="24" height="24" viewBox="0 0 24 24" fill="none" xmlns="http://www.w3.org/2000/svg">
<path fill-rule="evenodd" clip-rule="evenodd" d="M6 12L8.64 13.76C8.87 13.92 9.07 14.11 9.22 14.35C9.82 15.31 10.46 16.53 11 18C11.37 19.01 11.62 19.96 11.79 20.8C11.93 21.5 12.56 22 13.28 22C15.17 22 16.55 20.23 16.09 18.4L15 14H19.64C20.88 14 21.82 12.89 21.61 11.67L20.28 3.67C20.12 2.71 19.28 2 18.31 2H10.94C10.32 2 9.71 2.14 9.15 2.42L6 4V12Z" stroke="black" stroke-width="1.5" stroke-miterlimit="10" stroke-linecap="round" stroke-linejoin="round"/>
<path fill-rule="evenodd" clip-rule="evenodd" d="M5 2H3C2.45 2 2 2.45 2 3V14C2 14.55 2.45 15 3 15H5C5.55 15 6 14.55 6 14V3C6 2.45 5.55 2 5 2Z" stroke="black" stroke-width="1.5" stroke-miterlimit="10" stroke-linecap="round" stroke-linejoin="round"/>
</svg>
