<svg width="24" height="24" viewBox="0 0 24 24" fill="none" xmlns="http://www.w3.org/2000/svg">
<path d="M2 6.97C2.93 5.66 4.13 4.56 5.51 3.73C6 3.42 6.52 3.16 7.06 2.94C7.42 2.78 7.79 2.65 8.17 2.54C8.55 2.42 8.93 2.32 9.32 2.24C9.52 2.2 9.71 2.16 9.91 2.14C10.1 2.11 10.29 2.08 10.48 2.06C10.5 2.06 10.52 2.06 10.54 2.06C10.73 2.04 10.92 2.02 11.12 2.02C11.32 2.01 11.52 2 11.72 2H11.74C12.04 2 12.35 2.01 12.65 2.04C12.95 2.06 13.24 2.09 13.53 2.13C13.58 2.14 13.63 2.15 13.68 2.16C13.99 2.21 14.3 2.27 14.61 2.35C14.68 2.36 14.74 2.38 14.81 2.4" stroke="black" stroke-width="1.5" stroke-miterlimit="10" stroke-linecap="round" stroke-linejoin="round"/>
<path d="M18.4697 4.07001C18.7797 4.28001 19.0797 4.51001 19.3797 4.74001C19.3897 4.74001 19.3997 4.75001 19.4097 4.77001C20.1597 5.40001 20.8297 6.12001 21.4197 6.93001C21.6297 7.21001 21.8197 7.51001 21.9997 7.81001" stroke="black" stroke-width="1.5" stroke-miterlimit="10" stroke-linecap="round" stroke-linejoin="round"/>
<path d="M10.9399 5.04C11.1899 5.01 11.4499 5 11.7099 5C12.1799 5 12.6399 5.04 13.1099 5.11C15.4799 5.48 17.5699 6.76 18.9899 8.7C20.1399 10.28 20.7299 12.14 20.7199 14.06" stroke="black" stroke-width="1.5" stroke-miterlimit="10" stroke-linecap="round" stroke-linejoin="round"/>
<path d="M19.9501 18.06C19.5701 19.22 18.9901 20.6 18.1201 22" stroke="black" stroke-width="1.5" stroke-miterlimit="10" stroke-linecap="round" stroke-linejoin="round"/>
<path d="M2.8501 12.43C3.3201 9.76 4.9101 7.54 7.1201 6.25" stroke="black" stroke-width="1.5" stroke-miterlimit="10" stroke-linecap="round" stroke-linejoin="round"/>
<path d="M17.6702 13.28C17.7402 13.82 17.7302 14.38 17.6402 14.93C17.4602 16.07 16.7802 19.16 14.4502 22" stroke="black" stroke-width="1.5" stroke-miterlimit="10" stroke-linecap="round" stroke-linejoin="round"/>
<path d="M15.8301 9.64C14.9601 8.81 13.8601 8.26 12.6401 8.07C12.3401 8.02 12.0201 8 11.7101 8C9.01014 8 6.71014 9.76 5.97014 12.28C5.89014 12.53 5.83014 12.79 5.79014 13.06C5.79014 13.08 5.57014 14.29 4.64014 14.85" stroke="black" stroke-width="1.5" stroke-miterlimit="10" stroke-linecap="round" stroke-linejoin="round"/>
<path d="M6.16992 17.42C8.27992 16.17 8.70992 13.8 8.74992 13.54C9.00992 11.9 10.5399 10.78 12.1799 11.04C13.8099 11.29 14.9299 12.83 14.6799 14.47C14.4899 15.64 13.6399 19.44 10.1099 22" stroke="black" stroke-width="1.5" stroke-miterlimit="10" stroke-linecap="round" stroke-linejoin="round"/>
<path d="M11.71 14C11.63 14.5 11.02 18.03 7.70996 20" stroke="black" stroke-width="1.5" stroke-miterlimit="10" stroke-linecap="round" stroke-linejoin="round"/>
</svg>
