<svg width="24" height="24" viewBox="0 0 24 24" fill="none" xmlns="http://www.w3.org/2000/svg">
<path d="M11.0002 22L9.80016 19.57C9.80016 19.57 5.69016 19.89 5.61016 19.47C5.35016 18.13 4.87016 15.46 4.74016 14.53L2.26016 13.3C2.06016 13.3 1.93016 13.12 2.04016 12.98L5.77016 8.16C5.71016 3.72 8.66016 2 11.0002 2C14.3202 2 21.6702 2.08 21.9902 9.74C22.0502 11.1 21.6602 12.39 21.6602 12.39" stroke="black" stroke-width="1.5" stroke-miterlimit="10" stroke-linecap="round" stroke-linejoin="round"/>
<path d="M13.55 14.69C14.98 13.96 18.55 10.28 16.4 7.45999C14.66 5.15999 11.34 5.15999 9.58998 7.45999C7.43998 10.29 11.02 13.96 12.44 14.69C12.8 14.87 13.2 14.87 13.55 14.69Z" stroke="black" stroke-width="1.5" stroke-miterlimit="10" stroke-linecap="round" stroke-linejoin="round"/>
<path d="M13 10.78V14.82" stroke="black" stroke-width="1.5" stroke-miterlimit="10" stroke-linecap="round" stroke-linejoin="round"/>
<path d="M11.3999 14.8199H14.5999" stroke="black" stroke-width="1.5" stroke-miterlimit="10" stroke-linecap="round" stroke-linejoin="round"/>
<path d="M11.3999 17.46H14.5999" stroke="black" stroke-width="1.5" stroke-miterlimit="10" stroke-linecap="round" stroke-linejoin="round"/>
<path d="M13 10.78C13.2761 10.78 13.5 10.5562 13.5 10.28C13.5 10.0039 13.2761 9.78003 13 9.78003C12.7239 9.78003 12.5 10.0039 12.5 10.28C12.5 10.5562 12.7239 10.78 13 10.78Z" stroke="black" stroke-width="1.5" stroke-miterlimit="10"/>
</svg>
