<svg width="24" height="24" viewBox="0 0 24 24" fill="none" xmlns="http://www.w3.org/2000/svg">
<path d="M2 20V4C2 2.89543 2.89543 2 4 2H20C21.1046 2 22 2.89543 22 4V20C22 21.1046 21.1046 22 20 22H4C2.89543 22 2 21.1046 2 20Z" stroke="black" stroke-width="1.5"/>
<path d="M15.4999 5.9999C13.4837 5.99985 12 7.9999 12 7.9999C12 7.9999 10.6566 5.9999 8.49998 5.9999C6.4694 5.9999 5.00007 7.4285 5 9.42847C5.00007 11.4284 5.70007 12.6666 7.79999 14.6666C9.20005 15.9999 12 17.9999 12 17.9999C12 17.9999 14.8 15.9999 16.1999 14.6666C18.3 12.6666 19 11.4284 19 9.42847C19 7.42849 17.5305 5.99994 15.4999 5.9999Z" stroke="black" stroke-width="1.5"/>
</svg>
