<svg width="24" height="24" viewBox="0 0 24 24" fill="none" xmlns="http://www.w3.org/2000/svg">
<path d="M12 6C12 6 14.1196 2.99993 17 3C19.9008 3.00007 22.0001 5.00004 22.0001 8C22.0001 9.6485 21.6981 10.9951 20.9283 12.3715C20.5313 12.1339 20.0438 11.9999 19.5 11.9999C18.0598 11.9999 17 13.3333 17 13.3333C17 13.3333 16.0404 11.9999 14.5 11.9999C13.0496 11.9999 12.0001 12.9523 12 14.2856C12.0001 15.619 12.5 16.4444 14 17.7777C14.2874 18.0332 14.6574 18.3253 15.0387 18.612C13.4489 19.9133 12 21 12 21C12 21 8.0001 18 6 16C3.0001 13 2.0001 10.9999 2 7.99998C2.0001 5.00004 4.09916 3 7 3C10.0808 3 12 6 12 6Z" stroke="black" stroke-width="1.5"/>
<path d="M19.5 11.9999C18.0598 11.9999 17 13.3333 17 13.3333C17 13.3333 16.0404 11.9999 14.5 11.9999C13.0496 11.9999 12.0001 12.9523 12 14.2856C12.0001 15.619 12.5 16.4444 14 17.7777C15 18.6666 17 19.9999 17 19.9999C17 19.9999 19 18.6666 20 17.7777C21.5 16.4444 22 15.619 22 14.2856C22 12.9523 20.9504 12 19.5 11.9999Z" stroke="black" stroke-width="1.5"/>
</svg>
