<svg width="24" height="24" viewBox="0 0 24 24" fill="none" xmlns="http://www.w3.org/2000/svg">
<path d="M4 9.03366V14V18.8794C4 19.8954 4.4946 20.8478 5.32571 21.4321C5.85129 21.8017 6.47812 22 7.12061 22H8.06991C9.10445 22 10.1279 21.7346 11.0336 21.2347C12.2633 20.556 13.2331 19.4744 13.7688 18.1761L13.8679 17.9359C14.3887 16.6736 15.2714 15.5935 16.4047 14.8316L17.1741 14.3143C18.0967 13.6941 18.8175 12.8175 19.2477 11.7925C19.7354 10.6304 19.8238 9.33939 19.4991 8.12169L19.3437 7.53874C18.4727 4.27257 15.5147 2 12.1344 2H10.317C8.66471 2 7.08219 2.66594 5.92707 3.84732C5.18821 4.60296 4.65692 5.53654 4.38461 6.5577L4.26634 7.00124C4.08953 7.66425 4 8.34749 4 9.03366Z" stroke="black" stroke-width="1.5" stroke-linecap="round" stroke-linejoin="round"/>
<path d="M7.38359 12.2529L8.5436 7.89888C8.97014 6.29787 10.6128 5.34949 12.2126 5.78062L14.1032 6.29011C15.703 6.72123 16.6541 8.3686 16.2275 9.96961L15.9693 10.939" stroke="black" stroke-width="1.5" stroke-linecap="round" stroke-linejoin="round"/>
<path d="M8.1582 9.35217L10.0638 9.86637C11.6635 10.298 12.6149 11.9459 12.1888 13.547L11.8022 15" stroke="black" stroke-width="1.5" stroke-linecap="round" stroke-linejoin="round"/>
<path d="M3 3L21 21" stroke="black" stroke-width="1.5" stroke-miterlimit="10" stroke-linecap="round" stroke-linejoin="round"/>
</svg>
