<svg width="24" height="24" viewBox="0 0 24 24" fill="none" xmlns="http://www.w3.org/2000/svg">
<path d="M18.5 8.99429C19.33 8.99429 20 8.32429 20 7.49429C20 6.66429 19.33 5.99429 18.5 5.99429H16H18C18.83 5.99429 19.5 5.32429 19.5 4.49429C19.5 3.66429 18.83 2.99429 18 2.99429H17H9C5.69 2.99429 3 5.69429 3 9.01429C3 11.7143 4.77 14.0043 7.22 14.7643C8.45 15.1543 9.37 16.1943 9.77 17.4343L10.69 20.2643C10.85 20.9143 11.51 21.0843 12.17 20.9643C13.22 20.7843 14.11 19.4343 14.11 16.9943L14 14.9943H19.5C20.33 14.9943 21 14.3243 21 13.4943C21 12.6643 20.33 11.9943 19.5 11.9943H17H19C19.83 11.9943 20.5 11.3243 20.5 10.4943C20.5 9.66429 19.83 8.99429 19 8.99429H16.5" stroke="black" stroke-width="1.5" stroke-miterlimit="10" stroke-linecap="round" stroke-linejoin="round"/>
</svg>
