<svg width="24" height="24" viewBox="0 0 24 24" fill="none" xmlns="http://www.w3.org/2000/svg">
<path d="M2 6.97C2.93 5.66 4.13 4.56 5.51 3.73C6 3.42 6.52 3.16 7.06 2.94C7.42 2.78 7.79 2.65 8.17 2.54C8.55 2.42 8.93 2.32 9.32 2.24C9.52 2.2 9.71 2.16 9.91 2.14C10.1 2.11 10.29 2.08 10.48 2.06C10.5 2.06 10.52 2.06 10.54 2.06C10.73 2.04 10.92 2.02 11.12 2.02C11.32 2.01 11.52 2 11.72 2H11.74C12.04 2 12.35 2.01 12.65 2.04C12.95 2.06 13.24 2.09 13.53 2.13C13.58 2.14 13.63 2.15 13.68 2.16C13.99 2.21 14.3 2.27 14.61 2.35C14.68 2.36 14.74 2.38 14.81 2.4" stroke="black" stroke-width="1.5" stroke-miterlimit="10" stroke-linecap="round" stroke-linejoin="round"/>
<path d="M18.4702 4.06995C18.7802 4.27995 19.0802 4.50995 19.3802 4.73995C19.3902 4.73995 19.4002 4.74995 19.4102 4.76995C20.1602 5.39995 20.8302 6.11995 21.4202 6.92995C21.6302 7.20995 21.8202 7.50995 22.0002 7.80995" stroke="black" stroke-width="1.5" stroke-miterlimit="10" stroke-linecap="round" stroke-linejoin="round"/>
<path d="M10.9399 5.04C11.1899 5.01 11.4499 5 11.7099 5C12.1799 5 12.6399 5.04 13.1099 5.11C15.4799 5.48 17.5699 6.76 18.9899 8.7C20.1399 10.28 20.7299 12.14 20.7199 14.06" stroke="black" stroke-width="1.5" stroke-miterlimit="10" stroke-linecap="round" stroke-linejoin="round"/>
<path d="M19.9501 18.0601C19.5701 19.2201 18.9901 20.6001 18.1201 22.0001" stroke="black" stroke-width="1.5" stroke-miterlimit="10" stroke-linecap="round" stroke-linejoin="round"/>
<path d="M2.8501 12.43C3.3201 9.76 4.9101 7.54 7.1201 6.25" stroke="black" stroke-width="1.5" stroke-miterlimit="10" stroke-linecap="round" stroke-linejoin="round"/>
<path d="M16.7802 18C16.3002 19.23 15.5702 20.64 14.4502 22" stroke="black" stroke-width="1.5" stroke-miterlimit="10" stroke-linecap="round" stroke-linejoin="round"/>
<path d="M17.6699 13.28C17.7399 13.82 17.7299 14.38 17.6399 14.93C17.6399 14.95 17.6299 14.98 17.6299 15" stroke="black" stroke-width="1.5" stroke-miterlimit="10" stroke-linecap="round" stroke-linejoin="round"/>
<path d="M15.8301 9.64C14.9601 8.81 13.8601 8.26 12.6401 8.07C12.3401 8.02 12.0201 8 11.7101 8C9.01014 8 6.71014 9.76 5.97014 12.28C5.89014 12.53 5.83014 12.79 5.79014 13.06C5.79014 13.08 5.57014 14.29 4.64014 14.85" stroke="black" stroke-width="1.5" stroke-miterlimit="10" stroke-linecap="round" stroke-linejoin="round"/>
<path d="M13.5099 18C12.8199 19.34 11.7599 20.81 10.1099 22" stroke="black" stroke-width="1.5" stroke-miterlimit="10" stroke-linecap="round" stroke-linejoin="round"/>
<path d="M8.29004 15.0001C8.62004 14.2701 8.73004 13.6601 8.75004 13.5401C9.01004 11.9001 10.54 10.7801 12.18 11.0401C13.81 11.2901 14.93 12.8301 14.68 14.4701C14.66 14.6101 14.62 14.7901 14.58 15.0001" stroke="black" stroke-width="1.5" stroke-miterlimit="10" stroke-linecap="round" stroke-linejoin="round"/>
<path d="M9.94996 18C9.39996 18.72 8.66996 19.43 7.70996 20" stroke="black" stroke-width="1.5" stroke-miterlimit="10" stroke-linecap="round" stroke-linejoin="round"/>
<path d="M11.71 14C11.69 14.14 11.63 14.5 11.48 15" stroke="black" stroke-width="1.5" stroke-miterlimit="10" stroke-linecap="round" stroke-linejoin="round"/>
<path d="M22 15H17.63H14.58H11.48H8.29H2" stroke="black" stroke-width="1.5" stroke-miterlimit="10" stroke-linecap="round" stroke-linejoin="round"/>
</svg>
