<svg width="24" height="24" viewBox="0 0 24 24" fill="none" xmlns="http://www.w3.org/2000/svg">
<path d="M18.5 15C19.33 15 20 15.67 20 16.5C20 17.33 19.33 18 18.5 18H16H18C18.83 18 19.5 18.67 19.5 19.5C19.5 20.33 18.83 21 18 21H17H9C5.69 21 3 18.3 3 14.98C3 12.28 4.77 9.99 7.22 9.23C8.45 8.84 9.37 7.8 9.77 6.56L10.69 3.73C10.85 3.08 11.51 2.91 12.17 3.03C13.22 3.21 14.11 4.56 14.11 7L14 9H19.5C20.33 9 21 9.67 21 10.5C21 11.33 20.33 12 19.5 12H17H19C19.83 12 20.5 12.67 20.5 13.5C20.5 14.33 19.83 15 19 15H16.5" stroke="black" stroke-width="1.5" stroke-miterlimit="10" stroke-linecap="round" stroke-linejoin="round"/>
</svg>
