<svg width="24" height="24" viewBox="0 0 24 24" fill="none" xmlns="http://www.w3.org/2000/svg">
<path d="M17.53 20.33H17.54C20.22 18.53 22 15.48 22 12C22 6.48 17.52 2 12 2C6.48 2 2 6.48 2 12C2 15.48 3.78 18.53 6.46 20.33H6.47" stroke="black" stroke-width="1.5" stroke-linecap="round" stroke-linejoin="round"/>
<path d="M15.2 17.66C17.17 16.54 18.5 14.43 18.5 12C18.5 8.41 15.59 5.5 12 5.5C8.41 5.5 5.5 8.41 5.5 12C5.5 14.43 6.83 16.54 8.8 17.66" stroke="black" stroke-width="1.5" stroke-linecap="round" stroke-linejoin="round"/>
<path d="M12.78 14.89C14.06 14.55 15 13.39 15 12C15 10.34 13.66 9 12 9C10.34 9 9 10.34 9 12C9 13.39 9.94 14.55 11.22 14.89" stroke="black" stroke-width="1.5" stroke-linecap="round" stroke-linejoin="round"/>
<path d="M5 22H19L12 14L5 22Z" stroke="black" stroke-width="1.5" stroke-linecap="round" stroke-linejoin="round"/>
</svg>
