<svg width="24" height="24" viewBox="0 0 24 24" fill="none" xmlns="http://www.w3.org/2000/svg">
<path d="M12 16C14.2091 16 16 14.2091 16 12C16 9.79086 14.2091 8 12 8C9.79086 8 8 9.79086 8 12C8 14.2091 9.79086 16 12 16Z" stroke="black" stroke-width="1.5" stroke-miterlimit="9.3333" stroke-linecap="round" stroke-linejoin="round"/>
<path d="M16.0001 21.1599C14.3601 21.8899 12.4901 22.1799 10.5201 21.8999C6.33009 21.2999 2.90009 17.9899 2.16009 13.8199C1.37009 9.33992 3.57009 5.25992 7.11009 3.27992C8.55009 2.46992 10.1901 2.00992 11.9501 1.99992C17.1701 1.96992 21.6601 6.15992 21.9801 11.3799C22.0201 12.0599 21.9901 12.7299 21.9101 13.3799C21.7001 14.8599 20.4101 15.9499 18.9301 15.9499C18.8801 15.9499 18.8401 15.9499 18.7901 15.9499C17.2301 15.8899 16.0001 14.5999 16.0001 13.0399V11.9999V7.99992" stroke="black" stroke-width="1.5" stroke-miterlimit="9.3333" stroke-linecap="round" stroke-linejoin="round"/>
</svg>
