<svg width="24" height="24" viewBox="0 0 24 24" fill="none" xmlns="http://www.w3.org/2000/svg">
<path d="M3 21L21 21V7L3 7V21Z" stroke="black" stroke-width="1.5" stroke-linecap="round" stroke-linejoin="round"/>
<path d="M20 21H21V7H20V21Z" stroke="black" stroke-width="1.5" stroke-linecap="round" stroke-linejoin="round"/>
<path d="M3 21H4L4 7H3L3 21Z" stroke="black" stroke-width="1.5" stroke-linecap="round" stroke-linejoin="round"/>
<path d="M22 21H2V22H22V21Z" stroke="black" stroke-width="1.5" stroke-linecap="round" stroke-linejoin="round"/>
<path d="M12 2L2 7H22L12 2Z" stroke="black" stroke-width="1.5" stroke-linecap="round" stroke-linejoin="round"/>
<path d="M12 18V16.99" stroke="black" stroke-width="1.5" stroke-linecap="round" stroke-linejoin="round"/>
<path d="M12 11.01V10" stroke="black" stroke-width="1.5" stroke-linecap="round" stroke-linejoin="round"/>
<path d="M14 12.2699C13.83 11.6499 13.28 11.1699 12.58 11.0399C11.88 10.9099 11.15 11.1499 10.74 11.6399C10.69 11.6999 10.23 12.2599 10.45 12.8699C10.59 13.2499 10.92 13.4599 11.38 13.7399C11.88 14.0499 12.02 13.9999 12.78 14.3899C13.55 14.7899 13.68 14.9899 13.74 15.0899C13.96 15.5099 13.81 15.9299 13.78 16.0099C13.57 16.5499 12.99 16.7699 12.78 16.8599C12.69 16.8999 11.85 17.1999 11.02 16.8199C10.56 16.6099 10.32 16.2899 10.24 16.1899C10.11 15.9999 10.04 15.8299 10 15.7099" stroke="black" stroke-width="1.5" stroke-linecap="round" stroke-linejoin="round"/>
</svg>
