<svg width="24" height="24" viewBox="0 0 24 24" fill="none" xmlns="http://www.w3.org/2000/svg">
<path d="M20 18H6C5.4 18 5 18.2 4.6 18.6C4.2 19 4 19.5 4 20V4C4 2.9 4.9 2 6 2H18C19.1 2 20 2.9 20 4V18Z" stroke="black" stroke-width="1.5" stroke-miterlimit="10" stroke-linecap="round" stroke-linejoin="round"/>
<path d="M20 22H6C4.9 22 4 21.1 4 20C4 18.9 4.9 18 6 18H20" stroke="black" stroke-width="1.5" stroke-miterlimit="10" stroke-linecap="round" stroke-linejoin="round"/>
<path d="M15 10H9C8.4 10 8 9.6 8 9V7C8 6.4 8.4 6 9 6H15C15.6 6 16 6.4 16 7V9C16 9.6 15.6 10 15 10Z" stroke="black" stroke-width="1.5" stroke-miterlimit="10" stroke-linecap="round" stroke-linejoin="round"/>
</svg>
