<svg width="24" height="24" viewBox="0 0 24 24" fill="none" xmlns="http://www.w3.org/2000/svg">
<path fill-rule="evenodd" clip-rule="evenodd" d="M20 9L4 9V4C4 2.89543 4.89543 2 6 2L18 2C19.1046 2 20 2.89543 20 4V9Z" stroke="black" stroke-width="1.5"/>
<path fill-rule="evenodd" clip-rule="evenodd" d="M4 9H20V20C20 21.1046 19.1046 22 18 22H6C4.89543 22 4 21.1046 4 20V9Z" stroke="black" stroke-width="1.5"/>
<path d="M7 19H8" stroke="black" stroke-width="1.5" stroke-linecap="round"/>
<path d="M7 13H8" stroke="black" stroke-width="1.5" stroke-linecap="round"/>
<path d="M7 16H8" stroke="black" stroke-width="1.5" stroke-linecap="round"/>
<path d="M17 19V19.1054" stroke="black" stroke-width="1.5" stroke-linecap="round"/>
<path d="M14 19V19.1054" stroke="black" stroke-width="1.5" stroke-linecap="round"/>
<path d="M11 19V19.1054" stroke="black" stroke-width="1.5" stroke-linecap="round"/>
<path d="M17 16V16.1054" stroke="black" stroke-width="1.5" stroke-linecap="round"/>
<path d="M14 16V16.1054" stroke="black" stroke-width="1.5" stroke-linecap="round"/>
<path d="M11 16V16.1054" stroke="black" stroke-width="1.5" stroke-linecap="round"/>
<path d="M17 13V13.1054" stroke="black" stroke-width="1.5" stroke-linecap="round"/>
<path d="M14 13V13.1054" stroke="black" stroke-width="1.5" stroke-linecap="round"/>
<path d="M11 13V13.1054" stroke="black" stroke-width="1.5" stroke-linecap="round"/>
</svg>
