<svg width="24" height="24" viewBox="0 0 24 24" fill="none" xmlns="http://www.w3.org/2000/svg">
<path d="M14 20H5C3.9 20 3 19.1 3 18V9H21V11" stroke="black" stroke-width="1.5" stroke-miterlimit="10" stroke-linecap="round"/>
<path d="M19 4H5C3.9 4 3 4.9 3 6V9H21V6C21 4.9 20.1 4 19 4Z" stroke="black" stroke-width="1.5" stroke-miterlimit="10" stroke-linecap="round"/>
<path d="M16 2V6" stroke="black" stroke-width="1.5" stroke-miterlimit="10" stroke-linecap="round" stroke-linejoin="round"/>
<path d="M8 2V6" stroke="black" stroke-width="1.5" stroke-miterlimit="10" stroke-linecap="round" stroke-linejoin="round"/>
<path d="M5 13H7" stroke="black" stroke-width="1.5" stroke-miterlimit="10" stroke-linejoin="round"/>
<path d="M9 13H11" stroke="black" stroke-width="1.5" stroke-miterlimit="10" stroke-linejoin="round"/>
<path d="M13 13H15" stroke="black" stroke-width="1.5" stroke-miterlimit="10" stroke-linejoin="round"/>
<path d="M13 17H15" stroke="black" stroke-width="1.5" stroke-miterlimit="10" stroke-linejoin="round"/>
<path d="M5 17H7" stroke="black" stroke-width="1.5" stroke-miterlimit="10" stroke-linejoin="round"/>
<path d="M9 17H11" stroke="black" stroke-width="1.5" stroke-miterlimit="10" stroke-linejoin="round"/>
<path d="M19 22H19.01" stroke="black" stroke-width="1.5" stroke-miterlimit="10" stroke-linecap="round" stroke-linejoin="round"/>
<path d="M17 16.04C17.04 15.75 17.16 15.21 17.56 14.73C17.66 14.6 17.85 14.37 18.18 14.2C18.58 14 18.94 14 19.1 14C19.28 14 19.71 14.02 20.15 14.31C20.69 14.67 20.86 15.19 20.91 15.35C20.94 15.43 21.1 15.96 20.91 16.56C20.8 16.94 20.6 17.18 20.43 17.39C19.73 18.22 19.11 18.15 19 18.69C18.99 18.71 19 18.82 19 19" stroke="black" stroke-width="1.5" stroke-miterlimit="10" stroke-linecap="round" stroke-linejoin="round"/>
</svg>
