<svg width="24" height="24" viewBox="0 0 24 24" fill="none" xmlns="http://www.w3.org/2000/svg">
<path d="M19 2.5C19 2.22386 19.2239 2 19.5 2C19.7761 2 20 2.22386 20 2.5V5H19V2.5Z" stroke="black" stroke-width="1.5"/>
<path d="M14 2.5C14 2.22386 14.2239 2 14.5 2C14.7761 2 15 2.22386 15 2.5V5H14V2.5Z" stroke="black" stroke-width="1.5"/>
<path d="M4 2.5C4 2.22386 4.22386 2 4.5 2C4.77614 2 5 2.22386 5 2.5V5H4V2.5Z" stroke="black" stroke-width="1.5"/>
<path d="M9 2.5C9 2.22386 9.22386 2 9.5 2C9.77614 2 10 2.22386 10 2.5V5H9V2.5Z" stroke="black" stroke-width="1.5"/>
<path fill-rule="evenodd" clip-rule="evenodd" d="M2 7C2 5.89543 2.89543 5 4 5H20C21.1046 5 22 5.89543 22 7V19.6284L19.451 22H4C2.89543 22 2 21.1046 2 20V7Z" stroke="black" stroke-width="1.5"/>
<rect x="6" y="9" width="1" height="1" stroke="black" stroke-width="1.5"/>
<rect x="6" y="13" width="1" height="1" stroke="black" stroke-width="1.5"/>
<rect x="6" y="17" width="1" height="1" stroke="black" stroke-width="1.5"/>
<rect x="17" y="13" width="1" height="1" stroke="black" stroke-width="1.5"/>
<rect x="17" y="17" width="1" height="1" stroke="black" stroke-width="1.5"/>
<rect x="11.5" y="13" width="1" height="1" stroke="black" stroke-width="1.5"/>
<rect x="11.5" y="17" width="1" height="1" stroke="black" stroke-width="1.5"/>
<rect x="11.5" y="9" width="1" height="1" stroke="black" stroke-width="1.5"/>
<rect x="17" y="9" width="1" height="1" stroke="black" stroke-width="1.5"/>
</svg>
