<svg width="24" height="24" viewBox="0 0 24 24" fill="none" xmlns="http://www.w3.org/2000/svg">
<path d="M17 7L15.15 4.22C15.06 4.08 14.9 4 14.73 4H9.27C9.1 4 8.94 4.08 8.85 4.22L7 7H3C2.45 7 2 7.45 2 8V19C2 19.55 2.45 20 3 20H21C21.55 20 22 19.55 22 19V8C22 7.45 21.55 7 21 7H17Z" stroke="black" stroke-width="1.5" stroke-miterlimit="10" stroke-linecap="round" stroke-linejoin="round"/>
<path d="M15.45 15C14.77 16.19 13.48 17 12 17C9.79 17 8 15.21 8 13C8 11.44 8.9 10.08 10.2 9.43C10.74 9.16 11.36 9 12 9C13.86 9 15.04 10.63 16 12" stroke="black" stroke-width="1.5" stroke-linecap="round" stroke-linejoin="round"/>
<path d="M15.5 12H16V11.5L15.5 12Z" stroke="black" stroke-width="1.5" stroke-linecap="round"/>
</svg>
