<svg width="24" height="24" viewBox="0 0 24 24" fill="none" xmlns="http://www.w3.org/2000/svg">
<path d="M10.25 13C9.56 13 9 12.44 9 11.75V10H17V11.75C17 12.44 16.44 13 15.75 13H10.25Z" stroke="black" stroke-width="1.5" stroke-linecap="round"/>
<path d="M5 8.75V3.25C5 2.56 5.56 2 6.25 2H19.75C20.44 2 21 2.56 21 3.25V8.75C21 9.44 20.44 10 19.75 10H6.25C5.56 10 5 9.44 5 8.75Z" stroke="black" stroke-width="1.5" stroke-linecap="round"/>
<path d="M9.5 2V10" stroke="black" stroke-width="1.5" stroke-linecap="round" stroke-linejoin="round"/>
<path d="M13 13V16.75L21 18.37" stroke="black" stroke-width="1.5" stroke-linecap="round" stroke-linejoin="round"/>
<path d="M21.5 22C21.22 22 21 21.78 21 21.5V14.5C21 14.22 21.22 14 21.5 14C21.78 14 22 14.22 22 14.5V21.5C22 21.78 21.78 22 21.5 22Z" stroke="black" stroke-width="1.5" stroke-linecap="round"/>
<path d="M5.5 6.5H2.5C2.22 6.5 2 6.28 2 6C2 5.72 2.22 5.5 2.5 5.5H5.5C5.78 5.5 6 5.72 6 6C6 6.28 5.78 6.5 5.5 6.5Z" stroke="black" stroke-width="1.5" stroke-linecap="round" stroke-linejoin="round"/>
</svg>
