<svg width="24" height="24" viewBox="0 0 24 24" fill="none" xmlns="http://www.w3.org/2000/svg">
<path d="M3.5 5C2.67 5 2 5.67 2 6.5V17.5C2 18.33 2.67 19 3.5 19H20.5C21.33 19 22 18.33 22 17.5V6.5C22 5.67 21.33 5 20.5 5H3.5Z" stroke="black" stroke-width="1.5" stroke-miterlimit="10" stroke-linecap="round" stroke-linejoin="round"/>
<path d="M15.5 15.5V14.5C15.5 13.9477 15.9477 13.5 16.5 13.5H18.5C19.0523 13.5 19.5 13.9477 19.5 14.5V15.5C19.5 16.0523 19.0523 16.5 18.5 16.5H16.5C15.9477 16.5 15.5 16.0523 15.5 15.5Z" stroke="black" stroke-width="1.5" stroke-linecap="round"/>
<path d="M16 9.8V9.2C16 9.08954 16.0895 9 16.2 9H17.8C17.9105 9 18 9.08954 18 9.2V9.8C18 9.91046 17.9105 10 17.8 10H16.2C16.0895 10 16 9.91046 16 9.8Z" fill="black" stroke="black" stroke-width="1.5"/>
<path d="M6 9.8V9.2C6 9.08954 6.08954 9 6.2 9H7.8C7.91046 9 8 9.08954 8 9.2V9.8C8 9.91046 7.91046 10 7.8 10H6.2C6.08954 10 6 9.91046 6 9.8Z" fill="black" stroke="black" stroke-width="1.5"/>
<path d="M5 15.5H10" stroke="black" stroke-width="1.5" stroke-linecap="round"/>
<path d="M11 9.8V9.2C11 9.08954 11.0895 9 11.2 9H12.8C12.9105 9 13 9.08954 13 9.2V9.8C13 9.91046 12.9105 10 12.8 10H11.2C11.0895 10 11 9.91046 11 9.8Z" fill="black" stroke="black" stroke-width="1.5"/>
</svg>
