<svg width="24" height="24" viewBox="0 0 24 24" fill="none" xmlns="http://www.w3.org/2000/svg">
<path d="M3.5 5C2.67 5 2 5.67 2 6.5V17.5C2 18.33 2.67 19 3.5 19H20.5C21.33 19 22 18.33 22 17.5V6.5C22 5.67 21.33 5 20.5 5H3.5Z" stroke="black" stroke-width="1.5" stroke-miterlimit="10" stroke-linecap="round" stroke-linejoin="round"/>
<path d="M5 16.5H7.5" stroke="black" stroke-width="1.5" stroke-linecap="round"/>
<path d="M10.5 16.5H13" stroke="black" stroke-width="1.5" stroke-linecap="round"/>
<path d="M14 8H19" stroke="black" stroke-width="1.5" stroke-linecap="round"/>
<path d="M5 10.5V8.5C5 8.22386 5.22386 8 5.5 8H8.5C8.77614 8 9 8.22386 9 8.5V10.5C9 10.7761 8.77614 11 8.5 11H5.5C5.22386 11 5 10.7761 5 10.5Z" stroke="black" stroke-width="1.5" stroke-linecap="round"/>
<path d="M5 14H7" stroke="black" stroke-width="1.5" stroke-linecap="round"/>
<path d="M9.5 14H11" stroke="black" stroke-width="1.5" stroke-linecap="round"/>
<path d="M13.5 14H15" stroke="black" stroke-width="1.5" stroke-linecap="round"/>
<path d="M17.5 14H19" stroke="black" stroke-width="1.5" stroke-linecap="round"/>
</svg>
