<svg width="24" height="24" viewBox="0 0 24 24" fill="none" xmlns="http://www.w3.org/2000/svg">
<path d="M22 14V8H2V15.5C2 16.33 2.67 17 3.5 17H12" stroke="black" stroke-width="1.5" stroke-miterlimit="10" stroke-linecap="round" stroke-linejoin="round"/>
<path fill-rule="evenodd" clip-rule="evenodd" d="M22 8H2V4.5C2 3.67 2.67 3 3.5 3H20.5C21.33 3 22 3.67 22 4.5V8Z" stroke="black" stroke-width="1.5" stroke-miterlimit="10" stroke-linecap="round" stroke-linejoin="round"/>
<path d="M22 7H2V8H22V7Z" stroke="black" stroke-width="1.5" stroke-miterlimit="10" stroke-linecap="round"/>
<path d="M17 21H17.01" stroke="black" stroke-width="1.5" stroke-miterlimit="10" stroke-linecap="round" stroke-linejoin="round"/>
<path d="M15 15.04C15.04 14.75 15.16 14.21 15.56 13.73C15.66 13.6 15.85 13.37 16.18 13.2C16.58 13 16.94 13 17.1 13C17.28 13 17.71 13.02 18.15 13.31C18.69 13.67 18.86 14.19 18.91 14.35C18.94 14.43 19.1 14.96 18.91 15.56C18.8 15.94 18.6 16.18 18.43 16.39C17.73 17.22 17.11 17.15 17 17.69C16.99 17.71 17 17.82 17 18" stroke="black" stroke-width="1.5" stroke-miterlimit="10" stroke-linecap="round" stroke-linejoin="round"/>
</svg>
