<svg width="24" height="24" viewBox="0 0 24 24" fill="none" xmlns="http://www.w3.org/2000/svg">
<path d="M4 20V14" stroke="black" stroke-width="1.5" stroke-linecap="round" stroke-linejoin="round"/>
<circle cx="1" cy="1" r="1" transform="matrix(-1 0 0 1 5 9)" stroke="black" stroke-width="1.5" stroke-linecap="round"/>
<path d="M12 20V12" stroke="black" stroke-width="1.5" stroke-linecap="round" stroke-linejoin="round"/>
<circle cx="1" cy="1" r="1" transform="matrix(-1 0 0 1 13 7)" stroke="black" stroke-width="1.5" stroke-linecap="round"/>
<path d="M20 20V12" stroke="black" stroke-width="1.5" stroke-linecap="round" stroke-linejoin="round"/>
<circle cx="1" cy="1" r="1" transform="matrix(-1 0 0 1 21 7)" stroke="black" stroke-width="1.5" stroke-linecap="round"/>
<path d="M8 20V9" stroke="black" stroke-width="1.5" stroke-linecap="round" stroke-linejoin="round"/>
<circle cx="1" cy="1" r="1" transform="matrix(-1 0 0 1 9 4)" stroke="black" stroke-width="1.5" stroke-linecap="round"/>
<path d="M16 20V17" stroke="black" stroke-width="1.5" stroke-linecap="round" stroke-linejoin="round"/>
<circle cx="1" cy="1" r="1" transform="matrix(-1 0 0 1 17 12)" stroke="black" stroke-width="1.5" stroke-linecap="round"/>
</svg>
