<svg width="24" height="24" viewBox="0 0 24 24" fill="none" xmlns="http://www.w3.org/2000/svg">
<path d="M22 12C22 6.5 17.5 2 12 2C6.5 2 2 6.5 2 12C2 17.5 6.5 22 12 22C13.8 22 15.5 21.5 17 20.6L22 22L20.7 17C21.5 15.5 22 13.8 22 12Z" stroke="black" stroke-width="1.5" stroke-miterlimit="10" stroke-linecap="round" stroke-linejoin="round"/>
<path d="M7 15.5C8.77 15.03 9.93 13.16 9.99 10.73C10 10.67 10 10.6 10 10.53V10.5" stroke="black" stroke-width="1.5" stroke-miterlimit="10" stroke-linecap="round" stroke-linejoin="round"/>
<path d="M8.03 12.5H7.96C6.88 12.5 6 11.62 6 10.53V10.47C6 9.38 6.88 8.5 7.97 8.5H8.04C9.12 8.5 10 9.38 10 10.47V10.54C10 11.62 9.12 12.5 8.03 12.5Z" stroke="black" stroke-width="1.5" stroke-miterlimit="10" stroke-linecap="round" stroke-linejoin="round"/>
<path d="M15 15.5C16.77 15.03 17.93 13.16 17.99 10.73C18 10.67 18 10.6 18 10.53V10.5" stroke="black" stroke-width="1.5" stroke-miterlimit="10" stroke-linecap="round" stroke-linejoin="round"/>
<path d="M16.03 12.5H15.96C14.88 12.5 14 11.62 14 10.53V10.47C14 9.38 14.88 8.5 15.97 8.5H16.03C17.12 8.5 18 9.38 18 10.47V10.54C18 11.62 17.12 12.5 16.03 12.5Z" stroke="black" stroke-width="1.5" stroke-miterlimit="10" stroke-linecap="round" stroke-linejoin="round"/>
</svg>
