<svg width="24" height="24" viewBox="0 0 24 24" fill="none" xmlns="http://www.w3.org/2000/svg">
<path d="M14.5 2H9.5C5.36 2 2 5.36 2 9.5C2 12.76 4.09 15.53 7 16.56V22L12 17H14.5C18.64 17 22 13.64 22 9.5C22 5.36 18.64 2 14.5 2Z" stroke="black" stroke-width="1.5" stroke-miterlimit="10" stroke-linecap="round" stroke-linejoin="round"/>
<path d="M14.5 5.49993C13.0598 5.4999 12 6.83326 12 6.83326C12 6.83326 11.0404 5.49993 9.49999 5.49993C8.04957 5.49993 7.00005 6.45234 7 7.78564C7.00005 9.11895 7.50005 9.94437 8.99999 11.2777C10 12.1666 12 13.4999 12 13.4999C12 13.4999 14 12.1666 15 11.2777C16.5 9.94437 17 9.11896 17 7.78564C17 6.45233 15.9504 5.49996 14.5 5.49993Z" stroke="black" stroke-width="1.5"/>
<path d="M2 2L22 22" stroke="black" stroke-width="1.5" stroke-miterlimit="10" stroke-linecap="round" stroke-linejoin="round"/>
</svg>
