<svg width="24" height="24" viewBox="0 0 24 24" fill="none" xmlns="http://www.w3.org/2000/svg">
<path d="M15.9 8H15.5C13.01 8 11 10.01 11 12.5C11 13.02 11.09 13.52 11.25 13.99C11.17 14 11.08 14 11 14H9L5 18V13.58C3.24 12.81 2 11.05 2 9C2 6.24 4.24 4 7 4H11C13.42 4 15.44 5.72 15.9 8Z" stroke="black" stroke-width="1.5" stroke-miterlimit="10" stroke-linecap="round" stroke-linejoin="round"/>
<path d="M22 12.5C22 10.01 19.99 8 17.5 8H15.5C13.01 8 11 10.01 11 12.5C11 14.99 13.01 17 15.5 17H17L20 20V16.24C21.21 15.43 22 14.06 22 12.5Z" stroke="black" stroke-width="1.5" stroke-miterlimit="10" stroke-linecap="round" stroke-linejoin="round"/>
</svg>
