<svg width="24" height="24" viewBox="0 0 24 24" fill="none" xmlns="http://www.w3.org/2000/svg">
<path d="M2 3V16C2 16.55 2.45 17 3 17H6V22L12 17H21C21.55 17 22 16.55 22 16V3C22 2.45 21.55 2 21 2H3C2.45 2 2 2.45 2 3Z" stroke="black" stroke-width="1.5" stroke-miterlimit="10" stroke-linecap="round" stroke-linejoin="round"/>
<path d="M12 14H12.01" stroke="black" stroke-width="1.5" stroke-miterlimit="10" stroke-linecap="round" stroke-linejoin="round"/>
<path d="M10 7.04C10.04 6.75 10.16 6.21 10.56 5.73C10.67 5.6 10.86 5.37 11.19 5.2C11.58 5 11.94 5 12.1 5C12.29 5 12.71 5.02 13.15 5.31C13.69 5.67 13.86 6.19 13.91 6.35C13.94 6.43 14.09 6.96 13.91 7.57C13.8 7.95 13.6 8.19 13.42 8.39C12.72 9.22 12.11 9.15 12 9.69C11.99 9.73 12 10.03 12 10.62C12 10.78 12 10.91 12 11" stroke="black" stroke-width="1.5" stroke-miterlimit="10" stroke-linecap="round" stroke-linejoin="round"/>
</svg>
