<svg width="24" height="24" viewBox="0 0 24 24" fill="none" xmlns="http://www.w3.org/2000/svg">
<path d="M14.5 2H9.5C5.36 2 2 5.36 2 9.5C2 12.76 4.09 15.53 7 16.56V22L12 17H14.5C18.64 17 22 13.64 22 9.5C22 5.36 18.64 2 14.5 2Z" stroke="black" stroke-width="1.5" stroke-miterlimit="10" stroke-linecap="round" stroke-linejoin="round"/>
<path d="M10 8V8.03C10 8.1 10 8.17 9.99 8.23C9.93 10.66 8.77 12.53 7 13" stroke="black" stroke-width="1.5" stroke-miterlimit="10" stroke-linecap="round" stroke-linejoin="round"/>
<path d="M8.03 10H7.97C6.88 10 6 9.12 6 8.03V7.97C6 6.88 6.88 6 7.97 6H8.04C9.12 6 10 6.88 10 7.97V8.04C10 9.12 9.12 10 8.03 10Z" stroke="black" stroke-width="1.5" stroke-miterlimit="10" stroke-linecap="round" stroke-linejoin="round"/>
<path d="M18 8V8.03C18 8.1 18 8.17 17.99 8.23C17.93 10.66 16.77 12.53 15 13" stroke="black" stroke-width="1.5" stroke-miterlimit="10" stroke-linecap="round" stroke-linejoin="round"/>
<path d="M16.03 10H15.96C14.88 10 14 9.12 14 8.03V7.97C14 6.88 14.88 6 15.97 6H16.04C17.12 6 18 6.88 18 7.97V8.04C18 9.12 17.12 10 16.03 10Z" stroke="black" stroke-width="1.5" stroke-miterlimit="10" stroke-linecap="round" stroke-linejoin="round"/>
</svg>
