<svg width="24" height="24" viewBox="0 0 24 24" fill="none" xmlns="http://www.w3.org/2000/svg">
<path d="M14.5 2H9.5C5.36 2 2 5.36 2 9.5C2 12.76 4.09 15.53 7 16.56V22L12 17H14.5C18.64 17 22 13.64 22 9.5C22 5.36 18.64 2 14.5 2Z" stroke="black" stroke-width="1.5" stroke-miterlimit="10" stroke-linecap="round" stroke-linejoin="round"/>
<path d="M17 6C15.23 6.47 14.07 8.34 14.01 10.77C14 10.83 14 10.9 14 10.97V11" stroke="black" stroke-width="1.5" stroke-miterlimit="10" stroke-linecap="round" stroke-linejoin="round"/>
<path d="M15.97 9H16.04C17.12 9 18 9.88 18 10.97V11.03C18 12.12 17.12 13 16.03 13H15.96C14.88 13 14 12.12 14 11.03V10.96C14 9.88 14.88 9 15.97 9Z" stroke="black" stroke-width="1.5" stroke-miterlimit="10" stroke-linecap="round" stroke-linejoin="round"/>
<path d="M9 6C7.23 6.47 6.07 8.34 6.01 10.77C6 10.83 6 10.9 6 10.97V11" stroke="black" stroke-width="1.5" stroke-miterlimit="10" stroke-linecap="round" stroke-linejoin="round"/>
<path d="M7.97 9H8.04C9.12 9 10 9.88 10 10.97V11.03C10 12.12 9.12 13 8.03 13H7.97C6.88 13 6 12.12 6 11.03V10.96C6 9.88 6.88 9 7.97 9Z" stroke="black" stroke-width="1.5" stroke-miterlimit="10" stroke-linecap="round" stroke-linejoin="round"/>
</svg>
