<svg width="24" height="24" viewBox="0 0 24 24" fill="none" xmlns="http://www.w3.org/2000/svg">
<path d="M2 3V16C2 16.55 2.45 17 3 17H6V22L12 17H21C21.55 17 22 16.55 22 16V3C22 2.45 21.55 2 21 2H3C2.45 2 2 2.45 2 3Z" stroke="black" stroke-width="1.5" stroke-miterlimit="10" stroke-linecap="round" stroke-linejoin="round"/>
<path d="M14 11C14 8.01 15.61 6 18 6" stroke="black" stroke-width="1.5" stroke-miterlimit="10" stroke-linecap="round" stroke-linejoin="round"/>
<path d="M15.97 9H16.04C17.12 9 18 9.88 18 10.97V11.04C18 12.13 17.12 13.01 16.03 13.01H15.96C14.88 13 14 12.12 14 11.03V10.97C14 9.88 14.88 9 15.97 9Z" stroke="black" stroke-width="1.5" stroke-miterlimit="10" stroke-linecap="round" stroke-linejoin="round"/>
<path d="M6 11C6 8.01 7.61 6 10 6" stroke="black" stroke-width="1.5" stroke-miterlimit="10" stroke-linecap="round" stroke-linejoin="round"/>
<path d="M7.97 9H8.04C9.12 9 10 9.88 10 10.97V11.04C10 12.12 9.12 13 8.03 13H7.97C6.88 13 6 12.12 6 11.03V10.97C6 9.88 6.88 9 7.97 9Z" stroke="black" stroke-width="1.5" stroke-miterlimit="10" stroke-linecap="round" stroke-linejoin="round"/>
</svg>
