<svg width="24" height="24" viewBox="0 0 24 24" fill="none" xmlns="http://www.w3.org/2000/svg">
<path d="M8 4V5C8 5.55 8.45 6 9 6H15C15.55 6 16 5.55 16 5V4H19C19.55 4 20 4.45 20 5V21C20 21.55 19.55 22 19 22H5C4.45 22 4 21.55 4 21V5C4 4.45 4.45 4 5 4H8Z" stroke="black" stroke-width="1.5" stroke-linecap="round" stroke-linejoin="round"/>
<path d="M15 6H9C8.45 6 8 5.55 8 5V3C8 2.45 8.45 2 9 2H15C15.55 2 16 2.45 16 3V5C16 5.55 15.55 6 15 6Z" stroke="black" stroke-width="1.5" stroke-linecap="round" stroke-linejoin="round"/>
<path d="M12 18H12.01" stroke="black" stroke-width="1.5" stroke-miterlimit="10" stroke-linecap="round" stroke-linejoin="round"/>
<path d="M10 12.04C10.04 11.75 10.16 11.21 10.56 10.73C10.66 10.6 10.85 10.37 11.18 10.2C11.58 10 11.94 10 12.1 10C12.28 10 12.71 10.02 13.15 10.31C13.69 10.67 13.86 11.19 13.91 11.35C13.94 11.43 14.1 11.96 13.91 12.56C13.8 12.94 13.6 13.18 13.43 13.39C12.73 14.22 12.11 14.15 12 14.69C11.99 14.71 12 14.82 12 15" stroke="black" stroke-width="1.5" stroke-miterlimit="10" stroke-linecap="round" stroke-linejoin="round"/>
</svg>
