<svg width="24" height="24" viewBox="0 0 24 24" fill="none" xmlns="http://www.w3.org/2000/svg">
<path d="M17 22H4V2H22V11" stroke="black" stroke-width="1.5" stroke-miterlimit="10" stroke-linecap="round" stroke-linejoin="round"/>
<path d="M5 11.5H2V12.5H5V11.5Z" stroke="black" stroke-width="1.5" stroke-miterlimit="10" stroke-linecap="round" stroke-linejoin="round"/>
<path d="M5 18H2V19H5V18Z" stroke="black" stroke-width="1.5" stroke-miterlimit="10" stroke-linecap="round" stroke-linejoin="round"/>
<path d="M5 5H2V6H5V5Z" stroke="black" stroke-width="1.5" stroke-miterlimit="10" stroke-linecap="round" stroke-linejoin="round"/>
<path d="M15.73 18H8V17C8 14.24 10.24 12 13 12C14.16 12 15.22 12.39 16.07 13.06C15.51 13.8 15.16 14.68 15.03 15.63C14.91 16.52 15.19 17.37 15.73 18Z" stroke="black" stroke-width="1.5" stroke-miterlimit="10" stroke-linecap="round" stroke-linejoin="round"/>
<path d="M13 12C14.6569 12 16 10.6569 16 9C16 7.34315 14.6569 6 13 6C11.3431 6 10 7.34315 10 9C10 10.6569 11.3431 12 13 12Z" stroke="black" stroke-width="1.5" stroke-miterlimit="10" stroke-linecap="round" stroke-linejoin="round"/>
<path d="M20 22H20.01" stroke="black" stroke-width="1.5" stroke-miterlimit="10" stroke-linecap="round" stroke-linejoin="round"/>
<path d="M18 16.04C18.04 15.75 18.16 15.21 18.56 14.73C18.66 14.6 18.85 14.37 19.18 14.2C19.58 14 19.94 14 20.1 14C20.28 14 20.71 14.02 21.15 14.31C21.69 14.67 21.86 15.19 21.91 15.35C21.94 15.43 22.1 15.96 21.91 16.56C21.8 16.94 21.6 17.18 21.43 17.39C20.73 18.22 20.11 18.15 20 18.69C19.99 18.71 20 18.82 20 19" stroke="black" stroke-width="1.5" stroke-miterlimit="10" stroke-linecap="round" stroke-linejoin="round"/>
</svg>
