<svg width="24" height="24" viewBox="0 0 24 24" fill="none" xmlns="http://www.w3.org/2000/svg">
<path fill-rule="evenodd" clip-rule="evenodd" d="M3 4C3 2.89543 3.89543 2 5 2H19C20.1046 2 21 2.89543 21 4V20C21 21.1046 20.1046 22 19 22H5C3.89543 22 3 21.1046 3 20V4Z" stroke="black" stroke-width="1.5"/>
<path d="M2 6.5H5" stroke="black" stroke-width="1.5" stroke-linecap="round"/>
<path d="M2 18.5H5" stroke="black" stroke-width="1.5" stroke-linecap="round"/>
<path d="M2 12.5H5" stroke="black" stroke-width="1.5" stroke-linecap="round"/>
<path fill-rule="evenodd" clip-rule="evenodd" d="M7 16C7 13.2386 9.23858 11 12 11C14.7614 11 17 13.2386 17 16V19H7L7 16Z" stroke="black" stroke-width="1.5" stroke-linejoin="round"/>
<path fill-rule="evenodd" clip-rule="evenodd" d="M12 11C13.6569 11 15 9.65685 15 8C15 6.34315 13.6569 5 12 5C10.3431 5 9 6.34315 9 8C9 9.65685 10.3431 11 12 11Z" stroke="black" stroke-width="1.5"/>
</svg>
