<svg width="24" height="24" viewBox="0 0 24 24" fill="none" xmlns="http://www.w3.org/2000/svg">
<path d="M12 2V5" stroke="black" stroke-width="1.5" stroke-linecap="round" stroke-linejoin="round"/>
<path d="M8 2V5" stroke="black" stroke-width="1.5" stroke-linecap="round" stroke-linejoin="round"/>
<path d="M16 2V5" stroke="black" stroke-width="1.5" stroke-linecap="round" stroke-linejoin="round"/>
<path d="M12 22V19" stroke="black" stroke-width="1.5" stroke-linecap="round" stroke-linejoin="round"/>
<path d="M16 22V19" stroke="black" stroke-width="1.5" stroke-linecap="round" stroke-linejoin="round"/>
<path d="M8 22V19" stroke="black" stroke-width="1.5" stroke-linecap="round" stroke-linejoin="round"/>
<path d="M22 12H19" stroke="black" stroke-width="1.5" stroke-linecap="round" stroke-linejoin="round"/>
<path d="M22 8H19" stroke="black" stroke-width="1.5" stroke-linecap="round" stroke-linejoin="round"/>
<path d="M22 16H19" stroke="black" stroke-width="1.5" stroke-linecap="round" stroke-linejoin="round"/>
<path d="M2 12H5" stroke="black" stroke-width="1.5" stroke-linecap="round" stroke-linejoin="round"/>
<path d="M2 16H5" stroke="black" stroke-width="1.5" stroke-linecap="round" stroke-linejoin="round"/>
<path d="M2 8H5" stroke="black" stroke-width="1.5" stroke-linecap="round" stroke-linejoin="round"/>
<path d="M12.5 4H11.5V5H12.5V4Z" stroke="black" stroke-width="1.5" stroke-linecap="round"/>
<path d="M8.5 4H7.5V5H8.5V4Z" stroke="black" stroke-width="1.5" stroke-linecap="round"/>
<path d="M16.5 4H15.5V5H16.5V4Z" stroke="black" stroke-width="1.5" stroke-linecap="round"/>
<path d="M11.5 20H12.5V19H11.5V20Z" stroke="black" stroke-width="1.5" stroke-linecap="round"/>
<path d="M15.5 20H16.5V19H15.5V20Z" stroke="black" stroke-width="1.5" stroke-linecap="round"/>
<path d="M7.5 20H8.5V19H7.5V20Z" stroke="black" stroke-width="1.5" stroke-linecap="round"/>
<path d="M20 12.5V11.5H19V12.5H20Z" stroke="black" stroke-width="1.5" stroke-linecap="round"/>
<path d="M20 8.5V7.5H19V8.5H20Z" stroke="black" stroke-width="1.5" stroke-linecap="round"/>
<path d="M20 16.5V15.5H19V16.5H20Z" stroke="black" stroke-width="1.5" stroke-linecap="round"/>
<path d="M4 11.5V12.5H5V11.5H4Z" stroke="black" stroke-width="1.5" stroke-linecap="round"/>
<path d="M4 15.5V16.5H5V15.5H4Z" stroke="black" stroke-width="1.5" stroke-linecap="round"/>
<path d="M4 7.5V8.5H5V7.5H4Z" stroke="black" stroke-width="1.5" stroke-linecap="round"/>
<path d="M15 9H9V15H15V9Z" stroke="black" stroke-width="1.5" stroke-linecap="round" stroke-linejoin="round"/>
<path d="M17 19H7C5.9 19 5 18.1 5 17V7C5 5.9 5.9 5 7 5H17C18.1 5 19 5.9 19 7V17C19 18.1 18.1 19 17 19Z" stroke="black" stroke-width="1.5" stroke-linecap="round" stroke-linejoin="round"/>
</svg>
