<svg width="24" height="24" viewBox="0 0 24 24" fill="none" xmlns="http://www.w3.org/2000/svg">
<path fill-rule="evenodd" clip-rule="evenodd" d="M19.9034 4.7301L4.94631 10.2356L4.34644 8.52571C4.14729 7.95802 4.48758 7.31534 5.1083 7.08686L17.8218 2.40719C18.4425 2.17871 19.1044 2.45253 19.3035 3.02021L19.9034 4.7301Z" stroke="black" stroke-width="1.5" stroke-miterlimit="10" stroke-linecap="round" stroke-linejoin="round"/>
<path d="M19.6636 4.04614L4.70654 9.55164L4.94649 10.2356L19.9036 4.7301L19.6636 4.04614Z" stroke="black" stroke-width="1.5" stroke-miterlimit="10" stroke-linecap="round"/>
<path d="M3.19201 11.1517C2.53243 11.1517 2 11.6387 2 12.2419L2 20.2365C2 20.8397 2.53243 21.3266 3.19201 21.3266L16.7015 21.3266C17.3611 21.3266 17.8935 20.8397 17.8935 20.2365L17.8935 15.5968L17.8935 12.2419C17.8935 11.6387 17.3611 11.1517 16.7015 11.1517L3.19201 11.1517Z" stroke="black" stroke-width="1.5" stroke-miterlimit="10" stroke-linecap="round" stroke-linejoin="round"/>
<path d="M18.1549 8.77181L17.819 7.81427L8.75195 11.1517H11.6893L18.1549 8.77181Z" stroke="black" stroke-width="1.5" stroke-linecap="round"/>
<path d="M19.9034 4.7301L4.94629 10.2356L5.26768 11.1517H16.7013C17.3609 11.1517 17.8933 11.6386 17.8933 12.2419V13.1928L21.1811 11.9826C21.8018 11.7541 22.1421 11.1114 21.9429 10.5437L19.9034 4.7301Z" stroke="black" stroke-width="1.5" stroke-miterlimit="10" stroke-linecap="round" stroke-linejoin="round"/>
<path d="M6.96343 15.7304L4.9834 15.7304C4.70726 15.7304 4.4834 15.5066 4.4834 15.2304V14.1955C4.4834 13.9193 4.70725 13.6955 4.98339 13.6955L6.96342 13.6954C7.23957 13.6954 7.46343 13.9193 7.46343 14.1954V15.2304C7.46343 15.5066 7.23957 15.7304 6.96343 15.7304Z" stroke="black" stroke-width="1.5" stroke-linecap="round"/>
<path d="M12.1816 18.7829C12.8674 18.7829 13.4233 18.2134 13.4233 17.511C13.4233 16.8086 12.8674 16.2391 12.1816 16.2391C11.4959 16.2391 10.9399 16.8086 10.9399 17.511C10.9399 18.2134 11.4959 18.7829 12.1816 18.7829Z" stroke="black" stroke-width="1.5" stroke-miterlimit="10" stroke-linecap="round" stroke-linejoin="round"/>
<path d="M13.8376 18.7829C14.5233 18.7829 15.0793 18.2134 15.0793 17.511C15.0793 16.8086 14.5233 16.2391 13.8376 16.2391C13.5196 16.2391 13.2295 16.3616 13.0098 16.563C13.2638 16.7959 13.4237 17.1343 13.4237 17.511C13.4237 17.8877 13.2638 18.2261 13.0098 18.459C13.2295 18.6604 13.5196 18.7829 13.8376 18.7829Z" stroke="black" stroke-width="1.5" stroke-miterlimit="10" stroke-linecap="round" stroke-linejoin="round"/>
<path d="M4.4834 18.7828H7.46343" stroke="black" stroke-width="1.5" stroke-linecap="round"/>
<path d="M10.4434 13.6954H14.4167" stroke="black" stroke-width="1.5" stroke-linecap="round"/>
</svg>
