<svg width="24" height="24" viewBox="0 0 24 24" fill="none" xmlns="http://www.w3.org/2000/svg">
<path fill-rule="evenodd" clip-rule="evenodd" d="M21.9 16.01C21.97 15.85 22 15.68 22 15.5V8H2V15.5C2 16.33 2.67 17 3.5 17H12C12 14.24 14.24 12 17 12C19.42 12 21.44 13.72 21.9 16.01Z" stroke="black" stroke-width="1.5" stroke-miterlimit="10" stroke-linecap="round" stroke-linejoin="round"/>
<path fill-rule="evenodd" clip-rule="evenodd" d="M22 8H2V4.5C2 3.67 2.67 3 3.5 3H20.5C21.33 3 22 3.67 22 4.5V8Z" stroke="black" stroke-width="1.5" stroke-miterlimit="10" stroke-linecap="round" stroke-linejoin="round"/>
<path d="M22 7H2V8H22V7Z" stroke="black" stroke-width="1.5" stroke-miterlimit="10" stroke-linecap="round"/>
<path d="M5 13.5V12.5C5 12.2239 5.22386 12 5.5 12H7.5C7.77614 12 8 12.2239 8 12.5V13.5C8 13.7761 7.77614 14 7.5 14H5.5C5.22386 14 5 13.7761 5 13.5Z" stroke="black" stroke-width="1.5" stroke-linecap="round"/>
<path d="M17 22C19.7614 22 22 19.7614 22 17C22 14.2386 19.7614 12 17 12C14.2386 12 12 14.2386 12 17C12 19.7614 14.2386 22 17 22Z" stroke="black" stroke-width="1.5" stroke-miterlimit="10" stroke-linecap="round" stroke-linejoin="round"/>
<path d="M15 16.2L16.8 18L19.8 15" stroke="black" stroke-width="1.5" stroke-miterlimit="10"/>
</svg>
