<svg width="24" height="24" viewBox="0 0 24 24" fill="none" xmlns="http://www.w3.org/2000/svg">
<path d="M3.5 5C2.67 5 2 5.67 2 6.5V17.5C2 18.33 2.67 19 3.5 19H20.5C21.33 19 22 18.33 22 17.5V6.5C22 5.67 21.33 5 20.5 5H3.5Z" stroke="black" stroke-width="1.5" stroke-miterlimit="10" stroke-linecap="round" stroke-linejoin="round"/>
<path d="M5 8H10" stroke="black" stroke-width="1.5" stroke-linecap="round"/>
<path d="M13 8H14" stroke="black" stroke-width="1.5" stroke-linecap="round"/>
<path d="M17 8H18" stroke="black" stroke-width="1.5" stroke-linecap="round"/>
<path d="M6.5 16C7.32843 16 8 15.3284 8 14.5C8 13.6716 7.32843 13 6.5 13C5.67157 13 5 13.6716 5 14.5C5 15.3284 5.67157 16 6.5 16Z" stroke="black" stroke-width="1.5" stroke-miterlimit="10" stroke-linecap="round" stroke-linejoin="round"/>
<path d="M8.5 16C9.32843 16 10 15.3284 10 14.5C10 13.6716 9.32843 13 8.5 13C8.11582 13 7.76538 13.1444 7.5 13.3819C7.80687 13.6566 8 14.0558 8 14.5C8 14.9442 7.80687 15.3434 7.5 15.6181C7.76538 15.8556 8.11582 16 8.5 16Z" stroke="black" stroke-width="1.5" stroke-miterlimit="10" stroke-linecap="round" stroke-linejoin="round"/>
<path d="M16.6252 14.7815C16.8998 14.3941 17.0625 13.9126 17.0625 13.3907C17.0625 12.8689 16.8998 12.3874 16.6252 12" stroke="black" stroke-width="1.5" stroke-linecap="round" stroke-linejoin="round"/>
<path d="M18.1875 15.9062C18.7321 15.2525 19.0625 14.3937 19.0625 13.4531C19.0625 12.5126 18.7321 11.6538 18.1875 11" stroke="black" stroke-width="1.5" stroke-linecap="round" stroke-linejoin="round"/>
<path d="M15 13.25C15 13.25 15 13.25 15 13.75" stroke="black" stroke-width="1.5" stroke-linecap="round"/>
</svg>
