<svg width="24" height="24" viewBox="0 0 24 24" fill="none" xmlns="http://www.w3.org/2000/svg">
<path d="M3.5 5C2.67 5 2 5.67 2 6.5V17.5C2 18.33 2.67 19 3.5 19H20.5C21.33 19 22 18.33 22 17.5V6.5C22 5.67 21.33 5 20.5 5H3.5Z" stroke="black" stroke-width="1.5" stroke-miterlimit="10" stroke-linecap="round" stroke-linejoin="round"/>
<path d="M5 15V14C5 13.4477 5.44772 13 6 13H8C8.55228 13 9 13.4477 9 14V15C9 15.5523 8.55228 16 8 16H6C5.44772 16 5 15.5523 5 15Z" stroke="black" stroke-width="1.5" stroke-linecap="round"/>
<path d="M17.5 16C18.3284 16 19 15.3284 19 14.5C19 13.6716 18.3284 13 17.5 13C16.6716 13 16 13.6716 16 14.5C16 15.3284 16.6716 16 17.5 16Z" stroke="black" stroke-width="1.5" stroke-miterlimit="10" stroke-linecap="round" stroke-linejoin="round"/>
<path d="M15.5 16C16.3284 16 17 15.3284 17 14.5C17 13.6716 16.3284 13 15.5 13C14.6716 13 14 13.6716 14 14.5C14 15.3284 14.6716 16 15.5 16Z" stroke="black" stroke-width="1.5" stroke-miterlimit="10" stroke-linecap="round" stroke-linejoin="round"/>
<path d="M5 8H7" stroke="black" stroke-width="1.5" stroke-linecap="round"/>
<path d="M9.5 8H11" stroke="black" stroke-width="1.5" stroke-linecap="round"/>
<path d="M13.5 8H15" stroke="black" stroke-width="1.5" stroke-linecap="round"/>
<path d="M17.5 8H19" stroke="black" stroke-width="1.5" stroke-linecap="round"/>
</svg>
