<svg width="24" height="24" viewBox="0 0 24 24" fill="none" xmlns="http://www.w3.org/2000/svg">
<path d="M17.2091 11.798V12.548V11.798ZM18.4422 12.8911H19.1922H18.4422ZM20.9446 12.7404L21.6122 13.0821L21.6122 13.0821L20.9446 12.7404ZM7.26474 3.43467L6.59714 3.0929V3.0929L7.26474 3.43467ZM8.7831 3.17082L8.44525 3.84041L8.7831 3.17082ZM21.2421 9.45723L21.5799 8.78764L21.2421 9.45723ZM21.9224 10.8305L21.2548 10.4887L21.9224 10.8305ZM3.57097 10.6499L4.23857 10.9917L3.57097 10.6499ZM20.479 13.6498L20.1412 14.3194L20.8068 14.6553L21.1466 13.9916L20.479 13.6498ZM5.82138 6.25406L5.15377 5.91228L4.80999 6.58381L5.48352 6.92365L5.82138 6.25406ZM3.61857 11.798L2.97742 12.1871L3.19644 12.548H3.61857V11.798ZM18.4422 17.6284H17.6922V20.7392L19.1098 17.9702L18.4422 17.6284ZM18.3982 12.5999L17.6818 12.8218L18.3982 12.5999ZM20.9446 12.7404L21.2825 12.0708L6.62483 4.67499L6.28698 5.34458L5.94912 6.01417L20.6068 13.41L20.9446 12.7404ZM6.28698 5.34458L6.95458 5.68635L7.93234 3.77644L7.26474 3.43467L6.59714 3.0929L5.61938 5.0028L6.28698 5.34458ZM7.26474 3.43467L7.93234 3.77644C7.91662 3.80715 7.91066 3.77419 8.01117 3.75673C8.11185 3.73923 8.27076 3.75237 8.44525 3.84041L8.7831 3.17082L9.12096 2.50123C8.68715 2.28234 8.20282 2.20095 7.75436 2.27888C7.30573 2.35684 6.84473 2.60927 6.59714 3.0929L7.26474 3.43467ZM8.7831 3.17082L8.44525 3.84041L20.9042 10.1268L21.2421 9.45723L21.5799 8.78764L9.12096 2.50123L8.7831 3.17082ZM21.2421 9.45723L20.9042 10.1268C21.0788 10.2149 21.1815 10.3338 21.2252 10.422C21.2685 10.5093 21.2385 10.5204 21.2548 10.4887L21.9224 10.8305L22.59 11.1722C22.8381 10.6875 22.7721 10.1655 22.5693 9.75616C22.367 9.34778 22.0137 9.00649 21.5799 8.78764L21.2421 9.45723ZM21.9224 10.8305L21.2548 10.4887L20.277 12.3986L20.9446 12.7404L21.6122 13.0821L22.59 11.1722L21.9224 10.8305ZM3.57097 10.6499L4.23857 10.9917L6.95458 5.68635L6.28698 5.34458L5.61938 5.0028L2.90337 10.3081L3.57097 10.6499ZM20.9446 12.7404L20.277 12.3986L19.8114 13.3081L20.479 13.6498L21.1466 13.9916L21.6122 13.0821L20.9446 12.7404ZM5.82138 6.25406L6.48898 6.59583L6.95458 5.68635L6.28698 5.34458L5.61938 5.0028L5.15377 5.91228L5.82138 6.25406ZM3.61857 11.798L4.25973 11.4089C4.17858 11.2752 4.17236 11.121 4.23857 10.9917L3.57097 10.6499L2.90337 10.3081C2.58503 10.9299 2.64354 11.637 2.97742 12.1871L3.61857 11.798ZM18.4422 12.8911H17.6922V17.6284H18.4422H19.1922V12.8911H18.4422ZM20.9446 12.7404L20.277 12.3986L17.7746 17.2866L18.4422 17.6284L19.1098 17.9702L21.6122 13.0821L20.9446 12.7404ZM3.61857 11.798V12.548H16.8089V11.798V11.048H3.61857V11.798ZM16.8089 11.798V12.548H17.2091V11.798V11.048H16.8089V11.798ZM16.8089 11.798L17.1467 11.1284L6.15923 5.58447L5.82138 6.25406L5.48352 6.92365L16.471 12.4676L16.8089 11.798ZM20.479 13.6498L20.8169 12.9802L18.7361 11.9303L18.3982 12.5999L18.0603 13.2695L20.1412 14.3194L20.479 13.6498ZM17.2091 11.798V12.548C17.4932 12.548 17.6482 12.7133 17.6818 12.8218L18.3982 12.5999L19.1146 12.3781C18.8615 11.5607 18.062 11.048 17.2091 11.048V11.798ZM18.3982 12.5999L17.6818 12.8218C17.6886 12.8439 17.6922 12.8667 17.6922 12.8911H18.4422H19.1922C19.1922 12.7137 19.1652 12.5413 19.1146 12.3781L18.3982 12.5999Z" fill="black"/>
<path d="M17.209 11.798V12.548V11.798ZM20.9445 12.7404L21.6121 13.0822C21.7031 12.9044 21.7195 12.6977 21.6576 12.5079C21.5957 12.3181 21.4606 12.1607 21.2824 12.0708L20.9445 12.7404ZM6.28689 5.3446L6.62475 4.67501C6.25647 4.48919 5.80726 4.63565 5.61929 5.00283L6.28689 5.3446ZM20.4789 13.6499L20.1411 14.3195L20.8067 14.6553L21.1465 13.9916L20.4789 13.6499ZM5.82129 6.25408L5.15369 5.91231L4.80991 6.58384L5.48343 6.92368L5.82129 6.25408ZM16.8088 11.798L16.4709 12.4676L16.6303 12.548H16.8088V11.798ZM18.3981 12.6L17.6817 12.8218L17.7759 13.1261L18.0603 13.2695L18.3981 12.6ZM20.9445 12.7404L21.2824 12.0708L6.62475 4.67501L6.28689 5.3446L5.94904 6.0142L20.6067 13.41L20.9445 12.7404ZM20.9445 12.7404L20.2769 12.3986L19.8113 13.3081L20.4789 13.6499L21.1465 13.9916L21.6121 13.0822L20.9445 12.7404ZM5.82129 6.25408L6.48889 6.59586L6.95449 5.68638L6.28689 5.3446L5.61929 5.00283L5.15369 5.91231L5.82129 6.25408ZM16.8088 11.798V12.548H17.209V11.798V11.048H16.8088V11.798ZM16.8088 11.798L17.1466 11.1284L6.15914 5.58449L5.82129 6.25408L5.48343 6.92368L16.4709 12.4676L16.8088 11.798ZM20.4789 13.6499L20.8168 12.9803L18.736 11.9304L18.3981 12.6L18.0603 13.2695L20.1411 14.3195L20.4789 13.6499ZM17.209 11.798V12.548C17.4931 12.548 17.6481 12.7133 17.6817 12.8218L18.3981 12.6L19.1146 12.3781C18.8614 11.5607 18.0619 11.048 17.209 11.048V11.798Z" fill="black"/>
<path d="M17.2091 11.798V12.548V11.798ZM18.4422 12.8911H19.1922H18.4422ZM3.57097 10.6499L4.23857 10.9916L4.23857 10.9916L3.57097 10.6499ZM20.479 13.6498L21.1466 13.9916L21.4904 13.3201L20.8169 12.9802L20.479 13.6498ZM5.82138 6.25403L6.15923 5.58444L5.49355 5.24855L5.15378 5.91226L5.82138 6.25403ZM3.61857 11.798L2.97742 12.1871L3.19644 12.548H3.61857V11.798ZM18.4422 17.6284H17.6922V20.7392L19.1098 17.9701L18.4422 17.6284ZM18.3982 12.5999L17.6818 12.8218L18.3982 12.5999ZM3.61857 11.798L4.25973 11.4089C4.17858 11.2751 4.17236 11.1209 4.23857 10.9916L3.57097 10.6499L2.90337 10.3081C2.58503 10.9299 2.64354 11.637 2.97742 12.1871L3.61857 11.798ZM18.4422 12.8911H17.6922V17.6284H18.4422H19.1922V12.8911H18.4422ZM3.61857 11.798V12.548H16.8089V11.798V11.048H3.61857V11.798ZM16.8089 11.798V12.548H17.2091V11.798V11.048H16.8089V11.798ZM16.8089 11.798L17.1467 11.1284L6.15923 5.58444L5.82138 6.25403L5.48352 6.92362L16.471 12.4676L16.8089 11.798ZM20.479 13.6498L20.8169 12.9802L18.7361 11.9303L18.3982 12.5999L18.0603 13.2695L20.1412 14.3194L20.479 13.6498ZM17.2091 11.798V12.548C17.4932 12.548 17.6482 12.7133 17.6818 12.8218L18.3982 12.5999L19.1146 12.378C18.8615 11.5606 18.062 11.048 17.2091 11.048V11.798ZM18.3982 12.5999L17.6818 12.8218C17.6886 12.8438 17.6922 12.8667 17.6922 12.8911H18.4422H19.1922C19.1922 12.7137 19.1652 12.5413 19.1146 12.378L18.3982 12.5999ZM5.82138 6.25403L5.15378 5.91226L2.90337 10.3081L3.57097 10.6499L4.23857 10.9916L6.48898 6.5958L5.82138 6.25403ZM20.479 13.6498L19.8114 13.308L17.7746 17.2866L18.4422 17.6284L19.1098 17.9701L21.1466 13.9916L20.479 13.6498Z" fill="black"/>
<path fill-rule="evenodd" clip-rule="evenodd" d="M20.9443 12.7404L6.28662 5.34458L7.26438 3.43467C7.49625 2.98175 8.17446 2.8639 8.78275 3.17082L21.2417 9.45723C21.85 9.76416 22.1539 10.3775 21.922 10.8305L20.9443 12.7404Z" stroke="black" stroke-width="1.5" stroke-miterlimit="10" stroke-linecap="round" stroke-linejoin="round"/>
<path d="M3.23316 11.798C2.55081 11.798 2 12.2862 2 12.891L2 20.9069C2 21.5118 2.55081 22 3.23316 22L17.209 22C17.8913 22 18.4421 21.5118 18.4421 20.9069L18.4421 16.2549L18.4421 12.891C18.4421 12.2862 17.8913 11.798 17.209 11.798L3.23316 11.798Z" stroke="black" stroke-width="1.5" stroke-miterlimit="10" stroke-linecap="round" stroke-linejoin="round"/>
<path d="M7.15224 19.4495L5.06934 19.4495C4.7932 19.4495 4.56934 19.2256 4.56934 18.9495V17.9091C4.56934 17.6329 4.79319 17.4091 5.06933 17.4091L7.15223 17.4091C7.42837 17.4091 7.65223 17.6329 7.65223 17.9091V18.9495C7.65223 19.2256 7.42838 19.4495 7.15224 19.4495Z" stroke="black" stroke-width="1.5" stroke-linecap="round"/>
<path d="M13.2881 18.302C13.5703 17.9068 13.7375 17.4155 13.7375 16.8831C13.7375 16.3508 13.5703 15.8595 13.2881 15.4643M11.7627 16.3889V17.4091M14.8456 19.4495C15.4052 18.7825 15.7448 17.9063 15.7448 16.9468C15.7448 15.9872 15.4052 15.1111 14.8456 14.4441" stroke="black" stroke-width="1.5" stroke-linecap="round" stroke-linejoin="round"/>
<path d="M5.08301 14.3484H10.2212" stroke="black" stroke-width="1.5" stroke-linecap="round"/>
</svg>
