<svg width="24" height="24" viewBox="0 0 24 24" fill="none" xmlns="http://www.w3.org/2000/svg">
<path fill-rule="evenodd" clip-rule="evenodd" d="M22 9H2V6.5C2 5.67 2.67 5 3.5 5H20.5C21.33 5 22 5.67 22 6.5V9Z" stroke="black" stroke-width="1.5" stroke-miterlimit="10" stroke-linecap="round" stroke-linejoin="round"/>
<path fill-rule="evenodd" clip-rule="evenodd" d="M20.5 19H3.5C2.67 19 2 18.33 2 17.5V9H22V17.5C22 18.33 21.33 19 20.5 19Z" stroke="black" stroke-width="1.5" stroke-miterlimit="10" stroke-linecap="round" stroke-linejoin="round"/>
<path d="M22 8H2V9H22V8Z" stroke="black" stroke-width="1.5" stroke-miterlimit="10" stroke-linecap="round"/>
<path d="M8.5 12.5H10" stroke="black" stroke-width="1.5" stroke-linecap="round"/>
<path d="M4.5 16H9.5" stroke="black" stroke-width="1.5" stroke-linecap="round"/>
<path d="M4.5 12.5H6" stroke="black" stroke-width="1.5" stroke-linecap="round"/>
<path d="M16.5 14.5C16.5 15.6046 15.6046 16.5 14.5 16.5C13.3954 16.5 12.5 15.6046 12.5 14.5C12.5 13.3954 13.3954 12.5 14.5 12.5C15.6046 12.5 16.5 13.3954 16.5 14.5Z" stroke="black" stroke-width="1.5"/>
<path d="M17.5 16.5C18.6046 16.5 19.5 15.6046 19.5 14.5C19.5 13.3954 18.6046 12.5 17.5 12.5C16.9027 12.5 16.3665 12.7619 16 13.1771C16.3112 13.5297 16.5 13.9928 16.5 14.5C16.5 15.0072 16.3112 15.4703 16 15.8229C16.3665 16.2381 16.9027 16.5 17.5 16.5Z" stroke="black" stroke-width="1.5"/>
</svg>
