<svg width="24" height="24" viewBox="0 0 24 24" fill="none" xmlns="http://www.w3.org/2000/svg">
<path d="M4.19593 10.8268C3.53418 10.8268 3 11.3136 3 11.9167L3 19.91C3 20.5131 3.53418 21 4.19593 21L17.7498 21C18.4116 21 18.9457 20.5131 18.9457 19.91L18.9457 15.2711L18.9457 11.9167C18.9457 11.3136 18.4116 10.8268 17.7498 10.8268L4.19593 10.8268Z" stroke="black" stroke-width="1.5" stroke-miterlimit="10" stroke-linecap="round" stroke-linejoin="round"/>
<path d="M15.9542 18.4567L13.9644 18.4567C13.6882 18.4567 13.4644 18.2328 13.4644 17.9567V16.9221C13.4644 16.6459 13.6882 16.4221 13.9643 16.4221L15.9542 16.422C16.2303 16.422 16.4542 16.6459 16.4542 16.922V17.9567C16.4542 18.2328 16.2303 18.4567 15.9542 18.4567Z" stroke="black" stroke-width="1.5" stroke-linecap="round"/>
<path d="M5.98975 17.948H9.97618M15.9558 13.3701H5.98975" stroke="black" stroke-width="1.5" stroke-linecap="round"/>
<path d="M17.7497 10.8268L17.7497 11.5768H17.7497V10.8268ZM18.9457 11.9168H19.6957H18.9457ZM21.1443 14.13L21.371 14.8449L21.1443 14.13ZM21.9512 12.6664L22.6688 12.4481L21.9512 12.6664ZM20.3649 7.45285L21.0824 7.23452L20.8615 6.50859L20.1382 6.73792L20.3649 7.45285ZM9.72363 10.8268L9.49696 10.1118L4.87665 11.5767L9.72363 11.5768L9.72363 10.8268ZM18.9457 14.8271H18.1957V15.8517L19.1723 15.542L18.9457 14.8271ZM17.7497 10.8268V11.5768C18.0643 11.5768 18.1957 11.7918 18.1957 11.9168H18.9457H19.6957C19.6957 10.8355 18.7587 10.0768 17.7497 10.0768V10.8268ZM21.9512 12.6664L21.2337 12.8847C21.2916 13.075 21.1846 13.3304 20.9176 13.415L21.1443 14.13L21.371 14.8449C22.3679 14.5288 22.9818 13.4768 22.6688 12.4481L21.9512 12.6664ZM9.72363 10.8268L9.72363 11.5768L17.7497 11.5768L17.7497 10.8268L17.7497 10.0768L9.72363 10.0768L9.72363 10.8268ZM20.3649 7.45285L20.1382 6.73792L9.49696 10.1118L9.72363 10.8268L9.95031 11.5417L20.5915 8.16778L20.3649 7.45285ZM18.9457 11.9168H18.1957V14.8271H18.9457H19.6957V11.9168H18.9457ZM21.1443 14.13L20.9176 13.415L18.719 14.1121L18.9457 14.8271L19.1723 15.542L21.371 14.8449L21.1443 14.13ZM20.3649 7.45285L19.6473 7.67118L21.2337 12.8847L21.9512 12.6664L22.6688 12.4481L21.0824 7.23452L20.3649 7.45285Z" fill="black"/>
<path d="M20.3649 7.45281L20.1538 6.75885L7.32373 10.8267L8.48132 10.8267L9.72368 10.8267L20.3649 7.45281Z" stroke="black" stroke-width="1.5" stroke-miterlimit="10" stroke-linecap="round"/>
<path d="M4.2841 9.47823L3.56659 9.69656H3.56659L4.2841 9.47823ZM5.1388 8.17156L5.36548 8.88649L5.1388 8.17156ZM18.0827 4.06758L17.856 3.35266L18.0827 4.06758ZM19.5122 4.65002L20.2297 4.43169V4.43169L19.5122 4.65002ZM20.1539 6.75887L20.3805 7.4738L21.0872 7.24975L20.8714 6.54055L20.1539 6.75887ZM4.69443 10.8268L3.97691 11.0451L4.13869 11.5768H4.69443V10.8268ZM7.32385 10.8268V11.5768H7.4399L7.55052 11.5417L7.32385 10.8268ZM4.2841 9.47823L5.00162 9.2599C4.99721 9.24541 4.98851 9.19711 5.04248 9.11459C5.0974 9.03064 5.20523 8.9373 5.36548 8.88649L5.1388 8.17156L4.91213 7.45664C4.02192 7.73889 3.25099 8.65935 3.56659 9.69656L4.2841 9.47823ZM5.1388 8.17156L5.36548 8.88649L18.3094 4.78251L18.0827 4.06758L17.856 3.35266L4.91213 7.45664L5.1388 8.17156ZM18.0827 4.06758L18.3094 4.78251C18.4696 4.7317 18.6062 4.74737 18.6918 4.78223C18.7746 4.81595 18.7907 4.8554 18.7947 4.86834L19.5122 4.65002L20.2297 4.43169C19.9108 3.38366 18.748 3.06984 17.856 3.35266L18.0827 4.06758ZM4.69443 10.8268L5.41195 10.6084L5.00162 9.2599L4.2841 9.47823L3.56659 9.69656L3.97691 11.0451L4.69443 10.8268ZM4.69443 10.8268V11.5768H7.32385V10.8268V10.0768H4.69443V10.8268ZM7.32385 10.8268L7.55052 11.5417L20.3805 7.4738L20.1539 6.75887L19.9272 6.04395L7.09718 10.1118L7.32385 10.8268ZM19.5122 4.65002L18.7947 4.86834L19.4364 6.9772L20.1539 6.75887L20.8714 6.54055L20.2297 4.43169L19.5122 4.65002Z" fill="black"/>
</svg>
