<svg width="24" height="24" viewBox="0 0 24 24" fill="none" xmlns="http://www.w3.org/2000/svg">
<path d="M3.2 11C2.536 11 2 11.4786 2 12.0714L2 19.9286C2 20.5214 2.536 21 3.2 21L16.8 21C17.464 21 18 20.5214 18 19.9286L18 15.3686L18 12.0714C18 11.4786 17.464 11 16.8 11L3.2 11Z" stroke="black" stroke-width="1.5" stroke-miterlimit="10" stroke-linecap="round" stroke-linejoin="round"/>
<path d="M7.00001 15.5L5.00001 15.5C4.72386 15.5 4.5 15.2762 4.5 15V14C4.5 13.7239 4.72385 13.5 5 13.5L6.99999 13.5C7.27614 13.5 7.5 13.7239 7.5 14V15C7.5 15.2761 7.27615 15.5 7.00001 15.5Z" stroke="black" stroke-width="1.5" stroke-linecap="round"/>
<path d="M4.5 18.5H8.5M15 13.5H14M11.5 13.5H10.5" stroke="black" stroke-width="1.5" stroke-linecap="round"/>
<path d="M12.2 18.4C12.8627 18.4 13.4 17.8627 13.4 17.2C13.4 16.5373 12.8627 16 12.2 16C11.5373 16 11 16.5373 11 17.2C11 17.8627 11.5373 18.4 12.2 18.4Z" stroke="black" stroke-width="1.5" stroke-miterlimit="10" stroke-linecap="round" stroke-linejoin="round"/>
<path d="M13.8 18.4C14.4627 18.4 15 17.8627 15 17.2C15 16.5373 14.4627 16 13.8 16C13.4927 16 13.2123 16.1155 13 16.3056C13.2455 16.5253 13.4 16.8446 13.4 17.2C13.4 17.5554 13.2455 17.8747 13 18.0944C13.2123 18.2844 13.4927 18.4 13.8 18.4Z" stroke="black" stroke-width="1.5" stroke-miterlimit="10" stroke-linecap="round" stroke-linejoin="round"/>
<path d="M18 12.0715C18 11.4786 17.464 11 16.8 11L6 11V6.5H22V12.2234C22 12.8508 21.464 13.3571 20.8 13.3571H18V12.0715Z" stroke="black" stroke-width="1.5" stroke-miterlimit="10" stroke-linecap="round" stroke-linejoin="round"/>
<path d="M19 8.5H9V9.5H19V8.5Z" stroke="black" stroke-width="1.5" stroke-linecap="round"/>
<path fill-rule="evenodd" clip-rule="evenodd" d="M22 6.5H6V3.97222C6 3.43426 6.536 3 7.2 3H20.8C21.464 3 22 3.43426 22 3.97222V6.5Z" stroke="black" stroke-width="1.5" stroke-miterlimit="10" stroke-linecap="round" stroke-linejoin="round"/>
<path d="M22 6H6V6.71429H22V6Z" stroke="black" stroke-width="1.5" stroke-miterlimit="10" stroke-linecap="round"/>
</svg>
