<svg width="24" height="24" viewBox="0 0 24 24" fill="none" xmlns="http://www.w3.org/2000/svg">
<path d="M3.20721 11.1135C2.53922 11.1135 2 11.5982 2 12.1988L2 20.1577C2 20.7582 2.53922 21.243 3.20721 21.243L16.8889 21.243C17.5569 21.243 18.0961 20.7582 18.0961 20.1577L18.0961 15.5387L18.0961 12.1988C18.0961 11.5982 17.5569 11.1135 16.8889 11.1135L3.20721 11.1135Z" stroke="black" stroke-width="1.5" stroke-miterlimit="10" stroke-linecap="round" stroke-linejoin="round"/>
<path d="M7.01803 18.5258L5.00001 18.5259C4.72386 18.5259 4.5 18.302 4.5 18.0259V17C4.5 16.7238 4.72385 16.5 5 16.5L7.01802 16.4999C7.29416 16.4999 7.51802 16.7238 7.51802 16.9999V18.0258C7.51802 18.302 7.29417 18.5258 7.01803 18.5258Z" stroke="black" stroke-width="1.5" stroke-linecap="round"/>
<path d="M12.5632 13.6458H11.5572M9.04214 13.6458H8.03613" stroke="black" stroke-width="1.5" stroke-linecap="round"/>
<path d="M4.51514 13.6458H5.52114" stroke="black" stroke-width="1.5" stroke-linecap="round"/>
<path d="M12.3117 18.9638C13.0062 18.9638 13.5692 18.3969 13.5692 17.6976C13.5692 16.9983 13.0062 16.4314 12.3117 16.4314C11.6172 16.4314 11.0542 16.9983 11.0542 17.6976C11.0542 18.3969 11.6172 18.9638 12.3117 18.9638Z" stroke="black" stroke-width="1.5" stroke-miterlimit="10" stroke-linecap="round" stroke-linejoin="round"/>
<path d="M13.9882 18.9638C14.6827 18.9638 15.2457 18.3969 15.2457 17.6976C15.2457 16.9983 14.6827 16.4314 13.9882 16.4314C13.6662 16.4314 13.3724 16.5533 13.1499 16.7538C13.4072 16.9857 13.5691 17.3226 13.5691 17.6976C13.5691 18.0726 13.4072 18.4095 13.1499 18.6414C13.3724 18.8419 13.6662 18.9638 13.9882 18.9638Z" stroke="black" stroke-width="1.5" stroke-miterlimit="10" stroke-linecap="round" stroke-linejoin="round"/>
<path d="M16.8891 11.1134L16.8891 11.8634L16.8891 11.1134ZM18.0964 12.1987L18.8464 12.1987L18.0964 12.1987ZM21.8221 9.63127L22.451 9.22261V9.22261L21.8221 9.63127ZM21.4364 11.2578L21.849 11.8841L21.849 11.8841L21.4364 11.2578ZM9.7124 11.1134L9.29978 10.4871L7.21077 11.8634L9.7124 11.8634L9.7124 11.1134ZM18.8663 5.08264L19.4952 4.67398L19.0839 4.04112L18.4537 4.45635L18.8663 5.08264ZM18.0964 13.4583L17.3464 13.4583L17.3464 14.8505L18.509 14.0845L18.0964 13.4583ZM16.8891 11.1134L16.8891 11.8634C17.22 11.8634 17.3464 12.0855 17.3464 12.1987L18.0964 12.1987L18.8464 12.1987C18.8464 11.1109 17.8943 10.3634 16.8891 10.3634L16.8891 11.1134ZM21.8221 9.63127L21.1932 10.0399C21.2937 10.1946 21.2704 10.469 21.0237 10.6315L21.4364 11.2578L21.849 11.8841C22.7203 11.31 23.0415 10.1314 22.451 9.22261L21.8221 9.63127ZM9.7124 11.1134L9.7124 11.8634L16.8891 11.8634L16.8891 11.1134L16.8891 10.3634L9.7124 10.3634L9.7124 11.1134ZM18.8663 5.08264L18.4537 4.45635L9.29978 10.4871L9.7124 11.1134L10.125 11.7397L19.2789 5.70894L18.8663 5.08264ZM18.0964 12.1987L17.3464 12.1987L17.3464 13.4583L18.0964 13.4583L18.8464 13.4583L18.8464 12.1987L18.0964 12.1987ZM21.4364 11.2578L21.0237 10.6315L17.6837 12.832L18.0964 13.4583L18.509 14.0845L21.849 11.8841L21.4364 11.2578ZM18.8663 5.08264L18.2374 5.4913L21.1932 10.0399L21.8221 9.63127L22.451 9.22261L19.4952 4.67398L18.8663 5.08264Z" fill="black"/>
<path d="M4.28235 10.0215L3.86973 9.39518H3.86973L4.28235 10.0215ZM15.7311 2.47877L15.3185 1.85247V1.85247L15.7311 2.47877ZM17.2768 2.63732L16.6479 3.04598V3.04598L17.2768 2.63732ZM3.67616 11.1135L2.92807 11.1669L2.97784 11.8635L3.67616 11.8635L3.67616 11.1135ZM8.39953 11.1135L8.39953 11.8635L8.62438 11.8635L8.81215 11.7398L8.39953 11.1135ZM18.4724 4.47722L18.885 5.10351L19.5074 4.69349L19.1013 4.06856L18.4724 4.47722ZM4.28235 10.0215L4.69497 10.6478L16.1437 3.10506L15.7311 2.47877L15.3185 1.85247L3.86973 9.39518L4.28235 10.0215ZM15.7311 2.47877L16.1437 3.10506C16.2891 3.0093 16.4302 2.98521 16.5259 2.99503C16.619 3.00458 16.6434 3.03898 16.6479 3.04598L17.2768 2.63732L17.9057 2.22866C17.3067 1.30692 16.0958 1.34034 15.3185 1.85247L15.7311 2.47877ZM3.67616 11.1135L4.42426 11.06C4.4189 10.9851 4.47044 10.7957 4.69497 10.6478L4.28235 10.0215L3.86973 9.39518C3.27288 9.7884 2.87762 10.4609 2.92807 11.1669L3.67616 11.1135ZM3.67616 11.1135L3.67616 11.8635L8.39953 11.8635L8.39953 11.1135L8.39953 10.3635L3.67616 10.3635L3.67616 11.1135ZM8.39953 11.1135L8.81215 11.7398L18.885 5.10351L18.4724 4.47722L18.0598 3.85092L7.98691 10.4872L8.39953 11.1135ZM17.2768 2.63732L16.6479 3.04598L17.8435 4.88588L18.4724 4.47722L19.1013 4.06856L17.9057 2.22866L17.2768 2.63732Z" fill="black"/>
<path d="M18.4728 4.47723L19.1017 4.06857L18.6904 3.43571L18.0601 3.85094L18.4728 4.47723ZM18.6695 4.77996L19.2984 4.3713L19.2984 4.3713L18.6695 4.77996ZM18.8662 5.08268L19.2788 5.70898L19.9012 5.29896L19.4951 4.67402L18.8662 5.08268ZM8.3999 11.1135L7.98728 10.4872L5.89827 11.8635L8.3999 11.8635L8.3999 11.1135ZM9.71232 11.1135L9.71232 11.8635L9.93718 11.8635L10.1249 11.7398L9.71232 11.1135ZM18.4728 4.47723L17.8439 4.8859L18.0406 5.18862L18.6695 4.77996L19.2984 4.3713L19.1017 4.06857L18.4728 4.47723ZM18.6695 4.77996L18.0406 5.18862L18.2373 5.49135L18.8662 5.08268L19.4951 4.67402L19.2984 4.3713L18.6695 4.77996ZM8.3999 11.1135L8.81252 11.7398L18.8854 5.10353L18.4728 4.47723L18.0601 3.85094L7.98728 10.4872L8.3999 11.1135ZM8.3999 11.1135L8.3999 11.8635L9.05611 11.8635L9.05611 11.1135L9.05611 10.3635L8.3999 10.3635L8.3999 11.1135ZM18.6695 4.77996L18.2569 4.15366L8.64349 10.4872L9.05611 11.1135L9.46873 11.7398L19.0821 5.40625L18.6695 4.77996ZM9.05611 11.1135L9.05611 11.8635L9.71232 11.8635L9.71232 11.1135L9.71232 10.3635L9.05611 10.3635L9.05611 11.1135ZM18.8662 5.08268L18.4536 4.45639L9.29971 10.4872L9.71232 11.1135L10.1249 11.7398L19.2788 5.70898L18.8662 5.08268Z" fill="black"/>
</svg>
