<svg width="24" height="24" viewBox="0 0 24 24" fill="none" xmlns="http://www.w3.org/2000/svg">
<path fill-rule="evenodd" clip-rule="evenodd" d="M19.9034 5.40351L4.94631 10.909L4.34644 9.19911C4.14729 8.63142 4.48758 7.98874 5.1083 7.76026L17.8218 3.08059C18.4425 2.85211 19.1043 3.12593 19.3035 3.69361L19.9034 5.40351Z" stroke="black" stroke-width="1.5" stroke-miterlimit="10" stroke-linecap="round" stroke-linejoin="round"/>
<path d="M19.6636 4.71954L4.70654 10.225L4.94649 10.909L19.9035 5.4035L19.6636 4.71954Z" stroke="black" stroke-width="1.5" stroke-miterlimit="10" stroke-linecap="round"/>
<path d="M3.19201 11.8251C2.53243 11.8251 2 12.3121 2 12.9153L2 20.9099C2 21.5131 2.53243 22 3.19201 22L16.7015 22C17.361 22 17.8935 21.5131 17.8935 20.9099L17.8935 16.2702L17.8935 12.9153C17.8935 12.3121 17.361 11.8251 16.7015 11.8251L3.19201 11.8251Z" stroke="black" stroke-width="1.5" stroke-miterlimit="10" stroke-linecap="round" stroke-linejoin="round"/>
<path d="M18.1549 9.44521L17.8189 8.48767L8.75195 11.8251H11.6893L18.1549 9.44521Z" stroke="black" stroke-width="1.5" stroke-linecap="round"/>
<path d="M19.9033 5.4035L4.94629 10.909L5.26768 11.8251H16.7013C17.3608 11.8251 17.8933 12.312 17.8933 12.9153V13.8662L21.181 12.656C21.8018 12.4275 22.1421 11.7848 21.9429 11.2171L19.9033 5.4035Z" stroke="black" stroke-width="1.5" stroke-miterlimit="10" stroke-linecap="round" stroke-linejoin="round"/>
<path d="M6.96343 19.4562L4.9834 19.4563C4.70726 19.4563 4.4834 19.2324 4.4834 18.9563V17.9213C4.4834 17.6452 4.70725 17.4213 4.98339 17.4213L6.96342 17.4213C7.23956 17.4213 7.46342 17.6451 7.46342 17.9213V18.9562C7.46342 19.2324 7.23957 19.4562 6.96343 19.4562Z" stroke="black" stroke-width="1.5" stroke-linecap="round"/>
<path d="M12.5298 18.0145C12.7984 17.6931 12.9575 17.2936 12.9575 16.8608C12.9575 16.4279 12.7984 16.0284 12.5298 15.7071" stroke="black" stroke-width="1.5" stroke-linecap="round" stroke-linejoin="round"/>
<path d="M10.9399 16.9514L10.9399 16.5366" stroke="black" stroke-width="1.5" stroke-linecap="round" stroke-linejoin="round"/>
<path d="M14.0578 18.9475C14.5904 18.4052 14.9136 17.6928 14.9136 16.9125C14.9136 16.1323 14.5904 15.4199 14.0578 14.8776" stroke="black" stroke-width="1.5" stroke-linecap="round" stroke-linejoin="round"/>
<path d="M4.4834 14.3688H9.45011" stroke="black" stroke-width="1.5" stroke-linecap="round"/>
</svg>
