<svg width="24" height="24" viewBox="0 0 24 24" fill="none" xmlns="http://www.w3.org/2000/svg">
<path d="M3.5 5C2.67 5 2 5.67 2 6.5V17.5C2 18.33 2.67 19 3.5 19H20.5C21.33 19 22 18.33 22 17.5V6.5C22 5.67 21.33 5 20.5 5H3.5Z" stroke="black" stroke-width="1.5" stroke-miterlimit="10" stroke-linecap="round" stroke-linejoin="round"/>
<path d="M12 9H19" stroke="black" stroke-width="1.5" stroke-linecap="round"/>
<path d="M15.5 16C16.3284 16 17 15.3284 17 14.5C17 13.6716 16.3284 13 15.5 13C14.6716 13 14 13.6716 14 14.5C14 15.3284 14.6716 16 15.5 16Z" stroke="black" stroke-width="1.5" stroke-miterlimit="10" stroke-linecap="round" stroke-linejoin="round"/>
<path d="M17.5 16C18.3284 16 19 15.3284 19 14.5C19 13.6716 18.3284 13 17.5 13C17.1158 13 16.7654 13.1444 16.5 13.3819C16.8069 13.6566 17 14.0558 17 14.5C17 14.9442 16.8069 15.3434 16.5 15.6181C16.7654 15.8556 17.1158 16 17.5 16Z" stroke="black" stroke-width="1.5" stroke-miterlimit="10" stroke-linecap="round" stroke-linejoin="round"/>
<path d="M5 9.5V8.5C5 8.22386 5.22386 8 5.5 8H7.5C7.77614 8 8 8.22386 8 8.5V9.5C8 9.77614 7.77614 10 7.5 10H5.5C5.22386 10 5 9.77614 5 9.5Z" stroke="black" stroke-width="1.5" stroke-linecap="round"/>
</svg>
