<svg width="24" height="24" viewBox="0 0 24 24" fill="none" xmlns="http://www.w3.org/2000/svg">
<path fill-rule="evenodd" clip-rule="evenodd" d="M22 10H2V6.5C2 5.67 2.67 5 3.5 5H20.5C21.33 5 22 5.67 22 6.5V10Z" stroke="black" stroke-width="1.5" stroke-miterlimit="10" stroke-linecap="round" stroke-linejoin="round"/>
<path fill-rule="evenodd" clip-rule="evenodd" d="M20.5 19H3.5C2.67 19 2 18.33 2 17.5V10H22V17.5C22 18.33 21.33 19 20.5 19Z" stroke="black" stroke-width="1.5" stroke-miterlimit="10" stroke-linecap="round" stroke-linejoin="round"/>
<path d="M22 9H2V10H22V9Z" stroke="black" stroke-width="1.5" stroke-miterlimit="10" stroke-linecap="round"/>
<path d="M5 16H13" stroke="black" stroke-width="1.5" stroke-linecap="round"/>
<path d="M5 13H13" stroke="black" stroke-width="1.5" stroke-linecap="round"/>
<path d="M17.5 16C18.3284 16 19 15.3284 19 14.5C19 13.6716 18.3284 13 17.5 13C16.6716 13 16 13.6716 16 14.5C16 15.3284 16.6716 16 17.5 16Z" stroke="black" stroke-width="1.5" stroke-miterlimit="10" stroke-linecap="round" stroke-linejoin="round"/>
</svg>
