<svg width="24" height="24" viewBox="0 0 24 24" fill="none" xmlns="http://www.w3.org/2000/svg">
<path fill-rule="evenodd" clip-rule="evenodd" d="M21.9998 6.49452H5.76416V3.9707C5.76416 3.43358 6.30806 3 6.98184 3H20.7822C21.456 3 21.9998 3.43358 21.9998 3.9707V6.49452Z" stroke="black" stroke-width="1.5" stroke-miterlimit="10" stroke-linecap="round" stroke-linejoin="round"/>
<path d="M21.9998 6.13794H5.76416V6.85111H21.9998V6.13794Z" stroke="black" stroke-width="1.5" stroke-miterlimit="10" stroke-linecap="round"/>
<path d="M21.9998 6.49451H5.76416V10.8304L17.0514 7.35188C17.6944 7.15373 18.3586 7.44975 18.5384 8.01462L20.2339 13.3409H20.7822C21.456 13.3409 21.9998 12.8353 21.9998 12.209V6.49451Z" stroke="black" stroke-width="1.5" stroke-miterlimit="10" stroke-linecap="round" stroke-linejoin="round"/>
<path d="M3.88215 11.4105C3.23917 11.6087 2.86528 12.2246 3.0451 12.7895L5.42816 20.2757C5.60797 20.8406 6.27215 21.1366 6.91513 20.9384L20.0846 16.8798C20.7276 16.6817 21.1015 16.0657 20.9216 15.5009L18.5386 8.01463C18.3588 7.44976 17.6946 7.15373 17.0516 7.35189L3.88215 11.4105Z" stroke="black" stroke-width="1.5" stroke-miterlimit="10" stroke-linecap="round" stroke-linejoin="round"/>
<path d="M8.98313 14.6084L7.04645 15.2053C6.77905 15.2877 6.49438 15.1412 6.41063 14.8781L6.10733 13.9253C6.02358 13.6622 6.17245 13.3821 6.43985 13.2997L8.37653 12.7028C8.64393 12.6204 8.9286 12.7669 9.01235 13.03L9.31565 13.9828C9.3994 14.2459 9.25053 14.526 8.98313 14.6084Z" stroke="black" stroke-width="1.5" stroke-linecap="round"/>
<path d="M7.47217 17.6726L8.44051 17.3742L10.8382 16.6353" stroke="black" stroke-width="1.5" stroke-linecap="round"/>
<path d="M15.2306 16.1255C15.972 15.897 16.3848 15.1203 16.1526 14.3908C15.9203 13.6612 15.131 13.2551 14.3896 13.4836C13.6481 13.7121 13.2353 14.4887 13.4676 15.2183C13.6998 15.9478 14.4891 16.354 15.2306 16.1255Z" stroke="black" stroke-width="1.5" stroke-miterlimit="10" stroke-linecap="round" stroke-linejoin="round"/>
<path d="M17.0332 15.5133C17.7747 15.2848 18.1875 14.5081 17.9552 13.7786C17.723 13.049 16.9337 12.6429 16.1922 12.8714C15.8484 12.9773 15.5752 13.2012 15.4043 13.4836C15.7559 13.6408 16.0407 13.939 16.1652 14.3302C16.2898 14.7215 16.2288 15.1262 16.0311 15.4527C16.3352 15.5887 16.6894 15.6192 17.0332 15.5133Z" stroke="black" stroke-width="1.5" stroke-miterlimit="10" stroke-linecap="round" stroke-linejoin="round"/>
</svg>
