<svg width="24" height="24" viewBox="0 0 24 24" fill="none" xmlns="http://www.w3.org/2000/svg">
<path d="M3.2 11C2.536 11 2 11.4786 2 12.0714L2 19.9286C2 20.5214 2.536 21 3.2 21L16.8 21C17.464 21 18 20.5214 18 19.9286L18 15.3686L18 12.0714C18 11.4786 17.464 11 16.8 11L3.2 11Z" stroke="black" stroke-width="1.5" stroke-miterlimit="10" stroke-linecap="round" stroke-linejoin="round"/>
<path d="M7.00001 18.5L5.00001 18.5C4.72386 18.5 4.5 18.2762 4.5 18V17C4.5 16.7239 4.72385 16.5 5 16.5L6.99999 16.5C7.27614 16.5 7.5 16.7239 7.5 17V18C7.5 18.2761 7.27615 18.5 7.00001 18.5Z" stroke="black" stroke-width="1.5" stroke-linecap="round"/>
<path d="M4.5 13.5H9" stroke="black" stroke-width="1.5" stroke-linecap="round"/>
<path d="M12.5627 17.3908C12.8373 17.0034 13 16.5218 13 16C13 15.4782 12.8373 14.9966 12.5627 14.6092" stroke="black" stroke-width="1.5" stroke-linecap="round" stroke-linejoin="round"/>
<path d="M11 16.5L11 15.5" stroke="black" stroke-width="1.5" stroke-linecap="round" stroke-linejoin="round"/>
<path d="M14.125 18.4531C14.6696 17.7993 15 16.9406 15 16C15 15.0594 14.6696 14.2007 14.125 13.5469" stroke="black" stroke-width="1.5" stroke-linecap="round" stroke-linejoin="round"/>
<path d="M18 12.0715C18 11.4786 17.464 11 16.8 11L6 11V6.5H22V12.2234C22 12.8508 21.464 13.3571 20.8 13.3571H18V12.0715Z" stroke="black" stroke-width="1.5" stroke-miterlimit="10" stroke-linecap="round" stroke-linejoin="round"/>
<path fill-rule="evenodd" clip-rule="evenodd" d="M22 6.5H6V3.97222C6 3.43426 6.536 3 7.2 3H20.8C21.464 3 22 3.43426 22 3.97222V6.5Z" stroke="black" stroke-width="1.5" stroke-miterlimit="10" stroke-linecap="round" stroke-linejoin="round"/>
<path d="M22 6.14282H6V6.85711H22V6.14282Z" stroke="black" stroke-width="1.5" stroke-miterlimit="10" stroke-linecap="round"/>
</svg>
