<svg width="24" height="24" viewBox="0 0 24 24" fill="none" xmlns="http://www.w3.org/2000/svg">
<path d="M2.1 16.01C2.03 15.85 2 15.68 2 15.5V7.5H22V15.5C22 16.33 21.33 17 20.5 17H10C10 14.7909 8.20914 13 6 13C3.79086 13 2 14.7909 2 17" stroke="black" stroke-width="1.5" stroke-miterlimit="10" stroke-linecap="round" stroke-linejoin="round"/>
<path fill-rule="evenodd" clip-rule="evenodd" d="M2 7.5H22V4.5C22 3.67 21.33 3 20.5 3H3.5C2.67 3 2 3.67 2 4.5V7.5Z" stroke="black" stroke-width="1.5" stroke-miterlimit="10" stroke-linecap="round" stroke-linejoin="round"/>
<path d="M2 6.5H22V7.5H2V6.5Z" stroke="black" stroke-width="1.5" stroke-miterlimit="10" stroke-linecap="round"/>
<path d="M16 14.5C16.8284 14.5 17.5 13.8284 17.5 13C17.5 12.1716 16.8284 11.5 16 11.5C15.1716 11.5 14.5 12.1716 14.5 13C14.5 13.8284 15.1716 14.5 16 14.5Z" stroke="black" stroke-width="1.5" stroke-miterlimit="10" stroke-linecap="round" stroke-linejoin="round"/>
<path d="M18 14.5C18.8284 14.5 19.5 13.8284 19.5 13C19.5 12.1716 18.8284 11.5 18 11.5C17.6158 11.5 17.2654 11.6444 17 11.8819C17.3069 12.1566 17.5 12.5558 17.5 13C17.5 13.4442 17.3069 13.8434 17 14.1181C17.2654 14.3556 17.6158 14.5 18 14.5Z" stroke="black" stroke-width="1.5" stroke-miterlimit="10" stroke-linecap="round" stroke-linejoin="round"/>
<path d="M9 10H14" stroke="black" stroke-width="1.5" stroke-miterlimit="10" stroke-linejoin="round"/>
<path d="M4 10H7.5" stroke="black" stroke-width="1.5" stroke-miterlimit="10" stroke-linejoin="round"/>
<path d="M4.5 17L5.5 18L7.5 15.5" stroke="black" stroke-width="1.5" stroke-miterlimit="10"/>
<path d="M6 21C3.79086 21 2 19.2091 2 17C2 14.7909 3.79086 13 6 13C8.20914 13 10 14.7909 10 17C10 19.2091 8.20914 21 6 21Z" stroke="black" stroke-width="1.5" stroke-miterlimit="10" stroke-linecap="round" stroke-linejoin="round"/>
</svg>
