<svg width="24" height="24" viewBox="0 0 24 24" fill="none" xmlns="http://www.w3.org/2000/svg">
<path fill-rule="evenodd" clip-rule="evenodd" d="M20.0236 5.36219L4.96634 10.7731L4.36245 9.09256C4.16196 8.53463 4.50453 7.90299 5.12941 7.67844L17.9281 3.0792C18.553 2.85465 19.2193 3.12376 19.4198 3.68169L20.0236 5.36219Z" stroke="black" stroke-width="1.5" stroke-miterlimit="10" stroke-linecap="round" stroke-linejoin="round"/>
<path d="M19.7819 4.69L4.72461 10.1009L4.96617 10.7731L20.0235 5.3622L19.7819 4.69Z" stroke="black" stroke-width="1.5" stroke-miterlimit="10" stroke-linecap="round"/>
<path d="M18.2633 9.33439L17.9251 8.39331L8.79736 11.6734H11.7544L18.2633 9.33439Z" stroke="black" stroke-width="1.5" stroke-linecap="round"/>
<path d="M20.0236 5.36218L4.96631 10.773L5.28986 11.6734H16.8001C17.4641 11.6734 18.0001 12.152 18.0001 12.7448V13.6794L21.3099 12.49C21.9348 12.2655 22.2773 11.6338 22.0768 11.0759L20.0236 5.36218Z" stroke="black" stroke-width="1.5" stroke-miterlimit="10" stroke-linecap="round" stroke-linejoin="round"/>
<path d="M3.2 11.6735C2.536 11.6735 2 12.152 2 12.7449L2 20.602C2 21.1949 2.536 21.6735 3.2 21.6735L16.8 21.6735C17.464 21.6735 18 21.1949 18 20.602L18 16.0421L18 12.7449C18 12.152 17.464 11.6735 16.8 11.6735L3.2 11.6735Z" stroke="black" stroke-width="1.5" stroke-miterlimit="10" stroke-linecap="round" stroke-linejoin="round"/>
<path d="M7.00001 19.1734L5.00001 19.1734C4.72386 19.1734 4.5 18.9496 4.5 18.6734V17.6734C4.5 17.3973 4.72385 17.1734 5 17.1734L6.99999 17.1734C7.27614 17.1734 7.5 17.3973 7.5 17.6734V18.6734C7.5 18.9495 7.27615 19.1734 7.00001 19.1734Z" stroke="black" stroke-width="1.5" stroke-linecap="round"/>
<path d="M10.5 14.1734H9.5" stroke="black" stroke-width="1.5" stroke-linecap="round"/>
<path d="M7 14.1734H4.5" stroke="black" stroke-width="1.5" stroke-linecap="round"/>
<path d="M13.6252 18.4549C13.8998 18.0675 14.0625 17.586 14.0625 17.0641C14.0625 16.5423 13.8998 16.0608 13.6252 15.6734" stroke="black" stroke-width="1.5" stroke-linecap="round" stroke-linejoin="round"/>
<path d="M12 17.1734L12 16.6734" stroke="black" stroke-width="1.5" stroke-linecap="round" stroke-linejoin="round"/>
<path d="M15 19.5796C15.5446 18.9259 15.875 18.0671 15.875 17.1265C15.875 16.186 15.5446 15.3272 15 14.6734" stroke="black" stroke-width="1.5" stroke-linecap="round" stroke-linejoin="round"/>
</svg>
