<svg width="24" height="24" viewBox="0 0 24 24" fill="none" xmlns="http://www.w3.org/2000/svg">
<path d="M3.5 5C2.67 5 2 5.67 2 6.5V17.5C2 18.33 2.67 19 3.5 19H20.5C21.33 19 22 18.33 22 17.5V6.5C22 5.67 21.33 5 20.5 5H3.5Z" stroke="black" stroke-width="1.5" stroke-miterlimit="10" stroke-linecap="round" stroke-linejoin="round"/>
<path d="M5 16H19M5 13H6M9 13H10" stroke="black" stroke-width="1.5" stroke-linecap="round"/>
<path d="M17.5 11C18.3284 11 19 10.3284 19 9.5C19 8.67157 18.3284 8 17.5 8C17.1158 8 16.7654 8.14443 16.5 8.38195C16.8069 8.65661 17 9.05575 17 9.5C17 9.94425 16.8069 10.3434 16.5 10.6181C16.7654 10.8556 17.1158 11 17.5 11Z" stroke="black" stroke-width="1.5" stroke-miterlimit="10" stroke-linecap="round" stroke-linejoin="round"/>
<path d="M15.5 11C16.3284 11 17 10.3284 17 9.5C17 8.67157 16.3284 8 15.5 8C14.6716 8 14 8.67157 14 9.5C14 10.3284 14.6716 11 15.5 11Z" stroke="black" stroke-width="1.5" stroke-miterlimit="10" stroke-linecap="round" stroke-linejoin="round"/>
<path d="M5 9.5V8.5C5 8.22386 5.22386 8 5.5 8H7.5C7.77614 8 8 8.22386 8 8.5V9.5C8 9.77614 7.77614 10 7.5 10H5.5C5.22386 10 5 9.77614 5 9.5Z" stroke="black" stroke-width="1.5" stroke-linecap="round"/>
</svg>
