<svg width="24" height="24" viewBox="0 0 24 24" fill="none" xmlns="http://www.w3.org/2000/svg">
<path d="M4.19593 10.8267C3.53418 10.8267 3 11.3136 3 11.9167L3 19.91C3 20.5131 3.53418 21 4.19593 21L17.7498 21C18.4116 21 18.9457 20.5131 18.9457 19.91L18.9457 15.271L18.9457 11.9167C18.9457 11.3136 18.4116 10.8267 17.7498 10.8267L4.19593 10.8267Z" stroke="black" stroke-width="1.5" stroke-miterlimit="10" stroke-linecap="round" stroke-linejoin="round"/>
<path d="M7.98153 15.4047L5.9917 15.4047C5.71556 15.4047 5.4917 15.1808 5.4917 14.9047V13.87C5.4917 13.5939 5.71555 13.37 5.99169 13.37L7.98152 13.37C8.25766 13.37 8.48153 13.5939 8.48153 13.87V14.9047C8.48153 15.1808 8.25767 15.4046 7.98153 15.4047Z" stroke="black" stroke-width="1.5" stroke-linecap="round"/>
<path d="M5.4917 18.4566H9.47813M15.9561 13.37H14.9595M12.468 13.37H11.4714" stroke="black" stroke-width="1.5" stroke-linecap="round"/>
<path d="M13.1656 18.3549C13.8261 18.3549 14.3616 17.8083 14.3616 17.1341C14.3616 16.4599 13.8261 15.9133 13.1656 15.9133C12.5052 15.9133 11.9697 16.4599 11.9697 17.1341C11.9697 17.8083 12.5052 18.3549 13.1656 18.3549Z" stroke="black" stroke-width="1.5" stroke-miterlimit="10" stroke-linecap="round" stroke-linejoin="round"/>
<path d="M14.7602 18.3549C15.4207 18.3549 15.9561 17.8083 15.9561 17.1341C15.9561 16.4599 15.4207 15.9133 14.7602 15.9133C14.4539 15.9133 14.1745 16.0309 13.9629 16.2242C14.2076 16.4477 14.3615 16.7726 14.3615 17.1341C14.3615 17.4957 14.2076 17.8205 13.9629 18.044C14.1745 18.2374 14.4539 18.3549 14.7602 18.3549Z" stroke="black" stroke-width="1.5" stroke-miterlimit="10" stroke-linecap="round" stroke-linejoin="round"/>
<path d="M17.7497 10.8268L17.7497 11.5768H17.7497V10.8268ZM18.9457 11.9167H19.6957H18.9457ZM21.1443 14.13L21.371 14.8449L21.1443 14.13ZM21.9512 12.6664L22.6688 12.4481L21.9512 12.6664ZM20.3649 7.45282L21.0824 7.23449L20.8615 6.50856L20.1382 6.73789L20.3649 7.45282ZM9.72363 10.8267L9.49696 10.1118L4.87666 11.5767L9.72363 11.5767L9.72363 10.8267ZM18.9457 14.827H18.1957V15.8516L19.1723 15.542L18.9457 14.827ZM17.7497 10.8268V11.5768C18.0643 11.5768 18.1957 11.7918 18.1957 11.9167H18.9457H19.6957C19.6957 10.8354 18.7587 10.0768 17.7497 10.0768V10.8268ZM21.9512 12.6664L21.2337 12.8847C21.2916 13.0749 21.1846 13.3304 20.9176 13.415L21.1443 14.13L21.371 14.8449C22.3679 14.5288 22.9818 13.4768 22.6688 12.4481L21.9512 12.6664ZM9.72363 10.8267L9.72363 11.5767L17.7497 11.5768L17.7497 10.8268L17.7497 10.0768L9.72363 10.0767L9.72363 10.8267ZM20.3649 7.45282L20.1382 6.73789L9.49696 10.1118L9.72363 10.8267L9.95031 11.5417L20.5915 8.16775L20.3649 7.45282ZM18.9457 11.9167H18.1957V14.827H18.9457H19.6957V11.9167H18.9457ZM21.1443 14.13L20.9176 13.415L18.719 14.1121L18.9457 14.827L19.1723 15.542L21.371 14.8449L21.1443 14.13ZM20.3649 7.45282L19.6473 7.67115L21.2337 12.8847L21.9512 12.6664L22.6688 12.4481L21.0824 7.23449L20.3649 7.45282Z" fill="black"/>
<path d="M20.3649 7.45281L20.1538 6.75885L7.32373 10.8267L8.48132 10.8267L9.72368 10.8267L20.3649 7.45281Z" stroke="black" stroke-width="1.5" stroke-miterlimit="10" stroke-linecap="round"/>
<path d="M4.2841 9.47824L3.56659 9.69657H3.56659L4.2841 9.47824ZM5.1388 8.17157L5.36548 8.8865L5.1388 8.17157ZM18.0827 4.06758L17.856 3.35266L18.0827 4.06758ZM19.5122 4.65002L20.2297 4.43169L20.2297 4.43169L19.5122 4.65002ZM20.1539 6.75888L20.3805 7.4738L21.0872 7.24975L20.8714 6.54055L20.1539 6.75888ZM4.69443 10.8268L3.97691 11.0451L4.13869 11.5768H4.69443V10.8268ZM7.32385 10.8268V11.5768H7.4399L7.55052 11.5417L7.32385 10.8268ZM4.2841 9.47824L5.00162 9.25991C4.99721 9.24541 4.98851 9.19711 5.04248 9.1146C5.0974 9.03065 5.20523 8.9373 5.36548 8.8865L5.1388 8.17157L4.91213 7.45664C4.02192 7.7389 3.25099 8.65936 3.56659 9.69657L4.2841 9.47824ZM5.1388 8.17157L5.36548 8.8865L18.3094 4.78251L18.0827 4.06758L17.856 3.35266L4.91213 7.45664L5.1388 8.17157ZM18.0827 4.06758L18.3094 4.78251C18.4696 4.7317 18.6062 4.74737 18.6918 4.78223C18.7746 4.81595 18.7907 4.8554 18.7947 4.86834L19.5122 4.65002L20.2297 4.43169C19.9108 3.38366 18.748 3.06984 17.856 3.35266L18.0827 4.06758ZM4.69443 10.8268L5.41195 10.6084L5.00162 9.25991L4.2841 9.47824L3.56659 9.69657L3.97691 11.0451L4.69443 10.8268ZM4.69443 10.8268V11.5768H7.32385V10.8268V10.0768H4.69443V10.8268ZM7.32385 10.8268L7.55052 11.5417L20.3805 7.4738L20.1539 6.75888L19.9272 6.04395L7.09717 10.1118L7.32385 10.8268ZM19.5122 4.65002L18.7947 4.86834L19.4364 6.9772L20.1539 6.75888L20.8714 6.54055L20.2297 4.43169L19.5122 4.65002Z" fill="black"/>
</svg>
