<svg width="24" height="24" viewBox="0 0 24 24" fill="none" xmlns="http://www.w3.org/2000/svg">
<path fill-rule="evenodd" clip-rule="evenodd" d="M20.9998 6.49452H4.76416V3.9707C4.76416 3.43358 5.30806 3 5.98184 3H19.7822C20.456 3 20.9998 3.43358 20.9998 3.9707V6.49452Z" stroke="black" stroke-width="1.5" stroke-miterlimit="10" stroke-linecap="round" stroke-linejoin="round"/>
<path d="M20.9998 6.13794H4.76416V6.85111H20.9998V6.13794Z" stroke="black" stroke-width="1.5" stroke-miterlimit="10" stroke-linecap="round"/>
<path d="M20.9998 6.49451H4.76416V10.8304L16.0514 7.35188C16.6944 7.15373 17.3586 7.44975 17.5384 8.01462L19.2339 13.3409H19.7822C20.456 13.3409 20.9998 12.8353 20.9998 12.209V6.49451Z" stroke="black" stroke-width="1.5" stroke-miterlimit="10" stroke-linecap="round" stroke-linejoin="round"/>
<path d="M2.88215 11.4105C2.23917 11.6087 1.86528 12.2246 2.0451 12.7895L4.42816 20.2757C4.60797 20.8406 5.27215 21.1366 5.91513 20.9384L19.0846 16.8798C19.7276 16.6817 20.1015 16.0657 19.9216 15.5009L17.5386 8.01463C17.3588 7.44976 16.6946 7.15373 16.0516 7.35189L2.88215 11.4105Z" stroke="black" stroke-width="1.5" stroke-miterlimit="10" stroke-linecap="round" stroke-linejoin="round"/>
<path d="M7.98312 15.1076L6.04644 15.7045C5.77904 15.7869 5.49437 15.6404 5.41061 15.3773L5.10731 14.4245C5.02356 14.1614 5.17243 13.8813 5.43983 13.7989L7.37651 13.202C7.64391 13.1196 7.92858 13.2661 8.01234 13.5292L8.31564 14.482C8.39939 14.7451 8.25052 15.0252 7.98312 15.1076Z" stroke="black" stroke-width="1.5" stroke-linecap="round"/>
<path d="M6.28662 18.4758L10.16 17.282" stroke="black" stroke-width="1.5" stroke-linecap="round"/>
<path d="M14.0278 14.3626C14.1583 13.9062 14.1497 13.3987 13.972 12.908C13.7942 12.4172 13.4746 12.0189 13.0801 11.7466" stroke="black" stroke-width="1.5" stroke-linecap="round" stroke-linejoin="round"/>
<path d="M12.0376 13.9538L11.8673 13.4837" stroke="black" stroke-width="1.5" stroke-linecap="round" stroke-linejoin="round"/>
<path d="M15.9044 14.8965C16.2021 14.0991 16.2254 13.1807 15.9049 12.2961C15.5845 11.4115 14.976 10.7147 14.2328 10.2824" stroke="black" stroke-width="1.5" stroke-linecap="round" stroke-linejoin="round"/>
</svg>
