<svg width="24" height="24" viewBox="0 0 24 24" fill="none" xmlns="http://www.w3.org/2000/svg">
<path d="M3.5 5C2.67 5 2 5.67 2 6.5V17.5C2 18.33 2.67 19 3.5 19H20.5C21.33 19 22 18.33 22 17.5V6.5C22 5.67 21.33 5 20.5 5H3.5Z" stroke="black" stroke-width="1.5" stroke-miterlimit="10" stroke-linecap="round" stroke-linejoin="round"/>
<path d="M17 15V16H19V15H17Z" stroke="black" stroke-width="1.5" stroke-linecap="round"/>
<path d="M11 15V16H13V15H11Z" stroke="black" stroke-width="1.5" stroke-linecap="round"/>
<path d="M5 15V16H7V15H5Z" stroke="black" stroke-width="1.5" stroke-linecap="round"/>
<path d="M5 8H10" stroke="black" stroke-width="1.5" stroke-linecap="square"/>
<path d="M5 11H10" stroke="black" stroke-width="1.5" stroke-linecap="square"/>
<path d="M15 8V12H19V8H15Z" stroke="black" stroke-width="1.5" stroke-linecap="round"/>
</svg>
