<svg width="24" height="24" viewBox="0 0 24 24" fill="none" xmlns="http://www.w3.org/2000/svg">
<path d="M3.23316 11.1743C2.55081 11.1743 2 11.6625 2 12.2673L2 20.2832C2 20.8881 2.55081 21.3763 3.23316 21.3763L17.209 21.3763C17.8913 21.3763 18.4421 20.8881 18.4421 20.2832L18.4421 15.6311L18.4421 12.2673C18.4421 11.6625 17.8913 11.1743 17.209 11.1743L3.23316 11.1743Z" stroke="black" stroke-width="1.5" stroke-miterlimit="10" stroke-linecap="round" stroke-linejoin="round"/>
<path d="M17.2091 11.1743V11.9243V11.1743ZM18.4422 12.2674H19.1922H18.4422ZM3.57097 10.0262L4.23857 10.368L4.23857 10.368L3.57097 10.0262ZM20.479 13.0262L21.1466 13.3679L21.4904 12.6964L20.8169 12.3566L20.479 13.0262ZM5.82138 5.63037L6.15923 4.96078L5.49355 4.6249L5.15378 5.2886L5.82138 5.63037ZM3.61857 11.1743L2.97742 11.5634L3.19644 11.9243H3.61857V11.1743ZM18.4422 17.0047H17.6922V20.1155L19.1098 17.3465L18.4422 17.0047ZM18.3982 11.9762L17.6818 12.1981L18.3982 11.9762ZM3.61857 11.1743L4.25973 10.7852C4.17858 10.6515 4.17236 10.4973 4.23857 10.368L3.57097 10.0262L2.90337 9.68442C2.58503 10.3062 2.64354 11.0133 2.97742 11.5634L3.61857 11.1743ZM18.4422 12.2674H17.6922V17.0047H18.4422H19.1922V12.2674H18.4422ZM3.61857 11.1743V11.9243H16.8089V11.1743V10.4243H3.61857V11.1743ZM16.8089 11.1743V11.9243H17.2091V11.1743V10.4243H16.8089V11.1743ZM16.8089 11.1743L17.1467 10.5047L6.15923 4.96078L5.82138 5.63037L5.48352 6.29996L16.471 11.8439L16.8089 11.1743ZM20.479 13.0262L20.8169 12.3566L18.7361 11.3067L18.3982 11.9762L18.0604 12.6458L20.1412 13.6957L20.479 13.0262ZM17.2091 11.1743V11.9243C17.4932 11.9243 17.6482 12.0896 17.6818 12.1981L18.3982 11.9762L19.1146 11.7544C18.8615 10.937 18.062 10.4243 17.2091 10.4243V11.1743ZM18.3982 11.9762L17.6818 12.1981C17.6886 12.2202 17.6922 12.243 17.6922 12.2674H18.4422H19.1922C19.1922 12.09 19.1652 11.9176 19.1146 11.7544L18.3982 11.9762ZM5.82138 5.63037L5.15378 5.2886L2.90337 9.68442L3.57097 10.0262L4.23857 10.368L6.48898 5.97214L5.82138 5.63037ZM20.479 13.0262L19.8114 12.6844L17.7746 16.6629L18.4422 17.0047L19.1098 17.3465L21.1466 13.3679L20.479 13.0262Z" fill="black"/>
<path d="M17.209 11.1743V11.9243V11.1743ZM20.9445 12.1167L21.6121 12.4584C21.7031 12.2807 21.7195 12.074 21.6576 11.8842C21.5957 11.6943 21.4607 11.537 21.2824 11.4471L20.9445 12.1167ZM6.28689 4.72089L6.62475 4.05129C6.25647 3.86547 5.80726 4.01193 5.61929 4.37911L6.28689 4.72089ZM20.4789 13.0261L20.1411 13.6957L20.8067 14.0316L21.1465 13.3679L20.4789 13.0261ZM5.82129 5.63037L5.15369 5.28859L4.80991 5.96012L5.48343 6.29996L5.82129 5.63037ZM16.8088 11.1743L16.4709 11.8439L16.6303 11.9243H16.8088V11.1743ZM18.3981 11.9762L17.6817 12.1981L17.7759 12.5024L18.0603 12.6458L18.3981 11.9762ZM20.9445 12.1167L21.2824 11.4471L6.62475 4.05129L6.28689 4.72089L5.94904 5.39048L20.6067 12.7863L20.9445 12.1167ZM20.9445 12.1167L20.2769 11.7749L19.8113 12.6844L20.4789 13.0261L21.1465 13.3679L21.6121 12.4584L20.9445 12.1167ZM5.82129 5.63037L6.48889 5.97214L6.95449 5.06266L6.28689 4.72089L5.61929 4.37911L5.15369 5.28859L5.82129 5.63037ZM16.8088 11.1743V11.9243H17.209V11.1743V10.4243H16.8088V11.1743ZM16.8088 11.1743L17.1466 10.5047L6.15914 4.96077L5.82129 5.63037L5.48343 6.29996L16.4709 11.8439L16.8088 11.1743ZM20.4789 13.0261L20.8168 12.3566L18.736 11.3066L18.3981 11.9762L18.0603 12.6458L20.1411 13.6957L20.4789 13.0261ZM17.209 11.1743V11.9243C17.4931 11.9243 17.6481 12.0896 17.6817 12.1981L18.3981 11.9762L19.1146 11.7544C18.8614 10.937 18.0619 10.4243 17.209 10.4243V11.1743Z" fill="black"/>
<path fill-rule="evenodd" clip-rule="evenodd" d="M20.9443 12.1167L6.28662 4.72092L7.26438 2.81101C7.49625 2.35809 8.17446 2.24024 8.78275 2.54716L21.2417 8.83358C21.85 9.1405 22.1539 9.75387 21.922 10.2068L20.9443 12.1167Z" stroke="black" stroke-width="1.5" stroke-miterlimit="10" stroke-linecap="round" stroke-linejoin="round"/>
<path d="M7.15175 15.7652L5.06885 15.7652C4.79271 15.7652 4.56885 15.5413 4.56885 15.2652V14.2248C4.56885 13.9486 4.7927 13.7248 5.06884 13.7248L7.15174 13.7248C7.42788 13.7248 7.65174 13.9486 7.65174 14.2248V15.2652C7.65174 15.5413 7.42789 15.7652 7.15175 15.7652Z" stroke="black" stroke-width="1.5" stroke-linecap="round"/>
<path d="M4.56934 18.8258H5.08315M8.16605 18.8257L7.65223 18.8258M15.8733 13.7247H14.8457M12.2766 13.7247H11.2489" stroke="black" stroke-width="1.5" stroke-linecap="round"/>
<path d="M12.5331 19.0808C13.2425 19.0808 13.8176 18.5099 13.8176 17.8056C13.8176 17.1013 13.2425 16.5303 12.5331 16.5303C11.8236 16.5303 11.2485 17.1013 11.2485 17.8056C11.2485 18.5099 11.8236 19.0808 12.5331 19.0808Z" stroke="black" stroke-width="1.5" stroke-miterlimit="10" stroke-linecap="round" stroke-linejoin="round"/>
<path d="M14.246 19.0808C14.9555 19.0808 15.5306 18.5099 15.5306 17.8056C15.5306 17.1013 14.9555 16.5303 14.246 16.5303C13.917 16.5303 13.6169 16.6531 13.3897 16.8551C13.6525 17.0886 13.8178 17.4279 13.8178 17.8056C13.8178 18.1833 13.6525 18.5226 13.3897 18.7561C13.6169 18.9581 13.917 19.0808 14.246 19.0808Z" stroke="black" stroke-width="1.5" stroke-miterlimit="10" stroke-linecap="round" stroke-linejoin="round"/>
</svg>
