<svg width="24" height="24" viewBox="0 0 24 24" fill="none" xmlns="http://www.w3.org/2000/svg">
<path d="M7.64168 6.45448C7.02823 6.213 6.36395 6.47316 6.15448 7.03693L3.37838 14.5086C3.16891 15.0723 3.49502 15.7223 4.10846 15.9638L16.6731 20.9098C17.2865 21.1513 17.9508 20.8911 18.1603 20.3273L20.9364 12.8557C21.1458 12.2919 20.8197 11.6419 20.2063 11.4004L7.64168 6.45448Z" stroke="black" stroke-width="1.5" stroke-miterlimit="10" stroke-linecap="round" stroke-linejoin="round"/>
<path d="M6.15468 7.03693L6.85772 7.29815V7.29815L6.15468 7.03693ZM7.64188 6.45448L7.91659 5.7566L7.64188 6.45448ZM3.38487 15.2421L2.88601 15.8021C3.14342 16.0314 3.52396 16.0557 3.80843 15.861C4.09291 15.6663 4.20805 15.3028 4.08754 14.9799L3.38487 15.2421ZM3.37858 14.5086L4.08162 14.7698L3.37858 14.5086ZM5.45244 8.92694L6.15548 9.18816H6.15548L5.45244 8.92694ZM3 8.92694V8.17694H2.25V8.92694H3ZM13.9229 8.92694L13.6482 9.62482L13.9229 8.92694ZM18.826 8.92694H19.576V8.17694H18.826V8.92694ZM18.826 10.857L18.5513 11.5549C18.7822 11.6458 19.0431 11.6166 19.2482 11.4769C19.4533 11.3372 19.576 11.1052 19.576 10.857H18.826ZM6.15468 7.03693L6.85772 7.29815C6.89825 7.18907 7.0809 7.03967 7.36716 7.15236L7.64188 6.45448L7.91659 5.7566C6.97596 5.38633 5.83004 5.75726 5.45164 6.77571L6.15468 7.03693ZM3.38487 15.2421L4.08754 14.9799C4.05761 14.8997 4.0598 14.8285 4.08162 14.7698L3.37858 14.5086L2.67554 14.2473C2.51779 14.6719 2.5372 15.1157 2.6822 15.5043L3.38487 15.2421ZM3.38487 15.2421L3.88372 14.682C3.79781 14.6055 3.75 14.5023 3.75 14.3904H3H2.25C2.25 14.9537 2.49852 15.457 2.88601 15.8021L3.38487 15.2421ZM5.45244 8.92694L4.7494 8.66572L2.67554 14.2473L3.37858 14.5086L4.08162 14.7698L6.15548 9.18816L5.45244 8.92694ZM5.45244 8.92694V8.17694H3V8.92694V9.67694H5.45244V8.92694ZM18.826 8.92694V8.17694H13.9229V8.92694V9.67694H18.826V8.92694ZM13.9229 8.92694L13.6482 9.62482L18.5513 11.5549L18.826 10.857L19.1007 10.1591L14.1976 8.22906L13.9229 8.92694ZM3 8.92694H2.25V14.3904H3H3.75V8.92694H3ZM18.826 8.92694H18.076V10.857H18.826H19.576V8.92694H18.826ZM6.15468 7.03693L5.45164 6.77571L4.7494 8.66572L5.45244 8.92694L6.15548 9.18816L6.85772 7.29815L6.15468 7.03693ZM7.64188 6.45448L7.36716 7.15236L13.6482 9.62482L13.9229 8.92694L14.1976 8.22906L7.91659 5.7566L7.64188 6.45448Z" fill="black"/>
<path d="M18.826 8.19972V8.92694H13.9229L12.0755 8.19972L7.64188 6.45448C7.02843 6.213 6.36415 6.47316 6.15468 7.03693L5.72264 8.19972L5.45244 8.92694H3V8.19972H5.72264L6.15468 7.03693C6.36415 6.47316 7.02843 6.213 7.64188 6.45448L12.0755 8.19972H18.826Z" fill="black"/>
<path d="M18.826 8.19972H19.576V7.44972H18.826V8.19972ZM18.826 8.92694V9.67694H19.576V8.92694H18.826ZM3 8.92694H2.25V9.67694H3V8.92694ZM3 8.19972V7.44972H2.25V8.19972H3ZM6.15468 7.03693L6.85772 7.29815V7.29815L6.15468 7.03693ZM7.64188 6.45448L7.36716 7.15236L7.64188 6.45448ZM5.45244 8.92694V9.67694C5.7659 9.67694 6.0463 9.48199 6.15548 9.18816L5.45244 8.92694ZM13.9229 8.92694L13.6482 9.62482C13.7356 9.65926 13.8288 9.67694 13.9229 9.67694V8.92694ZM18.826 8.19972H18.076V8.92694H18.826H19.576V8.19972H18.826ZM3 8.92694H3.75V8.19972H3H2.25V8.92694H3ZM6.15468 7.03693L6.85772 7.29815C6.89825 7.18907 7.0809 7.03967 7.36716 7.15236L7.64188 6.45448L7.91659 5.7566C6.97596 5.38633 5.83004 5.75726 5.45164 6.77571L6.15468 7.03693ZM6.15468 7.03693L5.45164 6.77571L5.0196 7.93851L5.72264 8.19972L6.42568 8.46094L6.85772 7.29815L6.15468 7.03693ZM3 8.19972V8.94972H5.72264V8.19972V7.44972H3V8.19972ZM5.45244 8.92694V8.17694H3V8.92694V9.67694H5.45244V8.92694ZM12.0755 8.19972V8.94972H18.826V8.19972V7.44972H12.0755V8.19972ZM7.64188 6.45448L7.36716 7.15236L11.8007 8.8976L12.0755 8.19972L12.3502 7.50185L7.91659 5.7566L7.64188 6.45448ZM18.826 8.92694V8.17694H13.9229V8.92694V9.67694H18.826V8.92694ZM5.72264 8.19972L5.0196 7.93851L4.7494 8.66572L5.45244 8.92694L6.15548 9.18816L6.42568 8.46094L5.72264 8.19972ZM12.0755 8.19972L11.8007 8.8976L13.6482 9.62482L13.9229 8.92694L14.1976 8.22906L12.3502 7.50185L12.0755 8.19972Z" fill="black"/>
<path d="M6.15468 7.03696L6.85772 7.29818L6.15468 7.03696ZM7.64188 6.45451L7.36716 7.15239L7.64188 6.45451ZM5.72264 8.19975V8.94975C6.0361 8.94975 6.3165 8.75481 6.42568 8.46097L5.72264 8.19975ZM3 8.19975H2.25V8.94975H3V8.19975ZM12.0755 8.19975L11.8007 8.89763C11.8882 8.93207 11.9814 8.94975 12.0755 8.94975V8.19975ZM18.826 8.19975V8.94975H19.576V8.19975H18.826ZM3 5.98982H3.75C3.75 5.97126 3.75686 5.92445 3.82752 5.86552C3.90002 5.80507 4.02432 5.75 4.18695 5.75V5V4.25C3.24927 4.25 2.25 4.90612 2.25 5.98982H3ZM4.18695 5V5.75H17.639V5V4.25H4.18695V5ZM17.639 5V5.75C17.8017 5.75 17.926 5.80507 17.9985 5.86552C18.0691 5.92445 18.076 5.97126 18.076 5.98982H18.826H19.576C19.576 4.90612 18.5767 4.25 17.639 4.25V5ZM6.15468 7.03696L6.85772 7.29818C6.89825 7.1891 7.0809 7.0397 7.36716 7.15239L7.64188 6.45451L7.91659 5.75663C6.97596 5.38636 5.83004 5.75729 5.45164 6.77575L6.15468 7.03696ZM6.15468 7.03696L5.45164 6.77575L5.0196 7.93854L5.72264 8.19975L6.42568 8.46097L6.85772 7.29818L6.15468 7.03696ZM3 8.19975V8.94975H5.72264V8.19975V7.44975H3V8.19975ZM12.0755 8.19975V8.94975H18.826V8.19975V7.44975H12.0755V8.19975ZM7.64188 6.45451L7.36716 7.15239L11.8007 8.89763L12.0755 8.19975L12.3502 7.50188L7.91659 5.75663L7.64188 6.45451ZM18.826 5.98982H18.076V8.19975H18.826H19.576V5.98982H18.826ZM3 5.98982H2.25V8.19975H3H3.75V5.98982H3Z" fill="black"/>
<path d="M9.78004 12.4204L7.9323 11.693C7.67718 11.5926 7.54945 11.2983 7.64702 11.0357L8.00034 10.0848C8.09791 9.82221 8.38381 9.69074 8.63893 9.79117L10.4867 10.5185C10.7418 10.6189 10.8695 10.9132 10.772 11.1758L10.4186 12.1267C10.3211 12.3893 10.0352 12.5208 9.78004 12.4204Z" stroke="black" stroke-width="1.5" stroke-linecap="round"/>
<path d="M6.52734 13.7993L7.45121 14.1629M11.4077 15.6901L10.4838 15.3264" stroke="black" stroke-width="1.5" stroke-linecap="round"/>
<path d="M14.8062 16.3171C15.2062 16.0637 15.5408 15.6775 15.7429 15.1887C15.9451 14.6999 15.9835 14.1839 15.8837 13.7115" stroke="black" stroke-width="1.5" stroke-linecap="round" stroke-linejoin="round"/>
<path d="M14.0169 14.0003L13.8232 14.4687" stroke="black" stroke-width="1.5" stroke-linecap="round" stroke-linejoin="round"/>
<path d="M15.792 17.9937C16.5409 17.5984 17.1743 16.9257 17.5387 16.0446C17.903 15.1635 17.935 14.2273 17.6926 13.3977" stroke="black" stroke-width="1.5" stroke-linecap="round" stroke-linejoin="round"/>
</svg>
