<svg width="24" height="24" viewBox="0 0 24 24" fill="none" xmlns="http://www.w3.org/2000/svg">
<path d="M3.5 5C2.67 5 2 5.67 2 6.5V17.5C2 18.33 2.67 19 3.5 19H20.5C21.33 19 22 18.33 22 17.5V6.5C22 5.67 21.33 5 20.5 5H3.5Z" stroke="black" stroke-width="1.5" stroke-miterlimit="10" stroke-linecap="round" stroke-linejoin="round"/>
<path d="M5 16H9" stroke="black" stroke-width="1.5" stroke-linecap="round"/>
<path d="M5 8.5V10.5C5 10.7761 5.22386 11 5.5 11H7.5C7.77614 11 8 10.7761 8 10.5V8.5C8 8.22386 7.77614 8 7.5 8H5.5C5.22386 8 5 8.22386 5 8.5Z" stroke="black" stroke-width="1.5" stroke-linecap="round"/>
<path d="M11.184 13.2C11.064 12.82 11 12.42 11 12C11 11.58 11.064 11.18 11.184 10.8H18.816C18.936 11.18 19 11.58 19 12C19 12.42 18.936 12.82 18.816 13.2H11.184Z" stroke="black" stroke-width="1.5" stroke-miterlimit="10" stroke-linecap="round" stroke-linejoin="round"/>
<path d="M15 16C17.2091 16 19 14.2091 19 12C19 9.79086 17.2091 8 15 8C12.7909 8 11 9.79086 11 12C11 14.2091 12.7909 16 15 16Z" stroke="black" stroke-width="1.5" stroke-miterlimit="10" stroke-linecap="round" stroke-linejoin="round"/>
<path d="M14.9999 16C15.8836 16 16.5999 14.2091 16.5999 12C16.5999 9.79086 15.8836 8 14.9999 8C14.1162 8 13.3999 9.79086 13.3999 12C13.3999 14.2091 14.1162 16 14.9999 16Z" stroke="black" stroke-width="1.5" stroke-miterlimit="10" stroke-linecap="round" stroke-linejoin="round"/>
</svg>
