<svg width="24" height="24" viewBox="0 0 24 24" fill="none" xmlns="http://www.w3.org/2000/svg">
<path d="M3.23316 11.3349C2.55081 11.3349 2 11.7974 2 12.3704L2 19.9644C2 20.5375 2.55081 21 3.23316 21L17.209 21C17.8913 21 18.4421 20.5375 18.4421 19.9644L18.4421 15.5572L18.4421 12.3704C18.4421 11.7974 17.8913 11.3349 17.209 11.3349L3.23316 11.3349Z" stroke="black" stroke-width="1.5" stroke-miterlimit="10" stroke-linecap="round" stroke-linejoin="round"/>
<path d="M17.2091 11.335V12.085V11.335ZM18.4422 12.3705H19.1922H18.4422ZM20.9446 12.2277L21.6044 12.5843L20.9446 12.2277ZM7.26474 3.41179L6.60492 3.05523V3.05523L7.26474 3.41179ZM8.7831 3.16183L8.45965 3.8385L8.7831 3.16183ZM21.2421 9.11738L21.5655 8.44071L21.2421 9.11738ZM21.9224 10.4183L21.2625 10.0618V10.0618L21.9224 10.4183ZM3.57097 10.2473L4.23079 10.6038H4.23079L3.57097 10.2473ZM20.479 13.0893L20.1556 13.766L20.7995 14.0738L21.1388 13.4459L20.479 13.0893ZM5.82138 6.08279L5.16155 5.72623L4.78688 6.41957L5.49792 6.75946L5.82138 6.08279ZM3.61857 11.335L2.98705 11.7395L3.20834 12.085H3.61857V11.335ZM18.4422 16.8585H17.6922V19.824L19.102 17.215L18.4422 16.8585ZM18.3982 12.0947L17.6853 12.3277L18.3982 12.0947ZM20.9446 12.2277L21.2681 11.551L6.61043 4.54451L6.28698 5.22118L5.96352 5.89785L20.6212 12.9044L20.9446 12.2277ZM6.28698 5.22118L6.9468 5.57774L7.92456 3.76835L7.26474 3.41179L6.60492 3.05523L5.62715 4.86462L6.28698 5.22118ZM7.26474 3.41179L7.92456 3.76835C7.90069 3.81253 7.89 3.77577 8.00459 3.7569C8.1149 3.73874 8.28172 3.75344 8.45965 3.8385L8.7831 3.16183L9.10656 2.48516C8.6762 2.27944 8.19977 2.20458 7.76093 2.27683C7.32639 2.34836 6.86066 2.58197 6.60492 3.05523L7.26474 3.41179ZM8.7831 3.16183L8.45965 3.8385L20.9186 9.79405L21.2421 9.11738L21.5655 8.44071L9.10656 2.48516L8.7831 3.16183ZM21.2421 9.11738L20.9186 9.79405C21.0973 9.87946 21.1949 9.99119 21.2327 10.0635C21.2687 10.1325 21.2334 10.1157 21.2625 10.0618L21.9224 10.4183L22.5822 10.7749C22.8432 10.2919 22.7719 9.77001 22.5619 9.36845C22.3537 8.97027 21.9952 8.64607 21.5655 8.44071L21.2421 9.11738ZM21.9224 10.4183L21.2625 10.0618L20.2848 11.8712L20.9446 12.2277L21.6044 12.5843L22.5822 10.7749L21.9224 10.4183ZM3.57097 10.2473L4.23079 10.6038L6.9468 5.57774L6.28698 5.22118L5.62715 4.86462L2.91115 9.8907L3.57097 10.2473ZM20.9446 12.2277L20.2848 11.8712L19.8192 12.7328L20.479 13.0893L21.1388 13.4459L21.6044 12.5843L20.9446 12.2277ZM5.82138 6.08279L6.4812 6.43935L6.9468 5.57774L6.28698 5.22118L5.62715 4.86462L5.16155 5.72623L5.82138 6.08279ZM3.61857 11.335L4.2501 10.9304C4.17941 10.82 4.17705 10.7033 4.23079 10.6038L3.57097 10.2473L2.91115 9.8907C2.58035 10.5029 2.64271 11.202 2.98705 11.7395L3.61857 11.335ZM18.4422 12.3705H17.6922V16.8585H18.4422H19.1922V12.3705H18.4422ZM20.9446 12.2277L20.2848 11.8712L17.7824 16.5019L18.4422 16.8585L19.102 17.215L21.6044 12.5843L20.9446 12.2277ZM3.61857 11.335V12.085H16.8089V11.335V10.585H3.61857V11.335ZM16.8089 11.335V12.085H17.2091V11.335V10.585H16.8089V11.335ZM16.8089 11.335L17.1323 10.6583L6.14483 5.40613L5.82138 6.08279L5.49792 6.75946L16.4854 12.0116L16.8089 11.335ZM20.479 13.0893L20.8025 12.4127L18.7217 11.418L18.3982 12.0947L18.0747 12.7713L20.1556 13.766L20.479 13.0893ZM17.2091 11.335V12.085C17.5197 12.085 17.662 12.2564 17.6853 12.3277L18.3982 12.0947L19.1111 11.8616C18.8477 11.0558 18.0355 10.585 17.2091 10.585V11.335ZM18.3982 12.0947L17.6853 12.3277C17.69 12.3419 17.6922 12.3559 17.6922 12.3705H18.4422H19.1922C19.1922 12.194 19.1638 12.023 19.1111 11.8616L18.3982 12.0947Z" fill="black"/>
<path d="M17.209 11.335V12.085V11.335ZM20.9445 12.2277L21.6043 12.5843C21.702 12.4036 21.7213 12.1908 21.6577 11.9955C21.5941 11.8003 21.4533 11.6396 21.268 11.5511L20.9445 12.2277ZM6.28689 5.22119L6.61035 4.54453C6.24965 4.37211 5.81713 4.51292 5.62707 4.86463L6.28689 5.22119ZM20.4789 13.0893L20.1555 13.766L20.7994 14.0738L21.1387 13.4459L20.4789 13.0893ZM5.82129 6.0828L5.16147 5.72625L4.7868 6.41959L5.49783 6.75947L5.82129 6.0828ZM16.8088 11.335L16.4853 12.0116L16.6388 12.085H16.8088V11.335ZM18.3981 12.0947L17.6852 12.3277L17.785 12.6329L18.0747 12.7713L18.3981 12.0947ZM20.9445 12.2277L21.268 11.5511L6.61035 4.54453L6.28689 5.22119L5.96344 5.89786L20.6211 12.9044L20.9445 12.2277ZM20.9445 12.2277L20.2847 11.8712L19.8191 12.7328L20.4789 13.0893L21.1387 13.4459L21.6043 12.5843L20.9445 12.2277ZM5.82129 6.0828L6.48111 6.43936L6.94671 5.57775L6.28689 5.22119L5.62707 4.86463L5.16147 5.72625L5.82129 6.0828ZM16.8088 11.335V12.085H17.209V11.335V10.585H16.8088V11.335ZM16.8088 11.335L17.1322 10.6583L6.14474 5.40614L5.82129 6.0828L5.49783 6.75947L16.4853 12.0116L16.8088 11.335ZM20.4789 13.0893L20.8024 12.4127L18.7216 11.418L18.3981 12.0947L18.0747 12.7713L20.1555 13.766L20.4789 13.0893ZM17.209 11.335V12.085C17.5196 12.085 17.6619 12.2564 17.6852 12.3277L18.3981 12.0947L19.111 11.8617C18.8476 11.0558 18.0354 10.585 17.209 10.585V11.335Z" fill="black"/>
<path d="M17.2091 11.335V12.085V11.335ZM18.4422 12.3705H19.1922H18.4422ZM3.57097 10.2473L4.23079 10.6038L4.23079 10.6038L3.57097 10.2473ZM20.479 13.0893L21.1388 13.4459L21.5135 12.7525L20.8025 12.4127L20.479 13.0893ZM5.82138 6.08279L6.14483 5.40613L5.50087 5.09831L5.16155 5.72624L5.82138 6.08279ZM3.61857 11.335L2.98705 11.7395L3.20834 12.085H3.61857V11.335ZM18.4422 16.8585H17.6922V19.824L19.102 17.215L18.4422 16.8585ZM18.3982 12.0947L17.6853 12.3277L18.3982 12.0947ZM3.61857 11.335L4.2501 10.9304C4.17941 10.82 4.17705 10.7033 4.23079 10.6038L3.57097 10.2473L2.91115 9.8907C2.58035 10.5029 2.64271 11.202 2.98705 11.7395L3.61857 11.335ZM18.4422 12.3705H17.6922V16.8585H18.4422H19.1922V12.3705H18.4422ZM3.61857 11.335V12.085H16.8089V11.335V10.585H3.61857V11.335ZM16.8089 11.335V12.085H17.2091V11.335V10.585H16.8089V11.335ZM16.8089 11.335L17.1323 10.6583L6.14483 5.40613L5.82138 6.08279L5.49792 6.75946L16.4854 12.0116L16.8089 11.335ZM20.479 13.0893L20.8025 12.4127L18.7217 11.418L18.3982 12.0947L18.0747 12.7713L20.1556 13.766L20.479 13.0893ZM17.2091 11.335V12.085C17.5197 12.085 17.662 12.2564 17.6853 12.3277L18.3982 12.0947L19.1111 11.8617C18.8477 11.0558 18.0355 10.585 17.2091 10.585V11.335ZM18.3982 12.0947L17.6853 12.3277C17.69 12.3419 17.6922 12.3559 17.6922 12.3705H18.4422H19.1922C19.1922 12.194 19.1638 12.023 19.1111 11.8617L18.3982 12.0947ZM5.82138 6.08279L5.16155 5.72624L2.91115 9.8907L3.57097 10.2473L4.23079 10.6038L6.4812 6.43935L5.82138 6.08279ZM20.479 13.0893L19.8192 12.7328L17.7824 16.5019L18.4422 16.8585L19.102 17.215L21.1388 13.4459L20.479 13.0893Z" fill="black"/>
<path fill-rule="evenodd" clip-rule="evenodd" d="M20.9443 12.2277L6.28662 5.22118L7.26438 3.41179C7.49625 2.98271 8.17446 2.87106 8.78275 3.16183L21.2417 9.11738C21.85 9.40815 22.1539 9.98924 21.922 10.4183L20.9443 12.2277Z" stroke="black" stroke-width="1.5" stroke-miterlimit="10" stroke-linecap="round" stroke-linejoin="round"/>
<path d="M7.15224 15.6842L5.06934 15.6842C4.7932 15.6842 4.56934 15.4603 4.56934 15.1842V14.2512C4.56934 13.975 4.79319 13.7512 5.06933 13.7512L7.15223 13.7511C7.42837 13.7511 7.65223 13.975 7.65223 14.2511V15.1842C7.65223 15.4603 7.42838 15.6842 7.15224 15.6842Z" stroke="black" stroke-width="1.5" stroke-linecap="round"/>
<path d="M4.56885 18.5837H5.59648M15.8728 18.5837H15.359M12.7899 18.5837H11.7623M9.19319 18.5837L8.16556 18.5837M11.2485 14.2344H15.359" stroke="black" stroke-width="1.5" stroke-linecap="round"/>
</svg>
