<svg width="24" height="24" viewBox="0 0 24 24" fill="none" xmlns="http://www.w3.org/2000/svg">
<path fill-rule="evenodd" clip-rule="evenodd" d="M22 9H2V6.5C2 5.67 2.67 5 3.5 5H20.5C21.33 5 22 5.67 22 6.5V9Z" stroke="black" stroke-width="1.5" stroke-miterlimit="10" stroke-linecap="round" stroke-linejoin="round"/>
<path fill-rule="evenodd" clip-rule="evenodd" d="M20.5 19H3.5C2.67 19 2 18.33 2 17.5V9H22V17.5C22 18.33 21.33 19 20.5 19Z" stroke="black" stroke-width="1.5" stroke-miterlimit="10" stroke-linecap="round" stroke-linejoin="round"/>
<path d="M22 8H2V9H22V8Z" stroke="black" stroke-width="1.5" stroke-miterlimit="10" stroke-linecap="round"/>
<path d="M15.5 16.5C16.3284 16.5 17 15.8284 17 15C17 14.1716 16.3284 13.5 15.5 13.5C14.6716 13.5 14 14.1716 14 15C14 15.8284 14.6716 16.5 15.5 16.5Z" stroke="black" stroke-width="1.5" stroke-miterlimit="10" stroke-linecap="round" stroke-linejoin="round"/>
<path d="M17.5 16.5C18.3284 16.5 19 15.8284 19 15C19 14.1716 18.3284 13.5 17.5 13.5C17.1158 13.5 16.7654 13.6444 16.5 13.8819C16.8069 14.1566 17 14.5558 17 15C17 15.4442 16.8069 15.8434 16.5 16.1181C16.7654 16.3556 17.1158 16.5 17.5 16.5Z" stroke="black" stroke-width="1.5" stroke-miterlimit="10" stroke-linecap="round" stroke-linejoin="round"/>
<path d="M4.5 16.3V15.2C4.5 15.0895 4.58954 15 4.7 15H6.3C6.41046 15 6.5 15.0895 6.5 15.2V16.3C6.5 16.4105 6.41046 16.5 6.3 16.5H4.7C4.58954 16.5 4.5 16.4105 4.5 16.3Z" stroke="black" stroke-width="1.5"/>
<path d="M9 16.3V15.2C9 15.0895 9.08954 15 9.2 15H10.8C10.9105 15 11 15.0895 11 15.2V16.3C11 16.4105 10.9105 16.5 10.8 16.5H9.2C9.08954 16.5 9 16.4105 9 16.3Z" stroke="black" stroke-width="1.5"/>
</svg>
