<svg width="24" height="24" viewBox="0 0 24 24" fill="none" xmlns="http://www.w3.org/2000/svg">
<path d="M6.15468 6.03699L6.85772 6.29821V6.29821L6.15468 6.03699ZM7.64188 5.45454L7.91659 4.75666L7.64188 5.45454ZM3.38487 14.2421L2.88601 14.8022C3.14342 15.0315 3.52396 15.0558 3.80843 14.8611C4.09291 14.6664 4.20805 14.3029 4.08754 13.9799L3.38487 14.2421ZM3.37858 13.5086L4.08162 13.7698L3.37858 13.5086ZM5.45244 7.927L6.15548 8.18822H6.15548L5.45244 7.927ZM3 7.927V7.177H2.25V7.927H3ZM13.9229 7.927L13.6482 8.62488L13.9229 7.927ZM18.826 7.927H19.576V7.177H18.826V7.927ZM18.826 9.85708L18.5513 10.555C18.7822 10.6458 19.0431 10.6166 19.2482 10.477C19.4533 10.3373 19.576 10.1052 19.576 9.85708H18.826ZM6.15468 6.03699L6.85772 6.29821C6.89825 6.18913 7.0809 6.03973 7.36716 6.15242L7.64188 5.45454L7.91659 4.75666C6.97596 4.38639 5.83004 4.75732 5.45164 5.77578L6.15468 6.03699ZM3.38487 14.2421L4.08754 13.9799C4.05761 13.8997 4.0598 13.8286 4.08162 13.7698L3.37858 13.5086L2.67554 13.2474C2.51779 13.672 2.5372 14.1158 2.6822 14.5043L3.38487 14.2421ZM3.38487 14.2421L3.88372 13.6821C3.79781 13.6056 3.75 13.5024 3.75 13.3904H3H2.25C2.25 13.9538 2.49852 14.457 2.88601 14.8022L3.38487 14.2421ZM5.45244 7.927L4.7494 7.66578L2.67554 13.2474L3.37858 13.5086L4.08162 13.7698L6.15548 8.18822L5.45244 7.927ZM5.45244 7.927V7.177H3V7.927V8.677H5.45244V7.927ZM18.826 7.927V7.177H13.9229V7.927V8.677H18.826V7.927ZM13.9229 7.927L13.6482 8.62488L18.5513 10.555L18.826 9.85708L19.1007 9.1592L14.1976 7.22912L13.9229 7.927ZM3 7.927H2.25V13.3904H3H3.75V7.927H3ZM18.826 7.927H18.076V9.85708H18.826H19.576V7.927H18.826ZM6.15468 6.03699L5.45164 5.77578L4.7494 7.66578L5.45244 7.927L6.15548 8.18822L6.85772 6.29821L6.15468 6.03699ZM7.64188 5.45454L7.36716 6.15242L13.6482 8.62488L13.9229 7.927L14.1976 7.22912L7.91659 4.75666L7.64188 5.45454Z" fill="black"/>
<path d="M18.826 7.19972H19.576V6.44972H18.826V7.19972ZM18.826 7.92694V8.67694H19.576V7.92694H18.826ZM3 7.92694H2.25V8.67694H3V7.92694ZM3 7.19972V6.44972H2.25V7.19972H3ZM6.15468 6.03693L6.85772 6.29815V6.29815L6.15468 6.03693ZM7.64188 5.45448L7.36716 6.15236L7.64188 5.45448ZM5.45244 7.92694V8.67694C5.7659 8.67694 6.0463 8.48199 6.15548 8.18816L5.45244 7.92694ZM13.9229 7.92694L13.6482 8.62482C13.7356 8.65926 13.8288 8.67694 13.9229 8.67694V7.92694ZM18.826 7.19972H18.076V7.92694H18.826H19.576V7.19972H18.826ZM3 7.92694H3.75V7.19972H3H2.25V7.92694H3ZM6.15468 6.03693L6.85772 6.29815C6.89825 6.18907 7.0809 6.03967 7.36716 6.15236L7.64188 5.45448L7.91659 4.7566C6.97596 4.38633 5.83004 4.75726 5.45164 5.77571L6.15468 6.03693ZM6.15468 6.03693L5.45164 5.77571L5.0196 6.93851L5.72264 7.19972L6.42568 7.46094L6.85772 6.29815L6.15468 6.03693ZM3 7.19972V7.94972H5.72264V7.19972V6.44972H3V7.19972ZM5.45244 7.92694V7.17694H3V7.92694V8.67694H5.45244V7.92694ZM12.0755 7.19972V7.94972H18.826V7.19972V6.44972H12.0755V7.19972ZM7.64188 5.45448L7.36716 6.15236L11.8007 7.8976L12.0755 7.19972L12.3502 6.50185L7.91659 4.7566L7.64188 5.45448ZM18.826 7.92694V7.17694H13.9229V7.92694V8.67694H18.826V7.92694ZM5.72264 7.19972L5.0196 6.93851L4.7494 7.66572L5.45244 7.92694L6.15548 8.18816L6.42568 7.46094L5.72264 7.19972ZM12.0755 7.19972L11.8007 7.8976L13.6482 8.62482L13.9229 7.92694L14.1976 7.22906L12.3502 6.50185L12.0755 7.19972Z" fill="black"/>
<path d="M6.15468 6.03696L6.85772 6.29818L6.15468 6.03696ZM7.64188 5.45451L7.36716 6.15239L7.64188 5.45451ZM5.72264 7.19975V7.94975C6.0361 7.94975 6.3165 7.75481 6.42568 7.46097L5.72264 7.19975ZM3 7.19975H2.25V7.94975H3V7.19975ZM12.0755 7.19975L11.8007 7.89763C11.8882 7.93207 11.9814 7.94975 12.0755 7.94975V7.19975ZM18.826 7.19975V7.94975H19.576V7.19975H18.826ZM3 4.98982H3.75C3.75 4.97126 3.75686 4.92445 3.82752 4.86552C3.90002 4.80507 4.02432 4.75 4.18695 4.75V4V3.25C3.24927 3.25 2.25 3.90612 2.25 4.98982H3ZM4.18695 4V4.75H17.639V4V3.25H4.18695V4ZM17.639 4V4.75C17.8017 4.75 17.926 4.80507 17.9985 4.86552C18.0691 4.92445 18.076 4.97126 18.076 4.98982H18.826H19.576C19.576 3.90612 18.5767 3.25 17.639 3.25V4ZM6.15468 6.03696L6.85772 6.29818C6.89825 6.1891 7.0809 6.0397 7.36716 6.15239L7.64188 5.45451L7.91659 4.75663C6.97596 4.38636 5.83004 4.75729 5.45164 5.77575L6.15468 6.03696ZM6.15468 6.03696L5.45164 5.77575L5.0196 6.93854L5.72264 7.19975L6.42568 7.46097L6.85772 6.29818L6.15468 6.03696ZM3 7.19975V7.94975H5.72264V7.19975V6.44975H3V7.19975ZM12.0755 7.19975V7.94975H18.826V7.19975V6.44975H12.0755V7.19975ZM7.64188 5.45451L7.36716 6.15239L11.8007 7.89763L12.0755 7.19975L12.3502 6.50188L7.91659 4.75663L7.64188 5.45451ZM18.826 4.98982H18.076V7.19975H18.826H19.576V4.98982H18.826ZM3 4.98982H2.25V7.19975H3H3.75V4.98982H3Z" fill="black"/>
<path d="M7.64168 5.45454C7.02823 5.21306 6.36395 5.47322 6.15448 6.03699L3.37838 13.5086C3.16891 14.0724 3.49502 14.7224 4.10846 14.9639L16.6731 19.9098C17.2865 20.1513 17.9508 19.8912 18.1603 19.3274L20.9364 11.8558C21.1458 11.292 20.8197 10.642 20.2063 10.4005L7.64168 5.45454Z" stroke="black" stroke-width="1.5" stroke-miterlimit="10" stroke-linecap="round" stroke-linejoin="round"/>
<path d="M9.58132 11.2107L7.73358 10.4834C7.47846 10.383 7.35073 10.0887 7.4483 9.82607L7.80162 8.87513C7.89919 8.61254 8.18509 8.48108 8.44021 8.5815L10.288 9.30883C10.5431 9.40925 10.6708 9.70354 10.5732 9.96613L10.2199 10.9171C10.1223 11.1797 9.83644 11.3111 9.58132 11.2107Z" stroke="black" stroke-width="1.5" stroke-linecap="round"/>
<path d="M6.22852 12.7264L7.15238 13.0901L9.924 14.1811M18.4345 12.2907L15.6629 11.1997L14.7391 10.836" stroke="black" stroke-width="1.5" stroke-linecap="round"/>
<path d="M13.2734 15.9331C13.911 16.1841 14.6256 15.8555 14.8695 15.1992C15.1133 14.5429 14.7941 13.8074 14.1565 13.5564C13.5188 13.3054 12.8043 13.634 12.5604 14.2903C12.3166 14.9466 12.6358 15.6821 13.2734 15.9331Z" stroke="black" stroke-width="1.5" stroke-miterlimit="10" stroke-linecap="round" stroke-linejoin="round"/>
<path d="M14.8125 16.539C15.4502 16.79 16.1647 16.4615 16.4086 15.8052C16.6524 15.1488 16.3332 14.4133 15.6956 14.1623C15.3999 14.0459 15.0877 14.0542 14.8135 14.1619C14.9688 14.4725 15 14.8472 14.8692 15.1992C14.7385 15.5511 14.4723 15.8088 14.1553 15.9335C14.2896 16.202 14.5168 16.4226 14.8125 16.539Z" stroke="black" stroke-width="1.5" stroke-miterlimit="10" stroke-linecap="round" stroke-linejoin="round"/>
</svg>
