<svg width="24" height="24" viewBox="0 0 24 24" fill="none" xmlns="http://www.w3.org/2000/svg">
<path fill-rule="evenodd" clip-rule="evenodd" d="M4 4C4 2.89543 4.89543 2 6 2H18C19.1046 2 20 2.89543 20 4V17C20 19.7614 17.7614 22 15 22H9C6.23858 22 4 19.7614 4 17V4Z" stroke="black" stroke-width="1.5"/>
<path fill-rule="evenodd" clip-rule="evenodd" d="M12 13C14.2091 13 16 11.2091 16 9C16 6.79086 14.2091 5 12 5C9.79086 5 8 6.79086 8 9C8 11.2091 9.79086 13 12 13Z" stroke="black" stroke-width="1.5"/>
<path d="M12 8V10" stroke="black" stroke-width="1.5" stroke-linecap="square"/>
<path d="M13 9H11" stroke="black" stroke-width="1.5" stroke-linecap="square"/>
<path d="M10.5 15.9473V16.0527" stroke="black" stroke-width="1.5" stroke-linecap="round"/>
<path d="M13.5 15.9473V16.0527" stroke="black" stroke-width="1.5" stroke-linecap="round"/>
<path d="M13.5 18.9473V19.0527" stroke="black" stroke-width="1.5" stroke-linecap="round"/>
<path d="M10.5 18.9473V19.0527" stroke="black" stroke-width="1.5" stroke-linecap="round"/>
</svg>
