<svg width="24" height="24" viewBox="0 0 24 24" fill="none" xmlns="http://www.w3.org/2000/svg">
<path d="M12 22C17.5228 22 22 17.5228 22 12C22 6.47715 17.5228 2 12 2C6.47715 2 2 6.47715 2 12C2 17.5228 6.47715 22 12 22Z" stroke="black" stroke-width="1.5" stroke-miterlimit="10" stroke-linecap="round" stroke-linejoin="round"/>
<path d="M12 8C12.2761 8 12.5 7.77614 12.5 7.5C12.5 7.22386 12.2761 7 12 7C11.7239 7 11.5 7.22386 11.5 7.5C11.5 7.77614 11.7239 8 12 8Z" stroke="black" stroke-width="1.5" stroke-miterlimit="10" stroke-linecap="round" stroke-linejoin="round"/>
<path d="M16.5 8C16.7761 8 17 7.77614 17 7.5C17 7.22386 16.7761 7 16.5 7C16.2239 7 16 7.22386 16 7.5C16 7.77614 16.2239 8 16.5 8Z" stroke="black" stroke-width="1.5" stroke-miterlimit="10" stroke-linecap="round" stroke-linejoin="round"/>
<path d="M7.5 8C7.77614 8 8 7.77614 8 7.5C8 7.22386 7.77614 7 7.5 7C7.22386 7 7 7.22386 7 7.5C7 7.77614 7.22386 8 7.5 8Z" stroke="black" stroke-width="1.5" stroke-miterlimit="10" stroke-linecap="round" stroke-linejoin="round"/>
<path d="M12 13C12.2761 13 12.5 12.7761 12.5 12.5C12.5 12.2239 12.2761 12 12 12C11.7239 12 11.5 12.2239 11.5 12.5C11.5 12.7761 11.7239 13 12 13Z" stroke="black" stroke-width="1.5" stroke-miterlimit="10" stroke-linecap="round" stroke-linejoin="round"/>
<path d="M12 18C12.2761 18 12.5 17.7761 12.5 17.5C12.5 17.2239 12.2761 17 12 17C11.7239 17 11.5 17.2239 11.5 17.5C11.5 17.7761 11.7239 18 12 18Z" stroke="black" stroke-width="1.5" stroke-miterlimit="10" stroke-linecap="round" stroke-linejoin="round"/>
<path d="M16.5 13C16.7761 13 17 12.7761 17 12.5C17 12.2239 16.7761 12 16.5 12C16.2239 12 16 12.2239 16 12.5C16 12.7761 16.2239 13 16.5 13Z" stroke="black" stroke-width="1.5" stroke-miterlimit="10" stroke-linecap="round" stroke-linejoin="round"/>
<path d="M7.5 13C7.77614 13 8 12.7761 8 12.5C8 12.2239 7.77614 12 7.5 12C7.22386 12 7 12.2239 7 12.5C7 12.7761 7.22386 13 7.5 13Z" stroke="black" stroke-width="1.5" stroke-miterlimit="10" stroke-linecap="round" stroke-linejoin="round"/>
</svg>
