<svg width="24" height="24" viewBox="0 0 24 24" fill="none" xmlns="http://www.w3.org/2000/svg">
<path d="M12 5C12.5523 5 13 4.55228 13 4C13 3.44772 12.5523 3 12 3C11.4477 3 11 3.44772 11 4C11 4.55228 11.4477 5 12 5Z" stroke="black" stroke-width="1.5" stroke-miterlimit="10" stroke-linecap="round" stroke-linejoin="bevel"/>
<path d="M21 14C21.5523 14 22 13.5523 22 13C22 12.4477 21.5523 12 21 12C20.4477 12 20 12.4477 20 13C20 13.5523 20.4477 14 21 14Z" stroke="black" stroke-width="1.5" stroke-miterlimit="10" stroke-linecap="round" stroke-linejoin="bevel"/>
<path d="M3 14C3.55228 14 4 13.5523 4 13C4 12.4477 3.55228 12 3 12C2.44772 12 2 12.4477 2 13C2 13.5523 2.44772 14 3 14Z" stroke="black" stroke-width="1.5" stroke-miterlimit="10" stroke-linecap="round" stroke-linejoin="bevel"/>
<path d="M5.6001 7.59998C6.15238 7.59998 6.6001 7.15226 6.6001 6.59998C6.6001 6.04769 6.15238 5.59998 5.6001 5.59998C5.04781 5.59998 4.6001 6.04769 4.6001 6.59998C4.6001 7.15226 5.04781 7.59998 5.6001 7.59998Z" stroke="black" stroke-width="1.5" stroke-miterlimit="10" stroke-linecap="round" stroke-linejoin="bevel"/>
<path d="M18.3999 21C18.9522 21 19.3999 20.5523 19.3999 20C19.3999 19.4477 18.9522 19 18.3999 19C17.8476 19 17.3999 19.4477 17.3999 20C17.3999 20.5523 17.8476 21 18.3999 21Z" stroke="black" stroke-width="1.5" stroke-miterlimit="10" stroke-linecap="round" stroke-linejoin="bevel"/>
<path d="M18.3999 7.59998C18.9522 7.59998 19.3999 7.15226 19.3999 6.59998C19.3999 6.04769 18.9522 5.59998 18.3999 5.59998C17.8476 5.59998 17.3999 6.04769 17.3999 6.59998C17.3999 7.15226 17.8476 7.59998 18.3999 7.59998Z" stroke="black" stroke-width="1.5" stroke-miterlimit="10" stroke-linecap="round" stroke-linejoin="bevel"/>
<path d="M5.6001 21C6.15238 21 6.6001 20.5523 6.6001 20C6.6001 19.4477 6.15238 19 5.6001 19C5.04781 19 4.6001 19.4477 4.6001 20C4.6001 20.5523 5.04781 21 5.6001 21Z" stroke="black" stroke-width="1.5" stroke-miterlimit="10" stroke-linecap="round" stroke-linejoin="bevel"/>
<path d="M12 18C14.7614 18 17 15.7614 17 13C17 10.2386 14.7614 8 12 8C9.23858 8 7 10.2386 7 13C7 15.7614 9.23858 18 12 18Z" stroke="black" stroke-width="1.5" stroke-miterlimit="10" stroke-linecap="round" stroke-linejoin="round"/>
<path d="M12 13L8.5 16.5" stroke="black" stroke-width="1.5" stroke-miterlimit="10" stroke-linecap="round" stroke-linejoin="round"/>
</svg>
