<svg width="24" height="24" viewBox="0 0 24 24" fill="none" xmlns="http://www.w3.org/2000/svg">
<path d="M9 13C9.55 13 10 12.55 10 12C10 11.45 9.55 11 9 11C8.45 11 8 11.45 8 12C8 12.55 8.45 13 9 13Z" stroke="black" stroke-width="1.5" stroke-miterlimit="10" stroke-linecap="round" stroke-linejoin="round"/>
<path d="M15 13C15.55 13 16 12.55 16 12C16 11.45 15.55 11 15 11C14.45 11 14 11.45 14 12C14 12.55 14.45 13 15 13Z" stroke="black" stroke-width="1.5" stroke-miterlimit="10" stroke-linecap="round" stroke-linejoin="round"/>
<path d="M9 19C9.55 19 10 18.55 10 18C10 17.45 9.55 17 9 17C8.45 17 8 17.45 8 18C8 18.55 8.45 19 9 19Z" stroke="black" stroke-width="1.5" stroke-miterlimit="10" stroke-linecap="round" stroke-linejoin="round"/>
<path d="M15 19C15.55 19 16 18.55 16 18C16 17.45 15.55 17 15 17C14.45 17 14 17.45 14 18C14 18.55 14.45 19 15 19Z" stroke="black" stroke-width="1.5" stroke-miterlimit="10" stroke-linecap="round" stroke-linejoin="round"/>
<path d="M9 7C9.55 7 10 6.55 10 6C10 5.45 9.55 5 9 5C8.45 5 8 5.45 8 6C8 6.55 8.45 7 9 7Z" stroke="black" stroke-width="1.5" stroke-miterlimit="10" stroke-linecap="round" stroke-linejoin="round"/>
<path d="M15 7C15.55 7 16 6.55 16 6C16 5.45 15.55 5 15 5C14.45 5 14 5.45 14 6C14 6.55 14.45 7 15 7Z" stroke="black" stroke-width="1.5" stroke-miterlimit="10" stroke-linecap="round" stroke-linejoin="round"/>
</svg>
