<svg width="24" height="24" viewBox="0 0 24 24" fill="none" xmlns="http://www.w3.org/2000/svg">
<path d="M7 16.5V21" stroke="black" stroke-width="1.5" stroke-linecap="round"/>
<path d="M17 16.5V21" stroke="black" stroke-width="1.5" stroke-linecap="round"/>
<path fill-rule="evenodd" clip-rule="evenodd" d="M17.5 10H16.5V17H17.5V10Z" stroke="black" stroke-width="1.5"/>
<path fill-rule="evenodd" clip-rule="evenodd" d="M6.5 10H7.5V17H6.5V10Z" stroke="black" stroke-width="1.5"/>
<path fill-rule="evenodd" clip-rule="evenodd" d="M16.9078 10C15.0257 10 13.5 8.433 13.5 6.5C13.5 4.567 15.0257 3 16.9078 3C18.7899 3 21.5 3.89061 21.5 6.5C21.5 9.10939 18.7899 10 16.9078 10Z" stroke="black" stroke-width="1.5"/>
<path fill-rule="evenodd" clip-rule="evenodd" d="M7.09221 10C8.97428 10 10.5 8.433 10.5 6.5C10.5 4.567 8.97428 3 7.09221 3C5.21014 3 2.5 3.89061 2.5 6.5C2.5 9.10939 5.21014 10 7.09221 10Z" stroke="black" stroke-width="1.5"/>
<path d="M17 6.5H16" stroke="black" stroke-width="1.5" stroke-linecap="round"/>
<path d="M22 5.5V7.5" stroke="black" stroke-width="1.5" stroke-linecap="round"/>
<path d="M7 6.5H8" stroke="black" stroke-width="1.5" stroke-linecap="round"/>
<path d="M2 5.5V7.5" stroke="black" stroke-width="1.5" stroke-linecap="round"/>
</svg>
