<svg width="24" height="24" viewBox="0 0 24 24" fill="none" xmlns="http://www.w3.org/2000/svg">
<path d="M4 22H20C21.1 22 22 21.1 22 20V4C22 2.9 21.1 2 20 2H4C2.9 2 2 2.9 2 4V20C2 21.1 2.9 22 4 22Z" stroke="black" stroke-width="1.5" stroke-miterlimit="10" stroke-linecap="round" stroke-linejoin="round"/>
<path d="M11.9999 13C12.7599 13 13.3299 12.48 13.4199 11.78L13.9899 6.56C14.0899 5.7 13.4199 5 12.5699 5H11.4299C10.5799 5 9.90991 5.7 10.0099 6.57L10.5799 11.79C10.6699 12.48 11.2399 13 11.9999 13Z" stroke="black" stroke-width="1.5" stroke-miterlimit="10" stroke-linecap="round" stroke-linejoin="round"/>
<path d="M12 19C12.83 19 13.5 18.33 13.5 17.5C13.5 16.67 12.83 16 12 16C11.17 16 10.5 16.67 10.5 17.5C10.5 18.33 11.17 19 12 19Z" stroke="black" stroke-width="1.5" stroke-miterlimit="10" stroke-linecap="round" stroke-linejoin="round"/>
</svg>
