<svg width="24" height="24" viewBox="0 0 24 24" fill="none" xmlns="http://www.w3.org/2000/svg">
<path d="M11.2132 12.9945V7.62719C11.2132 6.72764 11.9437 5.998 12.8443 5.998C13.745 5.998 14.4755 6.72764 14.4755 7.62719V12.9945V9.62619C14.4755 8.72664 15.206 7.997 16.1066 7.997C17.0072 7.997 17.7377 8.72664 17.7377 9.62619V12.9945H17.7477V11.5252C17.7477 10.6857 18.4782 9.996 19.3789 9.996C20.2695 9.996 21 10.6857 21 11.5252V16.5027C21 19.5512 18.3882 22 15.1359 22H13.755C12.374 22 11.1432 21.5402 10.1725 20.8506L3.48784 14.6737C2.83739 14.064 2.83739 13.0145 3.48784 12.4048C4.13829 11.7951 5.11897 11.925 5.76942 12.5347L7.95094 14.5137V3.52924C7.94093 2.68966 8.67144 2 9.57206 2C10.4727 2 11.2032 2.68966 11.2032 3.52924V12.9945" stroke="black" stroke-width="1.5" stroke-linecap="round" stroke-linejoin="round"/>
<path d="M2 2L22 22" stroke="black" stroke-width="1.5" stroke-miterlimit="10" stroke-linecap="round" stroke-linejoin="round"/>
</svg>
