<svg width="24" height="24" viewBox="0 0 24 24" fill="none" xmlns="http://www.w3.org/2000/svg">
<path d="M13.3825 13.8V9.47C13.3825 8.77 13.9525 8.2 14.6525 8.2C15.3525 8.2 15.9225 8.77 15.9225 9.47V13.8V11.07C15.9225 10.37 16.4925 9.8 17.1925 9.8C17.8925 9.8 18.4625 10.37 18.4625 11.07V13.8V12.62C18.4625 11.95 19.0325 11.4 19.7325 11.4C20.4325 11.4 21.0025 11.95 21.0025 12.62V16.6C21.0025 19.04 18.9725 21 16.4425 21H15.3625C14.2825 21 13.3325 20.63 12.5725 20.08L7.3825 15.13C6.8725 14.64 6.8725 13.8 7.3825 13.31C7.8925 12.82 8.6525 12.93 9.1525 13.42L10.8525 15.01V6.22C10.8525 5.55 11.4225 5 12.1225 5C12.8225 5 13.3925 5.55 13.3925 6.22L13.3825 13.8Z" stroke="black" stroke-width="1.5" stroke-linecap="round" stroke-linejoin="round"/>
<path d="M3 10C3 6 5.75 3 9.5 3" stroke="black" stroke-width="1.5" stroke-linecap="round" stroke-linejoin="round"/>
</svg>
