<svg width="24" height="24" viewBox="0 0 24 24" fill="none" xmlns="http://www.w3.org/2000/svg">
<path d="M14.3825 14.8V10.47C14.3825 9.77 14.9525 9.2 15.6525 9.2C16.3525 9.2 16.9225 9.77 16.9225 10.47V14.8V12.07C16.9225 11.37 17.4925 10.8 18.1925 10.8C18.8925 10.8 19.4625 11.37 19.4625 12.07V14.8V13.62C19.4625 12.95 20.0325 12.4 20.7325 12.4C21.4325 12.4 22.0025 12.95 22.0025 13.62V17.6C22.0025 20.04 19.9725 22 17.4425 22H16.3625C15.2825 22 14.3325 21.63 13.5725 21.08L8.3825 16.13C7.8725 15.64 7.8725 14.8 8.3825 14.31C8.8925 13.82 9.6525 13.93 10.1525 14.42L11.8525 16.01V7.22C11.8525 6.55 12.4225 6 13.1225 6C13.8225 6 14.3925 6.55 14.3925 7.22L14.3825 14.8Z" stroke="black" stroke-width="1.5" stroke-linecap="round" stroke-linejoin="round"/>
<circle cx="3" cy="13" r="1" stroke="black" stroke-width="1.5" stroke-linecap="round" stroke-linejoin="round"/>
<circle cx="8" cy="8" r="1" stroke="black" stroke-width="1.5" stroke-linecap="round" stroke-linejoin="round"/>
<circle cx="3" cy="8" r="1" stroke="black" stroke-width="1.5" stroke-linecap="round" stroke-linejoin="round"/>
<circle cx="13" cy="3" r="1" stroke="black" stroke-width="1.5" stroke-linecap="round" stroke-linejoin="round"/>
<circle cx="8" cy="3" r="1" stroke="black" stroke-width="1.5" stroke-linecap="round" stroke-linejoin="round"/>
<circle cx="3" cy="3" r="1" stroke="black" stroke-width="1.5" stroke-linecap="round" stroke-linejoin="round"/>
</svg>
