<svg width="24" height="24" viewBox="0 0 24 24" fill="none" xmlns="http://www.w3.org/2000/svg">
<path d="M4.36992 15.77C3.28992 14.07 2.79992 12 3.07992 9.84002C3.70992 4.91002 8.22992 1.42002 13.1599 2.08002C18.0899 2.71002 21.5799 7.23002 20.9199 12.16C20.7499 13.49 20.2999 14.71 19.6199 15.77" stroke="black" stroke-width="1.5" stroke-miterlimit="10" stroke-linecap="round" stroke-linejoin="round"/>
<path d="M8.08995 14.25C7.15995 13.18 6.66995 11.71 6.86995 10.2C7.24995 7.37001 9.83995 5.37001 12.66 5.74001C15.49 6.12001 17.49 8.71001 17.12 11.53C16.99 12.57 16.54 13.51 15.89 14.24" stroke="black" stroke-width="1.5" stroke-miterlimit="10" stroke-linecap="round" stroke-linejoin="round"/>
<path d="M12 22V12.5" stroke="black" stroke-width="1.5" stroke-miterlimit="10" stroke-linecap="round" stroke-linejoin="round"/>
<path d="M12 12.5C12.8284 12.5 13.5 11.8284 13.5 11C13.5 10.1716 12.8284 9.5 12 9.5C11.1716 9.5 10.5 10.1716 10.5 11C10.5 11.8284 11.1716 12.5 12 12.5Z" stroke="black" stroke-width="1.5" stroke-miterlimit="10" stroke-linecap="round" stroke-linejoin="round"/>
<path d="M3 3.00012L21 21.0001" stroke="black" stroke-width="1.5" stroke-miterlimit="10" stroke-linecap="round" stroke-linejoin="round"/>
</svg>
