<svg width="24" height="24" viewBox="0 0 24 24" fill="none" xmlns="http://www.w3.org/2000/svg">
<path d="M17 5H23" stroke="black" stroke-width="1.5" stroke-miterlimit="10" stroke-linejoin="round"/>
<path d="M20 2V8" stroke="black" stroke-width="1.5" stroke-miterlimit="10" stroke-linejoin="round"/>
<path fill-rule="evenodd" clip-rule="evenodd" d="M15.0703 9.45996L11.5803 15.05C11.2603 15.56 10.5703 15.67 10.1103 15.3L6.91028 12.74C6.43028 12.35 5.72028 12.49 5.41028 13.03L2.33028 18.51C1.95028 19.18 2.43028 20 3.19028 20H20.8003C21.5603 20 22.0403 19.19 21.6803 18.52L16.8003 9.50996C16.4403 8.83996 15.4803 8.80996 15.0703 9.45996Z" stroke="black" stroke-width="1.5" stroke-miterlimit="10" stroke-linecap="round" stroke-linejoin="round"/>
<path d="M8.97998 10C10.08 10 10.98 9.1 10.98 8C10.98 6.9 10.08 6 8.97998 6C7.87998 6 6.97998 6.9 6.97998 8C6.97998 9.1 7.87998 10 8.97998 10Z" stroke="black" stroke-width="1.5" stroke-miterlimit="10" stroke-linecap="round" stroke-linejoin="round"/>
</svg>
