<svg width="24" height="24" viewBox="0 0 24 24" fill="none" xmlns="http://www.w3.org/2000/svg">
<path fill-rule="evenodd" clip-rule="evenodd" d="M15.0698 11.46L11.5798 17.05C11.2598 17.56 10.5698 17.67 10.1098 17.3L6.90979 14.74C6.42979 14.35 5.71979 14.49 5.40979 15.03L2.32979 20.51C1.94979 21.18 2.42979 22 3.18979 22H20.7998C21.5598 22 22.0398 21.19 21.6798 20.52L16.7998 11.51C16.4398 10.84 15.4798 10.81 15.0698 11.46Z" stroke="black" stroke-width="1.5" stroke-miterlimit="10" stroke-linecap="round" stroke-linejoin="round"/>
<path d="M8.97998 12C10.08 12 10.98 11.1 10.98 10C10.98 8.9 10.08 8 8.97998 8C7.87998 8 6.97998 8.9 6.97998 10C6.97998 11.1 7.87998 12 8.97998 12Z" stroke="black" stroke-width="1.5" stroke-miterlimit="10" stroke-linecap="round" stroke-linejoin="round"/>
<path d="M20.8398 2.30005L18.3598 6.59005L18.2998 7.70005L19.2198 7.09005L21.6998 2.80005L20.8398 2.30005Z" stroke="black" stroke-width="1.5" stroke-miterlimit="10" stroke-linecap="round"/>
</svg>
