<svg width="24" height="24" viewBox="0 0 24 24" fill="none" xmlns="http://www.w3.org/2000/svg">
<path fill-rule="evenodd" clip-rule="evenodd" d="M2.73987 15.61C2.54987 15.14 2.38987 14.66 2.27987 14.16C1.61987 11.37 2.12987 8.35999 3.75987 5.98999C5.40987 3.59999 8.07988 2.35999 10.9299 2.06999C12.7499 1.87999 14.6299 2.08999 16.3499 2.71999C18.5199 3.51999 20.4999 5.04999 21.4899 7.16999C22.1799 8.64999 22.2699 10.6 21.1299 11.76C20.3899 12.52 19.2899 12.77 18.4099 13.35C17.3899 14.01 16.6599 15.12 16.4599 16.33C16.3199 17.15 16.3999 18.01 16.1999 18.82C15.5299 21.52 12.2299 22.39 9.81987 21.85C7.05987 21.22 4.64987 19.13 3.26987 16.7C3.06987 16.34 2.89987 15.98 2.73987 15.61Z" stroke="black" stroke-width="1.5" stroke-miterlimit="10" stroke-linejoin="round"/>
<path d="M13 7C13.5523 7 14 6.55228 14 6C14 5.44772 13.5523 5 13 5C12.4477 5 12 5.44772 12 6C12 6.55228 12.4477 7 13 7Z" stroke="black" stroke-width="1.5" stroke-miterlimit="10" stroke-linejoin="round"/>
<path d="M18 10C18.5523 10 19 9.55228 19 9C19 8.44772 18.5523 8 18 8C17.4477 8 17 8.44772 17 9C17 9.55228 17.4477 10 18 10Z" stroke="black" stroke-width="1.5" stroke-miterlimit="10" stroke-linejoin="round"/>
<path d="M8 9C8.55228 9 9 8.55228 9 8C9 7.44772 8.55228 7 8 7C7.44772 7 7 7.44772 7 8C7 8.55228 7.44772 9 8 9Z" stroke="black" stroke-width="1.5" stroke-miterlimit="10" stroke-linejoin="round"/>
<path d="M6 14C6.55228 14 7 13.5523 7 13C7 12.4477 6.55228 12 6 12C5.44772 12 5 12.4477 5 13C5 13.5523 5.44772 14 6 14Z" stroke="black" stroke-width="1.5" stroke-miterlimit="10" stroke-linejoin="round"/>
<path d="M11 19C12.1046 19 13 18.3284 13 17.5C13 16.6716 12.1046 16 11 16C9.89543 16 9 16.6716 9 17.5C9 18.3284 9.89543 19 11 19Z" stroke="black" stroke-width="1.5" stroke-miterlimit="10" stroke-linejoin="round"/>
</svg>
