<svg width="24" height="24" viewBox="0 0 24 24" fill="none" xmlns="http://www.w3.org/2000/svg">
<path d="M14 9H20.24H21.5" stroke="black" stroke-width="1.5" stroke-linecap="round" stroke-linejoin="round"/>
<path d="M2.5 9H3.76H10" stroke="black" stroke-width="1.5" stroke-linecap="round" stroke-linejoin="round"/>
<path d="M14 9.25C17.45 10.14 20 13.27 20 17" stroke="black" stroke-width="1.5" stroke-linecap="round" stroke-linejoin="round"/>
<path d="M4 17C4 13.27 6.55 10.14 10 9.25" stroke="black" stroke-width="1.5" stroke-linecap="round" stroke-linejoin="round"/>
<path d="M2.5 9.5C2.77614 9.5 3 9.27614 3 9C3 8.72386 2.77614 8.5 2.5 8.5C2.22386 8.5 2 8.72386 2 9C2 9.27614 2.22386 9.5 2.5 9.5Z" stroke="black" stroke-width="1.5" stroke-miterlimit="10" stroke-linecap="round" stroke-linejoin="round"/>
<path d="M21.5 9.5C21.7761 9.5 22 9.27614 22 9C22 8.72386 21.7761 8.5 21.5 8.5C21.2239 8.5 21 8.72386 21 9C21 9.27614 21.2239 9.5 21.5 9.5Z" stroke="black" stroke-width="1.5" stroke-miterlimit="10" stroke-linecap="round" stroke-linejoin="round"/>
<path d="M14 7H10V11H14V7Z" stroke="black" stroke-width="1.5" stroke-linecap="round" stroke-linejoin="round"/>
</svg>
