<svg width="24" height="24" viewBox="0 0 24 24" fill="none" xmlns="http://www.w3.org/2000/svg">
<path d="M11 11L5 8" stroke="black" stroke-width="1.5" stroke-linecap="round" stroke-linejoin="round"/>
<path d="M21.65 5.66998L11 11L5 14" stroke="black" stroke-width="1.5" stroke-linecap="round" stroke-linejoin="round"/>
<path d="M5 20C6.65685 20 8 18.6569 8 17C8 15.3431 6.65685 14 5 14C3.34315 14 2 15.3431 2 17C2 18.6569 3.34315 20 5 20Z" stroke="black" stroke-width="1.5" stroke-linecap="round" stroke-linejoin="round"/>
<path d="M5 8C6.65685 8 8 6.65685 8 5C8 3.34315 6.65685 2 5 2C3.34315 2 2 3.34315 2 5C2 6.65685 3.34315 8 5 8Z" stroke="black" stroke-width="1.5" stroke-linecap="round" stroke-linejoin="round"/>
<path d="M11.0001 11C10.8801 10.75 10.9801 10.45 11.2201 10.33L20.6501 5.61001C21.1401 5.36001 21.7401 5.56001 21.9901 6.06001L11.6601 11.23C11.4201 11.35 11.1201 11.25 11.0001 11Z" stroke="black" stroke-width="1.5" stroke-linecap="round"/>
<path d="M16 22C12.69 22 10 19.31 10 16C10 12.69 12.69 10 16 10C19.31 10 22 12.69 22 16C22 19.31 19.31 22 16 22Z" stroke="black" stroke-width="1.5" stroke-miterlimit="10" stroke-linecap="round" stroke-linejoin="round"/>
<path d="M18.95 16H19.0499" stroke="black" stroke-width="1.5" stroke-miterlimit="10" stroke-linecap="round" stroke-linejoin="round"/>
<path d="M15.95 16H16.05" stroke="black" stroke-width="1.5" stroke-miterlimit="10" stroke-linecap="round" stroke-linejoin="round"/>
<path d="M12.95 16H13.05" stroke="black" stroke-width="1.5" stroke-miterlimit="10" stroke-linecap="round" stroke-linejoin="round"/>
</svg>
