<svg width="24" height="24" viewBox="0 0 24 24" fill="none" xmlns="http://www.w3.org/2000/svg">
<path d="M23 13H21" stroke="black" stroke-width="1.5" stroke-linejoin="round"/>
<path d="M20 13H18" stroke="black" stroke-width="1.5" stroke-linejoin="round"/>
<path d="M17 13H15" stroke="black" stroke-width="1.5" stroke-linejoin="round"/>
<path d="M14 13H12" stroke="black" stroke-width="1.5" stroke-linejoin="round"/>
<path d="M11 13H9" stroke="black" stroke-width="1.5" stroke-linejoin="round"/>
<path d="M11 12L5 9" stroke="black" stroke-width="1.5" stroke-linecap="round" stroke-linejoin="round"/>
<path d="M21.65 6.66998L11 12L5 15" stroke="black" stroke-width="1.5" stroke-linecap="round" stroke-linejoin="round"/>
<path d="M5 21C6.65685 21 8 19.6569 8 18C8 16.3431 6.65685 15 5 15C3.34315 15 2 16.3431 2 18C2 19.6569 3.34315 21 5 21Z" stroke="black" stroke-width="1.5" stroke-linecap="round" stroke-linejoin="round"/>
<path d="M5 9C6.65685 9 8 7.65685 8 6C8 4.34315 6.65685 3 5 3C3.34315 3 2 4.34315 2 6C2 7.65685 3.34315 9 5 9Z" stroke="black" stroke-width="1.5" stroke-linecap="round" stroke-linejoin="round"/>
<path d="M11.0001 12C10.8801 11.75 10.9801 11.45 11.2201 11.33L20.6501 6.61001C21.1401 6.36001 21.7401 6.56001 21.9901 7.06001L11.6601 12.23C11.4201 12.35 11.1201 12.25 11.0001 12Z" stroke="black" stroke-width="1.5" stroke-linecap="round"/>
</svg>
