<svg width="24" height="24" viewBox="0 0 24 24" fill="none" xmlns="http://www.w3.org/2000/svg">
<path d="M5 8H8V5" stroke="black" stroke-width="1.5" stroke-miterlimit="10" stroke-linecap="round"/>
<path d="M19 16H16V19" stroke="black" stroke-width="1.5" stroke-miterlimit="10" stroke-linecap="round"/>
<path d="M16 16H9C8.45 16 8 15.55 8 15V8H15C15.55 8 16 8.45 16 9V16Z" stroke="black" stroke-width="1.5" stroke-miterlimit="10" stroke-linecap="round"/>
<path d="M13 3H17C18.66 3 20 4.34 20 6V7" stroke="black" stroke-width="1.5" stroke-linecap="round" stroke-linejoin="round"/>
<path d="M19.4102 7.01001L20.0002 7.59001L20.5902 7.01001H19.4102Z" stroke="black" stroke-width="1.5" stroke-linecap="round"/>
<path d="M11 21H7C5.34 21 4 19.66 4 18V17" stroke="black" stroke-width="1.5" stroke-linecap="round" stroke-linejoin="round"/>
<path d="M4.59016 16.99L4.00016 16.41L3.41016 16.99H4.59016Z" stroke="black" stroke-width="1.5" stroke-linecap="round"/>
</svg>
