<svg width="24" height="24" viewBox="0 0 24 24" fill="none" xmlns="http://www.w3.org/2000/svg">
<path d="M4.94004 20.37C1.12004 17.35 1.06004 11.56 4.52004 8.13L10.67 2L13.26 4.58L7.01004 10.79C5.10004 12.69 5.13004 15.91 7.26004 17.55C9.31004 19.13 11.76 18.3 13.74 16.32L19.4 10.69L22 13.27L16.34 18.9C13.01 22.21 8.44004 23.13 4.94004 20.37Z" stroke="black" stroke-width="1.5" stroke-miterlimit="10" stroke-linecap="round" stroke-linejoin="round"/>
<path d="M10.6701 7.15L8.08008 4.58L10.6701 2L13.2601 4.58L10.6701 7.15Z" stroke="black" stroke-width="1.5" stroke-miterlimit="10" stroke-linecap="round" stroke-linejoin="round"/>
<path d="M19.4098 15.84L16.8198 13.27L19.4098 10.69L21.9998 13.27L19.4098 15.84Z" stroke="black" stroke-width="1.5" stroke-miterlimit="10" stroke-linecap="round" stroke-linejoin="round"/>
</svg>
