<svg width="24" height="24" viewBox="0 0 24 24" fill="none" xmlns="http://www.w3.org/2000/svg">
<path d="M9 4H3C2.45 4 2 4.45 2 5V19C2 19.55 2.45 20 3 20H9" stroke="black" stroke-width="1.5" stroke-linecap="round" stroke-linejoin="round"/>
<path d="M15 20H21C21.55 20 22 19.55 22 19V5C22 4.45 21.55 4 21 4H15" stroke="black" stroke-width="1.5" stroke-linecap="round" stroke-linejoin="round"/>
<path d="M12 17C14.7614 17 17 14.7614 17 12C17 9.23858 14.7614 7 12 7C9.23858 7 7 9.23858 7 12C7 14.7614 9.23858 17 12 17Z" stroke="black" stroke-width="1.5" stroke-linecap="round"/>
<path d="M15 12H9" stroke="black" stroke-width="1.5" stroke-linejoin="round"/>
<path d="M12 15V9" stroke="black" stroke-width="1.5" stroke-linejoin="round"/>
</svg>
