<svg width="24" height="24" viewBox="0 0 24 24" fill="none" xmlns="http://www.w3.org/2000/svg">
<path d="M21 18.9L3 20L4.1 4L19.9 7.4L21 18.9Z" stroke="black" stroke-width="1.5" stroke-miterlimit="10" stroke-linecap="round" stroke-linejoin="round"/>
<path d="M4.1001 5C4.65238 5 5.1001 4.55228 5.1001 4C5.1001 3.44772 4.65238 3 4.1001 3C3.54781 3 3.1001 3.44772 3.1001 4C3.1001 4.55228 3.54781 5 4.1001 5Z" stroke="black" stroke-width="1.5" stroke-miterlimit="10" stroke-linecap="round" stroke-linejoin="round"/>
<path d="M3 21C3.55228 21 4 20.5523 4 20C4 19.4477 3.55228 19 3 19C2.44772 19 2 19.4477 2 20C2 20.5523 2.44772 21 3 21Z" stroke="black" stroke-width="1.5" stroke-miterlimit="10" stroke-linecap="round" stroke-linejoin="round"/>
<path d="M21 19.9C21.5523 19.9 22 19.4523 22 18.9C22 18.3477 21.5523 17.9 21 17.9C20.4477 17.9 20 18.3477 20 18.9C20 19.4523 20.4477 19.9 21 19.9Z" stroke="black" stroke-width="1.5" stroke-miterlimit="10" stroke-linecap="round" stroke-linejoin="round"/>
<path d="M19.8999 8.40002C20.4522 8.40002 20.8999 7.95231 20.8999 7.40002C20.8999 6.84774 20.4522 6.40002 19.8999 6.40002C19.3476 6.40002 18.8999 6.84774 18.8999 7.40002C18.8999 7.95231 19.3476 8.40002 19.8999 8.40002Z" stroke="black" stroke-width="1.5" stroke-miterlimit="10" stroke-linecap="round" stroke-linejoin="round"/>
</svg>
