<svg width="24" height="24" viewBox="0 0 24 24" fill="none" xmlns="http://www.w3.org/2000/svg">
<path fill-rule="evenodd" clip-rule="evenodd" d="M15.0698 9.45996L11.5798 15.05C11.2598 15.56 10.5698 15.67 10.1098 15.3L6.90979 12.74C6.42979 12.35 5.71979 12.49 5.40979 13.03L2.32979 18.51C1.94979 19.18 2.42979 20 3.18979 20H20.7998C21.5598 20 22.0398 19.19 21.6798 18.52L16.7998 9.50996C16.4398 8.83996 15.4798 8.80996 15.0698 9.45996Z" stroke="black" stroke-width="1.5" stroke-miterlimit="10" stroke-linecap="round" stroke-linejoin="round"/>
<path d="M8.97998 10C10.08 10 10.98 9.1 10.98 8C10.98 6.9 10.08 6 8.97998 6C7.87998 6 6.97998 6.9 6.97998 8C6.97998 9.1 7.87998 10 8.97998 10Z" stroke="black" stroke-width="1.5" stroke-miterlimit="10" stroke-linecap="round" stroke-linejoin="round"/>
<path d="M20 2V5" stroke="black" stroke-width="1.5" stroke-miterlimit="10" stroke-linejoin="round"/>
<path d="M20 7H20.01" stroke="black" stroke-width="1.5" stroke-miterlimit="10" stroke-linecap="round" stroke-linejoin="round"/>
</svg>
