<svg width="24" height="24" viewBox="0 0 24 24" fill="none" xmlns="http://www.w3.org/2000/svg">
<path d="M18 15H22" stroke="black" stroke-width="1.5" stroke-miterlimit="10" stroke-linecap="round" stroke-linejoin="round"/>
<path d="M20.4999 12C20.0999 8.49998 19.6999 6.09998 19.0999 6.09998C18.3999 6.09998 18.3999 9.49998 17.1999 9.79998C15.2999 10.2 11.9999 1.89998 11.8999 1.99998C11.7999 2.09998 14.7999 6.69998 14.8999 12.5C14.9999 17.7 12.8999 22.1 12.1999 22C11.1999 21.8 12.3999 10.3 11.2999 10.1C10.7999 9.99998 10.2999 12.3 9.3999 12.2C8.7999 12.2 8.2999 10.9 7.8999 9.19998" stroke="black" stroke-width="1.5" stroke-miterlimit="10" stroke-linecap="round" stroke-linejoin="round"/>
<path d="M2 15H8" stroke="black" stroke-width="1.5" stroke-miterlimit="10" stroke-linecap="round" stroke-linejoin="round"/>
<path d="M2 9L5 12" stroke="black" stroke-width="1.5" stroke-miterlimit="10" stroke-linecap="round" stroke-linejoin="round"/>
<path d="M5 9L2 12" stroke="black" stroke-width="1.5" stroke-miterlimit="10" stroke-linecap="round" stroke-linejoin="round"/>
</svg>
