<svg width="24" height="24" viewBox="0 0 24 24" fill="none" xmlns="http://www.w3.org/2000/svg">
<path d="M13.4 17H10.6C10.5 17.3 10.5 17.6 10.5 18C10.5 19.7 11.2 22 12 22C12.8 22 13.5 19.7 13.5 18C13.5 17.6 13.5 17.3 13.4 17Z" stroke="black" stroke-width="1.5" stroke-miterlimit="10" stroke-linecap="round" stroke-linejoin="round"/>
<path d="M10.4 17H13.5C14.4 17 15.1 16.4 15.4 15.6L18 8H6L8.5 15.6C8.8 16.4 9.6 17 10.4 17Z" stroke="black" stroke-width="1.5" stroke-miterlimit="10" stroke-linecap="round" stroke-linejoin="round"/>
<path d="M19 2V7C19 7.6 18.6 8 18 8H6C5.4 8 5 7.6 5 7V2" stroke="black" stroke-width="1.5" stroke-miterlimit="10" stroke-linecap="round" stroke-linejoin="round"/>
</svg>
