<svg width="24" height="24" viewBox="0 0 24 24" fill="none" xmlns="http://www.w3.org/2000/svg">
<path d="M3.1001 7.45996L8.6701 18.4" stroke="black" stroke-width="1.5" stroke-linecap="round" stroke-linejoin="round"/>
<path d="M5.87012 4.09998L11.2401 14.64" stroke="black" stroke-width="1.5" stroke-linecap="round" stroke-linejoin="round"/>
<path d="M9.4502 2.32996L14.6702 12.57" stroke="black" stroke-width="1.5" stroke-linecap="round" stroke-linejoin="round"/>
<path d="M13.8701 2.18005L18.9001 12.0401" stroke="black" stroke-width="1.5" stroke-linecap="round" stroke-linejoin="round"/>
<path d="M12 2C6.48 2 2 6.48 2 12C2 16.11 4.48 19.64 8.03 21.17V21.18H8.04L21.97 12.82C21.99 12.55 22 12.28 22 12C22 6.48 17.52 2 12 2Z" stroke="black" stroke-width="1.5" stroke-linecap="round" stroke-linejoin="round"/>
<path d="M8.03027 21.18C8.45027 16.04 12.7603 12 18.0003 12C19.4103 12 20.7503 12.29 21.9703 12.82L8.03027 21.18Z" stroke="black" stroke-width="1.5" stroke-linecap="round" stroke-linejoin="round"/>
</svg>
