<svg width="24" height="24" viewBox="0 0 24 24" fill="none" xmlns="http://www.w3.org/2000/svg">
<path d="M3.68 20.32L2 22" stroke="black" stroke-width="1.5" stroke-miterlimit="10" stroke-linecap="round" stroke-linejoin="round"/>
<path fill-rule="evenodd" clip-rule="evenodd" d="M13.8402 6.60001L6.72018 13.74C6.35018 14.11 6.05018 14.56 5.85018 15.04L3.68018 20.32L8.95018 18.14C9.44018 17.94 9.88018 17.65 10.2502 17.28L17.3802 10.15L13.8402 6.60001Z" stroke="black" stroke-width="1.5" stroke-miterlimit="10" stroke-linecap="round" stroke-linejoin="round"/>
<path fill-rule="evenodd" clip-rule="evenodd" d="M13.8398 6.60001L17.3798 10.15L21.2698 6.25001C22.2998 5.21001 22.2398 3.49001 21.0798 2.53001C20.0598 1.70001 18.5498 1.88001 17.6298 2.81001L13.8398 6.60001Z" stroke="black" stroke-width="1.5" stroke-miterlimit="10" stroke-linecap="round" stroke-linejoin="round"/>
<path d="M19.1602 10.5158L13.5034 4.85898L12.7963 5.56608L18.4531 11.2229L19.1602 10.5158Z" stroke="black" stroke-width="1.5" stroke-miterlimit="10" stroke-linecap="round" stroke-linejoin="round"/>
</svg>
