<svg width="24" height="24" viewBox="0 0 24 24" fill="none" xmlns="http://www.w3.org/2000/svg">
<path d="M17.2398 11.75L12.8198 3.51C12.4598 2.83 11.5298 2.83 11.1698 3.51L6.74982 11.75C6.39982 12.41 6.17982 13.09 6.06982 13.78C7.27982 13.05 9.06982 11.37 11.9898 13.84C14.3898 15.88 16.6998 14.59 17.9198 13.89C17.8398 13.17 17.6098 12.45 17.2398 11.75Z" stroke="black" stroke-width="1.5" stroke-linecap="round" stroke-linejoin="round"/>
<path d="M17.94 13.89C16.71 14.59 14.41 15.88 12.01 13.84C9.08 11.37 7.29 13.05 6.09 13.78C5.5 17.4 8.15 21 12 21C15.81 21 18.45 17.47 17.94 13.89Z" stroke="black" stroke-width="1.5" stroke-linecap="round" stroke-linejoin="round"/>
</svg>
