<svg width="24" height="24" viewBox="0 0 24 24" fill="none" xmlns="http://www.w3.org/2000/svg">
<path fill-rule="evenodd" clip-rule="evenodd" d="M15.0703 11.46L11.5803 17.05C11.2603 17.56 10.5703 17.67 10.1103 17.3L6.91028 14.74C6.43028 14.35 5.72028 14.49 5.41028 15.03L2.33028 20.51C1.95028 21.18 2.43028 22 3.19028 22H20.8003C21.5603 22 22.0403 21.19 21.6803 20.52L16.8003 11.51C16.4403 10.84 15.4803 10.81 15.0703 11.46Z" stroke="black" stroke-width="1.5" stroke-miterlimit="10" stroke-linecap="round" stroke-linejoin="round"/>
<path d="M8.97998 12C10.08 12 10.98 11.1 10.98 10C10.98 8.9 10.08 8 8.97998 8C7.87998 8 6.97998 8.9 6.97998 10C6.97998 11.1 7.87998 12 8.97998 12Z" stroke="black" stroke-width="1.5" stroke-miterlimit="10" stroke-linecap="round" stroke-linejoin="round"/>
<path d="M18.5 10V8" stroke="black" stroke-width="1.5" stroke-miterlimit="10" stroke-linejoin="round"/>
<path d="M18.5 3V1" stroke="black" stroke-width="1.5" stroke-miterlimit="10" stroke-linejoin="round"/>
<path d="M16 5.5H14" stroke="black" stroke-width="1.5" stroke-miterlimit="10" stroke-linejoin="round"/>
<path d="M23 5.5H21" stroke="black" stroke-width="1.5" stroke-miterlimit="10" stroke-linejoin="round"/>
<path d="M21.68 8.68002L20.27 7.27002" stroke="black" stroke-width="1.5" stroke-miterlimit="10" stroke-linejoin="round"/>
<path d="M16.7298 3.72995L15.3198 2.31995" stroke="black" stroke-width="1.5" stroke-miterlimit="10" stroke-linejoin="round"/>
<path d="M16.7298 7.27002L15.3198 8.68002" stroke="black" stroke-width="1.5" stroke-miterlimit="10" stroke-linejoin="round"/>
<path d="M21.68 2.31995L20.27 3.72995" stroke="black" stroke-width="1.5" stroke-miterlimit="10" stroke-linejoin="round"/>
<path d="M18.5 8C19.8807 8 21 6.88071 21 5.5C21 4.11929 19.8807 3 18.5 3C17.1193 3 16 4.11929 16 5.5C16 6.88071 17.1193 8 18.5 8Z" stroke="black" stroke-width="1.5" stroke-miterlimit="10" stroke-linecap="round" stroke-linejoin="round"/>
</svg>
