<svg width="24" height="24" viewBox="0 0 24 24" fill="none" xmlns="http://www.w3.org/2000/svg">
<path fill-rule="evenodd" clip-rule="evenodd" d="M15.0749 8.45996L11.5849 14.05C11.2649 14.56 10.5749 14.67 10.1149 14.3L6.91493 11.74C6.43493 11.35 5.72493 11.49 5.41493 12.03L2.33493 17.51C1.94493 18.18 2.43493 19 3.19493 19H20.8049C21.5649 19 22.0449 18.19 21.6849 17.52L16.8049 8.50996C16.4349 7.83996 15.4849 7.80996 15.0749 8.45996Z" stroke="black" stroke-width="1.5" stroke-miterlimit="10" stroke-linecap="round" stroke-linejoin="round"/>
<path d="M8.98486 9C10.0849 9 10.9849 8.1 10.9849 7C10.9849 5.9 10.0849 5 8.98486 5C7.88486 5 6.98486 5.9 6.98486 7C6.98486 8.1 7.88486 9 8.98486 9Z" stroke="black" stroke-width="1.5" stroke-miterlimit="10" stroke-linecap="round" stroke-linejoin="round"/>
</svg>
