<svg width="24" height="24" viewBox="0 0 24 24" fill="none" xmlns="http://www.w3.org/2000/svg">
<path d="M15 22L15 13L22 13L22 20C22 21.1046 21.1046 22 20 22L15 22Z" stroke="black" stroke-width="1.5" stroke-linecap="round"/>
<rect x="9" y="22" width="9" height="6" transform="rotate(-90 9 22)" stroke="black" stroke-width="1.5" stroke-linecap="round"/>
<path d="M4 22C2.89543 22 2 21.1046 2 20L2 13L9 13L9 22L4 22Z" stroke="black" stroke-width="1.5" stroke-linecap="round"/>
<rect x="2" y="13" width="5" height="10" transform="rotate(-90 2 13)" stroke="black" stroke-width="1.5" stroke-linecap="round"/>
<path d="M12 13L12 2L20 2C21.1046 2 22 2.89543 22 4L22 13L12 13Z" stroke="black" stroke-width="1.5" stroke-linecap="round"/>
<path d="M2 13L2 4C2 2.89543 2.89543 2 4 2L20 2C21.1046 2 22 2.89543 22 4L22 13L2 13Z" stroke="black" stroke-width="1.5" stroke-linecap="round"/>
</svg>
