<svg width="24" height="24" viewBox="0 0 24 24" fill="none" xmlns="http://www.w3.org/2000/svg">
<path d="M10 14.82C9.18 15.85 7.92 16.5 6.5 16.5C4.01 16.5 2 14.49 2 12C2 9.51 4.01 7.5 6.5 7.5C7.42 7.5 8.33 7.78 9.08 8.31C9.89 8.88 10.38 9.71 10.94 10.51C11.29 11.01 11.64 11.5 12 12C12.36 12.5 12.71 12.99 13.06 13.49C13.62 14.29 14.11 15.12 14.92 15.69C15.67 16.22 16.58 16.5 17.5 16.5C19.99 16.5 22 14.49 22 12C22 9.51 19.99 7.5 17.5 7.5C16.08 7.5 14.82 8.15 14 9.18" stroke="black" stroke-width="1.5" stroke-linecap="round" stroke-linejoin="round"/>
</svg>
