<svg width="24" height="24" viewBox="0 0 24 24" fill="none" xmlns="http://www.w3.org/2000/svg">
<path d="M16 8H8V16H16V8Z" stroke="black" stroke-width="1.5" stroke-miterlimit="10" stroke-linecap="round"/>
<path d="M16 8H19C20.66 8 22 6.66 22 5C22 3.34 20.66 2 19 2C17.34 2 16 3.34 16 5V8Z" stroke="black" stroke-width="1.5" stroke-miterlimit="10" stroke-linecap="round"/>
<path d="M8 8H5C3.34 8 2 6.66 2 5C2 3.34 3.34 2 5 2C6.66 2 8 3.34 8 5V8Z" stroke="black" stroke-width="1.5" stroke-miterlimit="10" stroke-linecap="round"/>
<path d="M8 16H5C3.34 16 2 17.34 2 19C2 20.66 3.34 22 5 22C6.66 22 8 20.66 8 19V16Z" stroke="black" stroke-width="1.5" stroke-miterlimit="10" stroke-linecap="round"/>
<path d="M16 16H19C20.66 16 22 17.34 22 19C22 20.66 20.66 22 19 22C17.34 22 16 20.66 16 19V16Z" stroke="black" stroke-width="1.5" stroke-miterlimit="10" stroke-linecap="round"/>
</svg>
