<svg width="24" height="24" viewBox="0 0 24 24" fill="none" xmlns="http://www.w3.org/2000/svg">
<path d="M19 22H5C3.34 22 2 20.66 2 19V5C2 3.34 3.34 2 5 2H19C20.66 2 22 3.34 22 5V19C22 20.66 20.66 22 19 22Z" stroke="black" stroke-width="1.5" stroke-miterlimit="10" stroke-linecap="round"/>
<path d="M15 9H9V15H15V9Z" stroke="black" stroke-width="1.5" stroke-miterlimit="10" stroke-linecap="round"/>
<path d="M15 9H17C18.1 9 19 8.1 19 7C19 5.9 18.1 5 17 5C15.9 5 15 5.9 15 7V9Z" stroke="black" stroke-width="1.5" stroke-miterlimit="10" stroke-linecap="round"/>
<path d="M9 9H7C5.9 9 5 8.1 5 7C5 5.9 5.9 5 7 5C8.1 5 9 5.9 9 7V9Z" stroke="black" stroke-width="1.5" stroke-miterlimit="10" stroke-linecap="round"/>
<path d="M15 15H17C18.1 15 19 15.9 19 17C19 18.1 18.1 19 17 19C15.9 19 15 18.1 15 17V15Z" stroke="black" stroke-width="1.5" stroke-miterlimit="10" stroke-linecap="round"/>
<path d="M9 15H7C5.9 15 5 15.9 5 17C5 18.1 5.9 19 7 19C8.1 19 9 18.1 9 17V15Z" stroke="black" stroke-width="1.5" stroke-miterlimit="10" stroke-linecap="round"/>
</svg>
