<svg width="24" height="24" viewBox="0 0 24 24" fill="none" xmlns="http://www.w3.org/2000/svg">
<path d="M16 18H8" stroke="black" stroke-width="1.5" stroke-miterlimit="10" stroke-linecap="round" stroke-linejoin="round"/>
<path d="M22 18C22 18 21.5523 18 21 18C20.4477 18 20 18 20 18C20 18 20.4477 18 21 18C21.5523 18 22 18 22 18Z" stroke="black" stroke-width="1.5" stroke-miterlimit="10" stroke-linejoin="round"/>
<path d="M4 18C4 18 3.55228 18 3 18C2.44772 18 2 18 2 18C2 18 2.44772 18 3 18C3.55228 18 4 18 4 18Z" stroke="black" stroke-width="1.5" stroke-miterlimit="10" stroke-linejoin="round"/>
<path d="M12 7C12 7.55228 12 8 12 8C12 8 12 7.55228 12 7ZM12 7C12 6.44772 12 6 12 6C12 6 12 6.44772 12 7Z" stroke="black" stroke-width="1.5" stroke-miterlimit="10" stroke-linejoin="round"/>
<path d="M4.19099 10.2217C4.58151 10.6123 4.89809 10.9288 4.89809 10.9288C4.89809 10.9288 4.58151 10.6123 4.19099 10.2217ZM4.19099 10.2217C3.80047 9.83123 3.48389 9.51465 3.48389 9.51465C3.48389 9.51465 3.80047 9.83123 4.19099 10.2217Z" stroke="black" stroke-width="1.5" stroke-miterlimit="10" stroke-linejoin="round"/>
<path d="M20.485 9.48399C20.485 9.48399 20.1684 9.80057 19.7779 10.1911C19.3874 10.5816 19.0708 10.8982 19.0708 10.8982C19.0708 10.8982 19.3874 10.5816 19.7779 10.1911C20.1684 9.80057 20.485 9.48399 20.485 9.48399Z" stroke="black" stroke-width="1.5" stroke-miterlimit="10" stroke-linejoin="round"/>
</svg>
