<svg width="24" height="24" viewBox="0 0 24 24" fill="none" xmlns="http://www.w3.org/2000/svg">
<path d="M12 22C17.5228 22 22 17.5228 22 12C22 6.47715 17.5228 2 12 2C6.47715 2 2 6.47715 2 12C2 17.5228 6.47715 22 12 22Z" stroke="black" stroke-width="1.5" stroke-miterlimit="10" stroke-linecap="round"/>
<path d="M14 10H10V14H14V10Z" stroke="black" stroke-width="1.5" stroke-miterlimit="10" stroke-linecap="round"/>
<path d="M10 10H8.5C7.67 10 7 9.33 7 8.5C7 7.67 7.67 7 8.5 7C9.33 7 10 7.67 10 8.5V10Z" stroke="black" stroke-width="1.5" stroke-miterlimit="10" stroke-linecap="round"/>
<path d="M14 10H15.5C16.33 10 17 9.33 17 8.5C17 7.67 16.33 7 15.5 7C14.67 7 14 7.67 14 8.5V10Z" stroke="black" stroke-width="1.5" stroke-miterlimit="10" stroke-linecap="round"/>
<path d="M10 14H8.5C7.67 14 7 14.67 7 15.5C7 16.33 7.67 17 8.5 17C9.33 17 10 16.33 10 15.5V14Z" stroke="black" stroke-width="1.5" stroke-miterlimit="10" stroke-linecap="round"/>
<path d="M14 14H15.5C16.33 14 17 14.67 17 15.5C17 16.33 16.33 17 15.5 17C14.67 17 14 16.33 14 15.5V14Z" stroke="black" stroke-width="1.5" stroke-miterlimit="10" stroke-linecap="round"/>
</svg>
