<svg width="24" height="24" viewBox="0 0 24 24" fill="none" xmlns="http://www.w3.org/2000/svg">
<path d="M8 16C8 15.4477 8.44771 15 9 15H15C15.5523 15 16 15.4477 16 16C16 16.5523 15.5523 17 15 17H9C8.44771 17 8 16.5523 8 16Z" stroke="black" stroke-width="1.5"/>
<path d="M12 21C13.6569 21 15 19.2091 15 17H9C9 19.2091 10.3431 21 12 21Z" stroke="black" stroke-width="1.5"/>
<path d="M16.5516 9.74634C17.3062 8.71267 18 7.76226 18 6.48415C18 4.07597 15.3914 2 11.757 2C8.86653 2 6 4.07597 6 6.48415C6 8.5406 6.98324 9.55577 7.78938 10.2848C8.49414 10.9221 8.54834 13.6802 8.52645 15.119C8.66741 15.0431 8.82867 15 8.99999 15H15C15.1948 15 15.3766 15.0557 15.5303 15.1521C15.5926 13.703 15.7639 10.8513 16.1632 10.2848C16.2923 10.1015 16.4228 9.92271 16.5516 9.74634Z" stroke="black" stroke-width="1.5" stroke-linecap="round" stroke-linejoin="round"/>
<path d="M10 7.5L11.5 9.5L14 5.5" stroke="black" stroke-width="1.5"/>
</svg>
