<svg width="24" height="24" viewBox="0 0 24 24" fill="none" xmlns="http://www.w3.org/2000/svg">
<path d="M12.0798 13C10.5198 13 9.36985 11.53 9.74985 10.01L9.99985 9H12.9998L12.0798 13Z" stroke="black" stroke-width="1.5" stroke-linecap="round" stroke-linejoin="round"/>
<path d="M8 9H5L3 2H6L8 9Z" stroke="black" stroke-width="1.5" stroke-linecap="round" stroke-linejoin="round"/>
<path d="M12.4501 22C11.2001 22 10.2701 20.83 10.5501 19.61L13.0001 9H17.0001L14.3501 20.49C14.1401 21.37 13.3601 22 12.4501 22Z" stroke="black" stroke-width="1.5" stroke-linecap="round" stroke-linejoin="round"/>
<path d="M17.5 9H8L6 2H17.5C19.43 2 21 3.57 21 5.5C21 7.43 19.43 9 17.5 9Z" stroke="black" stroke-width="1.5" stroke-linecap="round" stroke-linejoin="round"/>
</svg>
