<svg width="24" height="24" viewBox="0 0 24 24" fill="none" xmlns="http://www.w3.org/2000/svg">
<path d="M22 13H16C16 15.2 14.2 17 12 17C9.8 17 8 15.2 8 13H2H8H2V5C2 3.3 3.3 2 5 2H19C20.7 2 22 3.3 22 5V13ZM22 13H16" stroke="black" stroke-width="1.5" stroke-linecap="round" stroke-linejoin="round"/>
<path d="M22 13H16C16 15.2 14.2 17 12 17C9.8 17 8 15.2 8 13H2H8H2V19C2 20.7 3.3 22 5 22H19C20.7 22 22 20.7 22 19V13ZM22 13H16" stroke="black" stroke-width="1.5" stroke-linecap="round" stroke-linejoin="round"/>
<path d="M7 6H17" stroke="black" stroke-width="1.5" stroke-linecap="round" stroke-linejoin="round"/>
<path d="M7 9H17" stroke="black" stroke-width="1.5" stroke-linecap="round" stroke-linejoin="round"/>
</svg>
