<svg width="24" height="24" viewBox="0 0 24 24" fill="none" xmlns="http://www.w3.org/2000/svg">
<path d="M20 12H12V17H4C2.9 17 2 16.1 2 15V4C2 2.9 2.9 2 4 2H18C19.1 2 20 2.9 20 4V12Z" stroke="black" stroke-width="1.5" stroke-miterlimit="10" stroke-linecap="round" stroke-linejoin="round"/>
<path d="M20 4L11 9L2 4C2 2.9 2.9 2 4 2H18C19.1 2 20 2.9 20 4Z" stroke="black" stroke-width="1.5" stroke-miterlimit="10" stroke-linecap="round"/>
<path d="M22 12H12V22H22V12Z" stroke="black" stroke-width="1.5" stroke-miterlimit="10" stroke-linecap="round" stroke-linejoin="round"/>
<path d="M18 19H16C15.72 19 15.5 18.78 15.5 18.5C15.5 18.22 15.72 18 16 18H18C18.28 18 18.5 18.22 18.5 18.5C18.5 18.78 18.28 19 18 19Z" stroke="black" stroke-width="1.5" stroke-miterlimit="10" stroke-linecap="round" stroke-linejoin="round"/>
<path d="M16.99 15.5H17" stroke="black" stroke-width="1.5" stroke-miterlimit="10" stroke-linecap="round"/>
<path d="M17 16C17.2761 16 17.5 15.7761 17.5 15.5C17.5 15.2239 17.2761 15 17 15C16.7239 15 16.5 15.2239 16.5 15.5C16.5 15.7761 16.7239 16 17 16Z" stroke="black" stroke-width="1.5" stroke-miterlimit="10" stroke-linecap="round" stroke-linejoin="round"/>
</svg>
