<svg width="24" height="24" viewBox="0 0 24 24" fill="none" xmlns="http://www.w3.org/2000/svg">
<path d="M12 22C6.47715 22 2 17.5228 2 12C2 6.47715 6.47715 2 12 2C17.5228 2 22 6.47715 22 12C22 17.5228 17.5228 22 12 22Z" stroke="black" stroke-width="1.5" stroke-miterlimit="10" stroke-linecap="round" stroke-linejoin="round"/>
<path d="M10.6221 11.6514L10.0127 12L10.6221 12.3486L11.25 12.707V11.292L10.6221 11.6514Z" stroke="black" stroke-width="1.5"/>
<path d="M13.6221 11.6514L13.0127 12L13.6221 12.3486L14.25 12.707V11.292L13.6221 11.6514Z" stroke="black" stroke-width="1.5"/>
<path d="M12 18C8.68629 18 6 15.3137 6 12C6 8.68629 8.68629 6 12 6C15.3137 6 18 8.68629 18 12C18 15.3137 15.3137 18 12 18Z" stroke="black" stroke-width="1.5" stroke-miterlimit="10" stroke-linecap="round" stroke-linejoin="round"/>
</svg>
