<svg width="24" height="24" viewBox="0 0 24 24" fill="none" xmlns="http://www.w3.org/2000/svg">
<path d="M21 13C21 18 17 22 12 22C7 22 3 18 3 13C3 8 7 4 12 4H13" stroke="black" stroke-width="1.5" stroke-miterlimit="10" stroke-linecap="round" stroke-linejoin="round"/>
<path d="M13 4L11 2.75V5.25L13 4Z" stroke="black" stroke-width="1.5"/>
<path d="M15.1 16H14.9C13.8 16 13 15.1 13 14.1V10.9C13 9.8 13.9 9 14.9 9H15.1C16.2 9 17 9.9 17 10.9V14.1C17 15.1 16.1 16 15.1 16Z" stroke="black" stroke-width="1.5" stroke-miterlimit="10" stroke-linecap="round" stroke-linejoin="round"/>
<path d="M7 9C7 9 8.1 9 9 9C11.1 9 11 12 9 12" stroke="black" stroke-width="1.5" stroke-miterlimit="10" stroke-linecap="round" stroke-linejoin="round"/>
<path d="M7 15.25C7.5 15.5 8 16 9 16C10.5 16 11 14 10.5 12.995C10.5 13 10 12 9 12" stroke="black" stroke-width="1.5" stroke-miterlimit="10" stroke-linecap="round" stroke-linejoin="round"/>
</svg>
