<svg width="24" height="24" viewBox="0 0 24 24" fill="none" xmlns="http://www.w3.org/2000/svg">
<path d="M12 2C6.47715 2 2 6.47715 2 12C2 17.5228 6.47715 22 12 22C17.5228 22 22 17.5228 22 12C22 6.47715 17.5228 2 12 2Z" stroke="black" stroke-width="1.5" stroke-miterlimit="10" stroke-linecap="round" stroke-linejoin="round"/>
<path d="M14.1221 12.3486L13.5127 12L14.1221 11.6514L14.75 11.293V12.708L14.1221 12.3486Z" stroke="black" stroke-width="1.5"/>
<path d="M11.6221 12.3486L11.0127 12L11.6221 11.6514L12.25 11.293V12.708L11.6221 12.3486Z" stroke="black" stroke-width="1.5"/>
<path d="M9.5 14V10" stroke="black" stroke-width="1.5" stroke-miterlimit="10"/>
<path d="M12 6C8.68629 6 6 8.68629 6 12C6 15.3137 8.68629 18 12 18C15.3137 18 18 15.3137 18 12C18 8.68629 15.3137 6 12 6Z" stroke="black" stroke-width="1.5" stroke-miterlimit="10" stroke-linecap="round" stroke-linejoin="round"/>
</svg>
