<svg width="24" height="24" viewBox="0 0 24 24" fill="none" xmlns="http://www.w3.org/2000/svg">
<path d="M21.7999 10C21.3599 7.84002 20.2199 5.93002 18.6299 4.52002" stroke="black" stroke-width="1.5" stroke-linecap="round" stroke-linejoin="round"/>
<path d="M5.36971 4.52002C3.77971 5.93002 2.63971 7.84002 2.19971 10" stroke="black" stroke-width="1.5" stroke-linecap="round" stroke-linejoin="round"/>
<path d="M8.83008 21.48C9.83008 21.82 10.8901 22 12.0001 22C13.1101 22 14.1701 21.82 15.1701 21.48" stroke="black" stroke-width="1.5" stroke-linecap="round" stroke-linejoin="round"/>
<path d="M21.7999 14C21.3599 16.16 20.2199 18.07 18.6299 19.48" stroke="black" stroke-width="1.5" stroke-linecap="round" stroke-linejoin="round"/>
<path d="M5.36971 19.48C3.77971 18.07 2.63971 16.16 2.19971 14" stroke="black" stroke-width="1.5" stroke-linecap="round" stroke-linejoin="round"/>
<path d="M8.83008 2.52C9.83008 2.18 10.8901 2 12.0001 2C13.1101 2 14.1701 2.18 15.1701 2.52" stroke="black" stroke-width="1.5" stroke-linecap="round" stroke-linejoin="round"/>
<path d="M9 7.99992V15.9999C9 16.3899 9.40974 16.6299 9.74953 16.4399L16.7452 12.4399C17.0849 12.2499 17.0849 11.7599 16.7452 11.5699L9.74953 7.56992C9.40974 7.37992 9 7.61992 9 7.99992Z" stroke="black" stroke-width="1.5" stroke-linecap="round" stroke-linejoin="round"/>
</svg>
