<svg width="24" height="24" viewBox="0 0 24 24" fill="none" xmlns="http://www.w3.org/2000/svg">
<path d="M21 13C21 18 17 22 12 22C7 22 3 18 3 13C3 8 7 4 12 4H13" stroke="black" stroke-width="1.5" stroke-miterlimit="10" stroke-linecap="round" stroke-linejoin="round"/>
<path d="M13 4L11 2.75V5.25L13 4Z" stroke="black" stroke-width="1.5"/>
<path d="M15.1 16H14.9C13.8 16 13 15.1 13 14.1V10.9C13 9.8 13.9 9 14.9 9H15.1C16.2 9 17 9.9 17 10.9V14.1C17 15.1 16.1 16 15.1 16Z" stroke="black" stroke-width="1.5" stroke-miterlimit="10" stroke-linecap="round" stroke-linejoin="round"/>
<path d="M6.70029 14.0001C6.70016 12.8852 6.70017 12.1873 6.70029 11.1452C6.70017 10.0946 7.49563 8.97773 8.61948 9.00009C9.17756 9.01119 9.52857 9.22589 9.93261 9.5646" stroke="black" stroke-width="1.5" stroke-miterlimit="10" stroke-linecap="round" stroke-linejoin="round"/>
<path d="M8.6002 12C7.6002 12 6.7002 12.7581 6.7002 14C6.70031 15 7.52313 16 8.60044 16C9.67775 16 10.5554 15.0759 10.5002 14C10.5002 12.7581 9.6002 12 8.6002 12Z" stroke="black" stroke-width="1.5" stroke-miterlimit="10" stroke-linecap="round" stroke-linejoin="round"/>
</svg>
