<svg width="24" height="24" viewBox="0 0 24 24" fill="none" xmlns="http://www.w3.org/2000/svg">
<path d="M21 13C21 18 17 22 12 22C7 22 3 18 3 13C3 8 7 4 12 4H13" stroke="black" stroke-width="1.5" stroke-miterlimit="10" stroke-linecap="round" stroke-linejoin="round"/>
<path d="M13 4L11 2.75V5.25L13 4Z" stroke="black" stroke-width="1.5"/>
<path d="M13 16H15.2C16.2 16 17 15.2222 17 14.25C17 13.2778 16.2 12.5 15.2 12.5L13 12.5V10.0694C13 9.48611 13.5 9 14.1 9H16.8" stroke="black" stroke-width="1.5" stroke-miterlimit="10" stroke-linecap="round" stroke-linejoin="round"/>
<path d="M8.8 16L10.8 9H7" stroke="black" stroke-width="1.5" stroke-miterlimit="10" stroke-linecap="round" stroke-linejoin="round"/>
</svg>
