<svg width="24" height="24" viewBox="0 0 24 24" fill="none" xmlns="http://www.w3.org/2000/svg">
<path d="M21.7999 10C21.3599 7.84002 20.2199 5.93002 18.6299 4.52002" stroke="black" stroke-width="1.5" stroke-linecap="round" stroke-linejoin="round"/>
<path d="M5.3702 4.52002C3.7802 5.93002 2.6402 7.84002 2.2002 10" stroke="black" stroke-width="1.5" stroke-linecap="round" stroke-linejoin="round"/>
<path d="M8.83008 21.48C9.83008 21.82 10.8901 22 12.0001 22C13.1101 22 14.1701 21.82 15.1701 21.48" stroke="black" stroke-width="1.5" stroke-linecap="round" stroke-linejoin="round"/>
<path d="M21.7999 14C21.3599 16.16 20.2199 18.07 18.6299 19.48" stroke="black" stroke-width="1.5" stroke-linecap="round" stroke-linejoin="round"/>
<path d="M5.3702 19.48C3.7802 18.07 2.6402 16.16 2.2002 14" stroke="black" stroke-width="1.5" stroke-linecap="round" stroke-linejoin="round"/>
<path d="M8.83008 2.52C9.83008 2.18 10.8901 2 12.0001 2C13.1101 2 14.1701 2.18 15.1701 2.52" stroke="black" stroke-width="1.5" stroke-linecap="round" stroke-linejoin="round"/>
<path d="M15.5 16H8.5C8.22 16 8 15.78 8 15.5V8.5C8 8.22 8.22 8 8.5 8H15.5C15.78 8 16 8.22 16 8.5V15.5C16 15.78 15.78 16 15.5 16Z" stroke="black" stroke-width="1.5" stroke-miterlimit="10" stroke-linecap="round" stroke-linejoin="round"/>
</svg>
