<svg width="24" height="24" viewBox="0 0 24 24" fill="none" xmlns="http://www.w3.org/2000/svg">
<path d="M22 2H14V10H22V2Z" stroke="black" stroke-width="1.5" stroke-linecap="round" stroke-linejoin="round"/>
<path d="M10 14H2V22H10V14Z" stroke="black" stroke-width="1.5" stroke-linecap="round" stroke-linejoin="round"/>
<path d="M10 2H2V10H10V2Z" stroke="black" stroke-width="1.5" stroke-linecap="round" stroke-linejoin="round"/>
<path d="M18 22H18.01" stroke="black" stroke-width="1.5" stroke-miterlimit="10" stroke-linecap="round" stroke-linejoin="round"/>
<path d="M16 16.04C16.04 15.75 16.16 15.21 16.56 14.73C16.66 14.6 16.85 14.37 17.18 14.2C17.58 14 17.94 14 18.1 14C18.28 14 18.71 14.02 19.15 14.31C19.69 14.67 19.86 15.19 19.91 15.35C19.94 15.43 20.1 15.96 19.91 16.56C19.8 16.94 19.6 17.18 19.43 17.39C18.73 18.22 18.11 18.15 18 18.69C17.99 18.71 18 18.82 18 19" stroke="black" stroke-width="1.5" stroke-miterlimit="10" stroke-linecap="round" stroke-linejoin="round"/>
</svg>
