<svg width="24" height="24" viewBox="0 0 24 24" fill="none" xmlns="http://www.w3.org/2000/svg">
<path d="M9 19H21" stroke="black" stroke-width="1.5" stroke-miterlimit="10" stroke-linecap="round" stroke-linejoin="round"/>
<path d="M9 12H21" stroke="black" stroke-width="1.5" stroke-miterlimit="10" stroke-linecap="round" stroke-linejoin="round"/>
<path d="M2.87988 21.1899C3.41988 21.3199 4.02988 21.2399 4.48988 20.9399C4.91988 20.6699 5.16988 20.1899 5.02988 19.6999C4.89988 19.2399 4.32988 19.0299 3.86988 18.9899C4.35988 19.0199 4.85988 18.7799 5.04988 18.3399C5.26988 17.8499 4.96988 17.2999 4.51988 17.0299C4.12988 16.7899 3.64988 16.7199 3.19988 16.7499" stroke="black" stroke-width="1.5" stroke-miterlimit="10" stroke-linecap="round" stroke-linejoin="round"/>
<path d="M2.5 10.8801C2.94 10.1301 3.78 9.82005 4.39 10.1001C4.85 10.3201 5.27 10.9101 5.15 11.5101C5.08 11.8501 4.85 12.0701 4.68 12.2201C4.17 12.6601 3.45 13.2801 2.5 14.0001H5.5" stroke="black" stroke-width="1.5" stroke-miterlimit="10" stroke-linecap="round" stroke-linejoin="round"/>
<path d="M9 5H21" stroke="black" stroke-width="1.5" stroke-miterlimit="10" stroke-linecap="round" stroke-linejoin="round"/>
<path d="M4 7V3" stroke="black" stroke-width="1.5" stroke-miterlimit="10" stroke-linecap="round" stroke-linejoin="round"/>
<path d="M3 7H5" stroke="black" stroke-width="1.5" stroke-miterlimit="10" stroke-linecap="round" stroke-linejoin="round"/>
<path d="M3 3.5L4 3" stroke="black" stroke-width="1.5" stroke-miterlimit="10" stroke-linecap="round" stroke-linejoin="round"/>
</svg>
