<svg width="24" height="24" viewBox="0 0 24 24" fill="none" xmlns="http://www.w3.org/2000/svg">
<path d="M5 13C5.55 13 6 12.55 6 12C6 11.45 5.55 11 5 11C4.45 11 4 11.45 4 12C4 12.55 4.45 13 5 13Z" stroke="black" stroke-width="1.5" stroke-miterlimit="10" stroke-linecap="round" stroke-linejoin="round"/>
<path d="M19 13C19.55 13 20 12.55 20 12C20 11.45 19.55 11 19 11C18.45 11 18 11.45 18 12C18 12.55 18.45 13 19 13Z" stroke="black" stroke-width="1.5" stroke-miterlimit="10" stroke-linecap="round" stroke-linejoin="round"/>
<path d="M12 20C12.55 20 13 19.55 13 19C13 18.45 12.55 18 12 18C11.45 18 11 18.45 11 19C11 19.55 11.45 20 12 20Z" stroke="black" stroke-width="1.5" stroke-miterlimit="10" stroke-linecap="round" stroke-linejoin="round"/>
<path d="M12 6C12.55 6 13 5.55 13 5C13 4.45 12.55 4 12 4C11.45 4 11 4.45 11 5C11 5.55 11.45 6 12 6Z" stroke="black" stroke-width="1.5" stroke-miterlimit="10" stroke-linecap="round" stroke-linejoin="round"/>
<path d="M12 13C12.55 13 13 12.55 13 12C13 11.45 12.55 11 12 11C11.45 11 11 11.45 11 12C11 12.55 11.45 13 12 13Z" stroke="black" stroke-width="1.5" stroke-miterlimit="10" stroke-linecap="round" stroke-linejoin="round"/>
<path d="M5 20C5.55 20 6 19.55 6 19C6 18.45 5.55 18 5 18C4.45 18 4 18.45 4 19C4 19.55 4.45 20 5 20Z" stroke="black" stroke-width="1.5" stroke-miterlimit="10" stroke-linecap="round" stroke-linejoin="round"/>
<path d="M19 20C19.55 20 20 19.55 20 19C20 18.45 19.55 18 19 18C18.45 18 18 18.45 18 19C18 19.55 18.45 20 19 20Z" stroke="black" stroke-width="1.5" stroke-miterlimit="10" stroke-linecap="round" stroke-linejoin="round"/>
<path d="M5 6C5.55 6 6 5.55 6 5C6 4.45 5.55 4 5 4C4.45 4 4 4.45 4 5C4 5.55 4.45 6 5 6Z" stroke="black" stroke-width="1.5" stroke-miterlimit="10" stroke-linecap="round" stroke-linejoin="round"/>
<path d="M19 6C19.55 6 20 5.55 20 5C20 4.45 19.55 4 19 4C18.45 4 18 4.45 18 5C18 5.55 18.45 6 19 6Z" stroke="black" stroke-width="1.5" stroke-miterlimit="10" stroke-linecap="round" stroke-linejoin="round"/>
</svg>
