<svg width="24" height="24" viewBox="0 0 24 24" fill="none" xmlns="http://www.w3.org/2000/svg">
<path d="M20.5 13.5H3.5C2.67 13.5 2 12.83 2 12C2 11.17 2.67 10.5 3.5 10.5H20.5C21.33 10.5 22 11.17 22 12C22 12.83 21.33 13.5 20.5 13.5Z" stroke="black" stroke-width="1.5" stroke-miterlimit="10" stroke-linecap="round" stroke-linejoin="round"/>
<path d="M20.5 7H3.5C2.67 7 2 6.33 2 5.5C2 4.67 2.67 4 3.5 4H20.5C21.33 4 22 4.67 22 5.5C22 6.33 21.33 7 20.5 7Z" stroke="black" stroke-width="1.5" stroke-miterlimit="10" stroke-linecap="round" stroke-linejoin="round"/>
<path d="M20.5 20H3.5C2.67 20 2 19.33 2 18.5C2 17.67 2.67 17 3.5 17H20.5C21.33 17 22 17.67 22 18.5C22 19.33 21.33 20 20.5 20Z" stroke="black" stroke-width="1.5" stroke-miterlimit="10" stroke-linecap="round" stroke-linejoin="round"/>
</svg>
