<svg width="24" height="24" viewBox="0 0 24 24" fill="none" xmlns="http://www.w3.org/2000/svg">
<path d="M19.9834 18.5491C20.5881 19.094 21.6316 20.0568 21.6316 20.0568C22.0861 20.4663 22.1225 21.1667 21.713 21.6212C21.5348 21.8189 21.2914 21.9458 21.0274 21.9788C18.3178 22.3172 12.2851 18.5274 9.58773 18.0558C6.43445 17.5046 5.29681 18.0558 4.38135 20.815" stroke="black" stroke-width="1.5" stroke-linecap="round"/>
<path fill-rule="evenodd" clip-rule="evenodd" d="M8.25293 11.9108C8.25293 11.9108 9.3542 11.556 9.84363 11.2035C11.2661 10.1791 11.778 9.61376 12.5247 8.08852C12.7287 7.67176 12.8553 6.94727 12.8553 6.94727L20.152 17.0251C20.4718 17.4543 20.439 18.0509 20.0739 18.4424L19.8375 18.6959C19.4664 19.0938 18.8614 19.1633 18.4098 18.8599L8.25293 11.9108Z" stroke="black" stroke-width="1.5" stroke-linecap="round" stroke-linejoin="round"/>
<path d="M13.3442 12.3462L13.427 12.429" stroke="black" stroke-width="1.5" stroke-linecap="round"/>
<path fill-rule="evenodd" clip-rule="evenodd" d="M11.2168 10.0752C13.3028 7.83824 13.5431 4.67201 11.7536 3.00322C9.96402 1.33443 6.82227 1.79501 4.73628 4.03196C2.65029 6.26891 2.40999 9.43514 4.19955 11.1039C5.98911 12.7727 9.13086 12.3121 11.2168 10.0752Z" stroke="black" stroke-width="1.5"/>
<path d="M4.17627 11.073C4.17627 11.073 5.69841 10.0079 8.03596 7.50115C10.3735 4.99443 11.6111 2.88184 11.6111 2.88184" stroke="black" stroke-width="1.5" stroke-linecap="round"/>
</svg>
