<svg width="24" height="24" viewBox="0 0 24 24" fill="none" xmlns="http://www.w3.org/2000/svg">
<path d="M22 2L20.13 5.24C19.55 6.24 18.11 6.24 17.53 5.24L16.96 4.25C16.38 3.25 14.94 3.25 14.36 4.25L12.5 7.47" stroke="black" stroke-width="1.5" stroke-miterlimit="10" stroke-linecap="round" stroke-linejoin="round"/>
<path fill-rule="evenodd" clip-rule="evenodd" d="M4.5001 21.3299C2.1101 19.9499 1.2901 16.8899 2.6701 14.4999L5.67011 9.29991C7.05011 6.90991 10.1101 6.08991 12.5001 7.46991C14.8901 8.84991 15.7101 11.9099 14.3301 14.2999L11.3301 19.4999C9.95011 21.8899 6.89011 22.7099 4.5001 21.3299Z" stroke="black" stroke-width="1.5" stroke-miterlimit="10" stroke-linecap="round" stroke-linejoin="round"/>
<path d="M9.49992 12.6699L12.4999 7.46991C10.1099 6.08991 7.04992 6.90991 5.66992 9.29991L5.16992 10.1699L9.49992 12.6699Z" stroke="black" stroke-width="1.5" stroke-miterlimit="10" stroke-linecap="round"/>
<path d="M9.5 12.67L12.5 7.46997C14.89 8.84997 15.71 11.91 14.33 14.3L13.83 15.17L9.5 12.67Z" stroke="black" stroke-width="1.5" stroke-miterlimit="10" stroke-linecap="round"/>
</svg>
