<svg width="24" height="24" viewBox="0 0 24 24" fill="none" xmlns="http://www.w3.org/2000/svg">
<path d="M8 21L11.9928 7.56848L16 21" stroke="black" stroke-width="1.5" stroke-linecap="round" stroke-linejoin="round"/>
<path d="M9.5 16H14.5" stroke="black" stroke-width="1.5" stroke-linejoin="round"/>
<path d="M5 21H19" stroke="black" stroke-width="1.5" stroke-linejoin="round"/>
<path d="M8 9.42465C8 9.42465 7 8.13654 7 6.70976C7 5.28298 8 3.8562 8 3.8562" stroke="black" stroke-width="1.5" stroke-linejoin="round"/>
<path d="M5 11.2807C5 11.2807 3 9.11724 3 6.74483C3 4.37241 5 2 5 2" stroke="black" stroke-width="1.5" stroke-linejoin="round"/>
<path d="M16 3.8562C16 3.8562 17 5.35225 17 6.70972C17 8.06718 16 9.42465 16 9.42465" stroke="black" stroke-width="1.5" stroke-linejoin="round"/>
<path d="M19 2C19 2 21 4.3783 21 6.67912C21 8.97993 19 11.2807 19 11.2807" stroke="black" stroke-width="1.5" stroke-linejoin="round"/>
<path fill-rule="evenodd" clip-rule="evenodd" d="M12 7.56843C12.5523 7.56843 13 7.15292 13 6.64035C13 6.12779 12.5523 5.71228 12 5.71228C11.4477 5.71228 11 6.12779 11 6.64035C11 7.15292 11.4477 7.56843 12 7.56843Z" stroke="black" stroke-width="1.5" stroke-linejoin="round"/>
</svg>
