<svg width="24" height="24" viewBox="0 0 24 24" fill="none" xmlns="http://www.w3.org/2000/svg">
<path d="M8.99963 8.82117C8.37194 9.70665 8 10.8073 8 12C8 13.1927 8.37194 14.2934 8.99963 15.1789" stroke="black" stroke-width="1.5" stroke-linecap="round" stroke-linejoin="round"/>
<path d="M15.0004 15.1788C15.6281 14.2934 16 13.1927 16 12C16 10.8073 15.6281 9.7066 15.0004 8.82111" stroke="black" stroke-width="1.5" stroke-linecap="round" stroke-linejoin="round"/>
<path d="M7 6.39282C5.75527 7.88717 5 9.8501 5 12C5 14.1498 5.75527 16.1127 7 17.6071" stroke="black" stroke-width="1.5" stroke-linecap="round" stroke-linejoin="round"/>
<path d="M17 17.6072C18.2447 16.1128 19 14.1499 19 12C19 9.85019 18.2447 7.88725 17 6.3929" stroke="black" stroke-width="1.5" stroke-linecap="round" stroke-linejoin="round"/>
<path d="M5 4C3.14015 6.08747 2 8.90265 2 12C2 15.0973 3.14015 17.9125 5 20" stroke="black" stroke-width="1.5" stroke-linecap="round" stroke-linejoin="round"/>
<path d="M19 20C20.8598 17.9125 22 15.0974 22 12C22 8.90265 20.8598 6.08748 19 4" stroke="black" stroke-width="1.5" stroke-linecap="round" stroke-linejoin="round"/>
<circle cx="12" cy="12" r="1" stroke="black" stroke-width="1.5"/>
</svg>
