<svg width="24" height="24" viewBox="0 0 24 24" fill="none" xmlns="http://www.w3.org/2000/svg">
<path d="M11.004 18.0357C11.004 18.0357 9 17.3517 9 15.9999C9 14.648 9.85898 14.2412 9.85898 14.2412" stroke="black" stroke-width="1.5" stroke-linecap="round"/>
<path fill-rule="evenodd" clip-rule="evenodd" d="M19 22C19 20.6745 16.9561 18 12 18C7.04395 18 5 20.6745 5 22H19Z" stroke="black" stroke-width="1.5" stroke-linecap="round" stroke-linejoin="round"/>
<path fill-rule="evenodd" clip-rule="evenodd" d="M9.46819 14.0328C12.8174 15.9342 17.5197 14.7898 18.6532 12.6956C19.7866 10.6013 18.0674 7.20475 14.5822 5.31173C11.233 3.41036 7.62488 3.60682 6.49142 5.70107C5.35795 7.79531 6.11898 12.1314 9.46819 14.0328Z" stroke="black" stroke-width="1.5"/>
<path fill-rule="evenodd" clip-rule="evenodd" d="M10.48 12.4143C13.1515 13.9309 17.4763 14.8943 18.7013 12.643C19.6735 10.5319 18.1876 7.42003 14.7208 5.39111C11.254 3.36219 7.42517 3.66874 6.48909 5.68898C5.553 7.70922 7.13074 10.5129 10.48 12.4143Z" stroke="black" stroke-width="1.5"/>
<path d="M17.4 3.80005L13 9.00005" stroke="black" stroke-width="1.5" stroke-linecap="round"/>
<path fill-rule="evenodd" clip-rule="evenodd" d="M18 4C18.5523 4 19 3.55228 19 3C19 2.44772 18.5523 2 18 2C17.4477 2 17 2.44772 17 3C17 3.55228 17.4477 4 18 4Z" stroke="black" stroke-width="1.5"/>
</svg>
