<svg width="24" height="24" viewBox="0 0 24 24" fill="none" xmlns="http://www.w3.org/2000/svg">
<path d="M17 22C14.24 22 12 19.76 12 17C12 16.66 12.03 16.32 12.1 16H4C2.9 16 2 16.9 2 18V20C2 21.1 2.9 22 4 22H17Z" stroke="black" stroke-width="1.5" stroke-miterlimit="10" stroke-linecap="round" stroke-linejoin="round"/>
<path d="M21.32 14.49C20.46 13 18.84 12 17 12C14.95 12 13.19 13.24 12.41 15H4C2.9 15 2 14.1 2 13V11C2 9.9 2.9 9 4 9H20C21.1 9 22 9.9 22 11V13C22 13.59 21.74 14.13 21.32 14.49Z" stroke="black" stroke-width="1.5" stroke-miterlimit="10" stroke-linecap="round" stroke-linejoin="round"/>
<path d="M20 8H4C2.9 8 2 7.1 2 6V4C2 2.9 2.9 2 4 2H20C21.1 2 22 2.9 22 4V6C22 7.1 21.1 8 20 8Z" stroke="black" stroke-width="1.5" stroke-linecap="round" stroke-linejoin="round"/>
<path d="M22 8H2V9H22V8Z" stroke="black" stroke-width="1.5" stroke-linecap="round" stroke-linejoin="round"/>
<path d="M5 4V6" stroke="black" stroke-width="1.5" stroke-linejoin="round"/>
<path d="M8 4V6" stroke="black" stroke-width="1.5" stroke-linejoin="round"/>
<path d="M5 11V13" stroke="black" stroke-width="1.5" stroke-linejoin="round"/>
<path d="M8 11V13" stroke="black" stroke-width="1.5" stroke-linejoin="round"/>
<path d="M5 18V20" stroke="black" stroke-width="1.5" stroke-linejoin="round"/>
<path d="M8 18V20" stroke="black" stroke-width="1.5" stroke-linejoin="round"/>
<path d="M12.1 16C12.17 15.65 12.28 15.32 12.41 15H4H2V16H4H12.1Z" stroke="black" stroke-width="1.5" stroke-miterlimit="10" stroke-linecap="round" stroke-linejoin="round"/>
<path d="M17 22C19.7614 22 22 19.7614 22 17C22 14.2386 19.7614 12 17 12C14.2386 12 12 14.2386 12 17C12 19.7614 14.2386 22 17 22Z" stroke="black" stroke-width="1.5" stroke-miterlimit="10" stroke-linecap="round" stroke-linejoin="round"/>
<path d="M17 14V20" stroke="black" stroke-width="1.5" stroke-miterlimit="10" stroke-linejoin="round"/>
<path d="M20 17H14" stroke="black" stroke-width="1.5" stroke-miterlimit="10" stroke-linejoin="round"/>
</svg>
