<svg width="24" height="24" viewBox="0 0 24 24" fill="none" xmlns="http://www.w3.org/2000/svg">
<path d="M6 20C6 21.1046 6.89543 22 8 22H16C17.1046 22 18 21.1046 18 20V4C18 2.89543 17.1046 2 16 2H8C6.89543 2 6 2.89543 6 4V20Z" stroke="black" stroke-width="1.5"/>
<path d="M12 19V18.5" stroke="black" stroke-width="1.5" stroke-linecap="round"/>
<path d="M12 16V15.5" stroke="black" stroke-width="1.5" stroke-linecap="round"/>
<path d="M9 6C9 6 10 5.5 12 5.5C14 5.5 15 6 15 6" stroke="black" stroke-width="1.5" stroke-linecap="round"/>
<path d="M10 9C10 9 11 8.5 12 8.5C13 8.5 14 9 14 9" stroke="black" stroke-width="1.5" stroke-linecap="round"/>
<path d="M10.5 12C10.5 12 11 11.5 12 11.5C13 11.5 13.5 12 13.5 12" stroke="black" stroke-width="1.5" stroke-linecap="round"/>
</svg>
