<svg width="24" height="24" viewBox="0 0 24 24" fill="none" xmlns="http://www.w3.org/2000/svg">
<path d="M20 8H4C2.9 8 2 7.1 2 6V4C2 2.9 2.9 2 4 2H20C21.1 2 22 2.9 22 4V6C22 7.1 21.1 8 20 8Z" stroke="black" stroke-width="1.5" stroke-linecap="round" stroke-linejoin="round"/>
<path d="M20 15H4C2.9 15 2 14.1 2 13V11C2 9.9 2.9 9 4 9H20C21.1 9 22 9.9 22 11V13C22 14.1 21.1 15 20 15Z" stroke="black" stroke-width="1.5" stroke-linecap="round" stroke-linejoin="round"/>
<path d="M20 22H4C2.9 22 2 21.1 2 20V18C2 16.9 2.9 16 4 16H20C21.1 16 22 16.9 22 18V20C22 21.1 21.1 22 20 22Z" stroke="black" stroke-width="1.5" stroke-linecap="round" stroke-linejoin="round"/>
<path d="M22 8H2V9H22V8Z" stroke="black" stroke-width="1.5" stroke-linecap="round" stroke-linejoin="round"/>
<path d="M22 15H2V16H22V15Z" stroke="black" stroke-width="1.5" stroke-linecap="round" stroke-linejoin="round"/>
<path d="M5 4V6" stroke="black" stroke-width="1.5" stroke-linejoin="round"/>
<path d="M8 4V6" stroke="black" stroke-width="1.5" stroke-linejoin="round"/>
<path d="M5 11V13" stroke="black" stroke-width="1.5" stroke-linejoin="round"/>
<path d="M8 11V13" stroke="black" stroke-width="1.5" stroke-linejoin="round"/>
<path d="M5 18V20" stroke="black" stroke-width="1.5" stroke-linejoin="round"/>
<path d="M8 18V20" stroke="black" stroke-width="1.5" stroke-linejoin="round"/>
</svg>
