<svg width="24" height="24" viewBox="0 0 24 24" fill="none" xmlns="http://www.w3.org/2000/svg">
<path d="M15.9 17.5C17.2 16.4 18 14.8 18 13C18 9.7 15.3 7 12 7C8.7 7 6 9.7 6 13C6 14.8 6.8 16.4 8.1 17.5" stroke="black" stroke-width="1.5" stroke-linecap="round" stroke-linejoin="round"/>
<path d="M5.4 20.5C3.3 18.7 2 16 2 13C2 7.5 6.5 3 12 3C17.5 3 22 7.5 22 13C22 16 20.7 18.7 18.6 20.5" stroke="black" stroke-width="1.5" stroke-linecap="round" stroke-linejoin="round"/>
<path d="M12 15C13.1046 15 14 14.1046 14 13C14 11.8954 13.1046 11 12 11C10.8954 11 10 11.8954 10 13C10 14.1046 10.8954 15 12 15Z" stroke="black" stroke-width="1.5" stroke-linecap="round" stroke-linejoin="round"/>
</svg>
