<svg width="24" height="24" viewBox="0 0 24 24" fill="none" xmlns="http://www.w3.org/2000/svg">
<path d="M2 6C2 3.79086 3.79086 2 6 2H10V22H6C3.79086 22 2 20.2091 2 18V6Z" stroke="black" stroke-width="1.5"/>
<path d="M14 2H18C20.2091 2 22 3.79086 22 6V18C22 20.2091 20.2091 22 18 22H14V2Z" stroke="black" stroke-width="1.5"/>
<path d="M6.0001 10.4001C6.7733 10.4001 7.4001 9.7733 7.4001 9.0001C7.4001 8.2269 6.7733 7.6001 6.0001 7.6001C5.2269 7.6001 4.6001 8.2269 4.6001 9.0001C4.6001 9.7733 5.2269 10.4001 6.0001 10.4001Z" stroke="black" stroke-width="1.5"/>
<path d="M18.0001 17.4001C18.7733 17.4001 19.4001 16.7733 19.4001 16.0001C19.4001 15.2269 18.7733 14.6001 18.0001 14.6001C17.2269 14.6001 16.6001 15.2269 16.6001 16.0001C16.6001 16.7733 17.2269 17.4001 18.0001 17.4001Z" stroke="black" stroke-width="1.5"/>
</svg>
