<svg width="24" height="24" viewBox="0 0 24 24" fill="none" xmlns="http://www.w3.org/2000/svg">
<path d="M2 21C2.5 19.1 3.97 19.49 4.47 17.59C4.97 15.69 3.5 15.3 4 13.41C4.5 11.51 5.97 11.89 6.47 10C6.97 8.09 5.5 7.71 6 5.8C6.44 4.14 7.62 4.23 8.24 3" stroke="black" stroke-width="1.5" stroke-miterlimit="10" stroke-linecap="round" stroke-linejoin="round"/>
<path d="M21.71 7.35006L20.65 6.29006C20.26 5.90006 19.63 5.90006 19.24 6.29006L8.24 17.2901L7 21.0001L10.71 19.7601L21.71 8.76006C22.1 8.37006 22.1 7.74006 21.71 7.35006Z" stroke="black" stroke-width="1.5" stroke-miterlimit="10" stroke-linecap="round" stroke-linejoin="round"/>
<path d="M19.9397 10.5301L17.4697 8.06007L19.2297 6.30007C19.6197 5.91007 20.2497 5.91007 20.6397 6.30007L21.6997 7.36007C22.0897 7.75007 22.0897 8.38007 21.6997 8.77007L19.9397 10.5301Z" stroke="black" stroke-width="1.5" stroke-miterlimit="10" stroke-linecap="round" stroke-linejoin="round"/>
</svg>
