<svg width="24" height="24" viewBox="0 0 24 24" fill="none" xmlns="http://www.w3.org/2000/svg">
<path d="M16.06 14.3825L14.06 16.3825C13.28 17.1625 12.01 17.1625 11.23 16.3825L7.60997 12.7625C6.82997 11.9825 6.82997 10.7125 7.60997 9.9325L9.60997 7.9325L4.73997 3.0625L2.83997 4.9625C0.749967 7.0525 2.66997 12.3825 7.13997 16.8525C11.61 21.3225 16.93 23.2525 19.03 21.1525L20.93 19.2525L16.06 14.3825Z" stroke="black" stroke-width="1.5" stroke-miterlimit="10" stroke-linecap="round" stroke-linejoin="round"/>
<path d="M21.85 18.7626L16.55 13.4626C16.36 13.2726 16.04 13.2726 15.85 13.4626C15.66 13.6526 15.66 13.9726 15.85 14.1626L21.15 19.4626C21.34 19.6526 21.66 19.6526 21.85 19.4626C22.05 19.2726 22.05 18.9526 21.85 18.7626Z" stroke="black" stroke-width="1.5" stroke-miterlimit="10" stroke-linecap="round" stroke-linejoin="round"/>
<path d="M9.8302 8.1425L4.5302 2.8425C4.3402 2.6525 4.3402 2.3325 4.5302 2.1425C4.7202 1.9525 5.0402 1.9525 5.2302 2.1425L10.5302 7.4425C10.7202 7.6325 10.7202 7.9525 10.5302 8.1425C10.3402 8.3425 10.0302 8.3425 9.8302 8.1425Z" stroke="black" stroke-width="1.5" stroke-miterlimit="10" stroke-linecap="round" stroke-linejoin="round"/>
</svg>
