<svg width="24" height="24" viewBox="0 0 24 24" fill="none" xmlns="http://www.w3.org/2000/svg">
<path d="M15.4585 14.55L13.3385 16.67L7.32853 10.66L9.44852 8.54L4.90853 4L2.78853 6.12C0.838525 8.07 2.62853 13.03 6.79853 17.2C10.9685 21.37 15.9285 23.16 17.8785 21.21L19.9985 19.09L15.4585 14.55Z" stroke="black" stroke-width="1.5" stroke-miterlimit="10" stroke-linecap="round" stroke-linejoin="round"/>
<path d="M16.9985 12C19.76 12 21.9985 9.76142 21.9985 7C21.9985 4.23858 19.76 2 16.9985 2C14.2371 2 11.9985 4.23858 11.9985 7C11.9985 9.76142 14.2371 12 16.9985 12Z" stroke="black" stroke-width="1.5" stroke-miterlimit="10" stroke-linecap="round" stroke-linejoin="round"/>
<path d="M16.9985 4V7" stroke="black" stroke-width="1.5" stroke-miterlimit="10" stroke-linejoin="round"/>
<path d="M16.9985 9H17.0085" stroke="black" stroke-width="1.5" stroke-miterlimit="10" stroke-linecap="round" stroke-linejoin="round"/>
</svg>
