<svg width="24" height="24" viewBox="0 0 24 24" fill="none" xmlns="http://www.w3.org/2000/svg">
<path d="M17 11H17.01" stroke="black" stroke-width="1.5" stroke-miterlimit="10" stroke-linecap="round" stroke-linejoin="round"/>
<path d="M15 4.04C15.04 3.75 15.16 3.21 15.56 2.73C15.67 2.6 15.86 2.37 16.19 2.2C16.58 2 16.94 2 17.1 2C17.29 2 17.71 2.02 18.15 2.31C18.69 2.67 18.86 3.19 18.91 3.35C18.94 3.43 19.09 3.96 18.91 4.57C18.8 4.95 18.6 5.19 18.42 5.39C17.72 6.22 17.11 6.15 17 6.69C16.99 6.73 17 7.03 17 7.62C17 7.78 17 7.91 17 8" stroke="black" stroke-width="1.5" stroke-miterlimit="10" stroke-linecap="round" stroke-linejoin="round"/>
<path d="M16.46 14.55L14.34 16.67L8.32999 10.66L10.45 8.54L5.90999 4L3.78999 6.12C1.83999 8.07 3.62999 13.03 7.79999 17.2C11.97 21.37 16.93 23.16 18.88 21.21L21 19.09L16.46 14.55Z" stroke="black" stroke-width="1.5" stroke-miterlimit="10" stroke-linecap="round" stroke-linejoin="round"/>
</svg>
