<svg width="24" height="24" viewBox="0 0 24 24" fill="none" xmlns="http://www.w3.org/2000/svg">
<path d="M16.41 5.59C16.04 5.21 15.53 5 15 5H5C4.47 5 3.96 5.21 3.59 5.59C3.22 5.97 3 6.47 3 7V13C3 13.53 3.21 14.04 3.59 14.41C3.97 14.78 4.47 15 5 15H7V11C7 10.47 7.21 9.96 7.59 9.59C7.96 9.21 8.47 9 9 9H17V7C17 6.47 16.79 5.96 16.41 5.59Z" stroke="black" stroke-width="1.5" stroke-linecap="round" stroke-linejoin="round"/>
<path d="M14 12C13.47 12 12.96 12.21 12.59 12.59C12.21 12.96 12 13.47 12 14C12 14.53 12.21 15.04 12.59 15.41C12.97 15.78 13.47 16 14 16C14.53 16 15.04 15.79 15.41 15.41C15.78 15.03 16 14.53 16 14C16 13.47 15.79 12.96 15.41 12.59C15.04 12.21 14.53 12 14 12Z" stroke="black" stroke-width="1.5" stroke-linecap="round" stroke-linejoin="round"/>
<path d="M20.41 9.59C20.04 9.21 19.53 9 19 9H9C8.47 9 7.96 9.21 7.59 9.59C7.22 9.97 7 10.47 7 11V17C7 17.53 7.21 18.04 7.59 18.41C7.97 18.78 8.47 19 9 19H19C19.53 19 20.04 18.79 20.41 18.41C20.78 18.03 21 17.53 21 17V11C21 10.47 20.79 9.96 20.41 9.59Z" stroke="black" stroke-width="1.5" stroke-linecap="round" stroke-linejoin="round"/>
</svg>
