<svg width="24" height="24" viewBox="0 0 24 24" fill="none" xmlns="http://www.w3.org/2000/svg">
<path d="M19.71 7.29C17.59 4.68 15.25 3 12 3C10.55 3 9.16997 3.35 7.95997 3.96C5.59997 5.15 3.82997 7.35 3.21997 10" stroke="black" stroke-width="1.5" stroke-linecap="round" stroke-linejoin="round"/>
<path d="M21 6V7.4V9H19.4H18L21 6Z" stroke="black" stroke-width="1.5" stroke-linecap="round"/>
<path d="M4.29004 16.71C6.41004 19.32 8.75004 21 12 21C13.45 21 14.83 20.65 16.04 20.04C18.4 18.85 20.17 16.65 20.78 14" stroke="black" stroke-width="1.5" stroke-linecap="round" stroke-linejoin="round"/>
<path d="M3 18V16.6V15H4.6H6L3 18Z" stroke="black" stroke-width="1.5" stroke-linecap="round"/>
<path d="M3 3L21 21" stroke="black" stroke-width="1.5" stroke-linecap="round" stroke-linejoin="round"/>
</svg>
