<svg width="24" height="24" viewBox="0 0 24 24" fill="none" xmlns="http://www.w3.org/2000/svg">
<path fill-rule="evenodd" clip-rule="evenodd" d="M20 9H21C21.5523 9 22 9.44772 22 10V14C22 14.5523 21.5523 15 21 15H20V9Z" stroke="black" stroke-width="1.5"/>
<path fill-rule="evenodd" clip-rule="evenodd" d="M4 9H3C2.44772 9 2 9.44772 2 10V14C2 14.5523 2.44772 15 3 15H4V9Z" stroke="black" stroke-width="1.5"/>
<path fill-rule="evenodd" clip-rule="evenodd" d="M4 9C4 7.89543 4.89543 7 6 7H18C19.1046 7 20 7.89543 20 9V15C20 16.1046 19.1046 17 18 17H6C4.89543 17 4 16.1046 4 15V9Z" stroke="black" stroke-width="1.5"/>
<path d="M2 21C2 18.7909 3.70558 17 5.80952 17H18.1905C20.2944 17 22 18.7909 22 21H2Z" stroke="black" stroke-width="1.5" stroke-linejoin="round"/>
<path d="M8.71875 3.72L12 6.99989L15.2812 3.71997" stroke="black" stroke-width="1.5" stroke-linecap="round" stroke-linejoin="round"/>
<path d="M8.5 11V11.5" stroke="black" stroke-width="1.5" stroke-linecap="round"/>
<path d="M15.5 11V11.5" stroke="black" stroke-width="1.5" stroke-linecap="round"/>
<path d="M10.5 14H13.5" stroke="black" stroke-width="1.5" stroke-linecap="round"/>
<path fill-rule="evenodd" clip-rule="evenodd" d="M8 4C8.55228 4 9 3.55228 9 3C9 2.44772 8.55228 2 8 2C7.44772 2 7 2.44772 7 3C7 3.55228 7.44772 4 8 4Z" stroke="black" stroke-width="1.5"/>
<path fill-rule="evenodd" clip-rule="evenodd" d="M16 4C16.5523 4 17 3.55228 17 3C17 2.44772 16.5523 2 16 2C15.4477 2 15 2.44772 15 3C15 3.55228 15.4477 4 16 4Z" stroke="black" stroke-width="1.5"/>
</svg>
