<svg width="24" height="24" viewBox="0 0 24 24" fill="none" xmlns="http://www.w3.org/2000/svg">
<path d="M14.5 10H6.5C6.22 10 6 9.78 6 9.5V2H15V9.5C15 9.78 14.78 10 14.5 10Z" stroke="black" stroke-width="1.5" stroke-miterlimit="10" stroke-linecap="round" stroke-linejoin="round"/>
<path d="M12 5H11V7H12V5Z" stroke="black" stroke-width="1.5" stroke-miterlimit="10" stroke-linecap="round"/>
<path d="M16.52 2H4C3.45 2 3 2.45 3 3V21C3 21.55 3.45 22 4 22H20C20.55 22 21 21.55 21 21V7.35C21 7.12 20.92 6.9 20.78 6.73L17.3 2.38C17.11 2.14 16.82 2 16.52 2Z" stroke="black" stroke-width="1.5" stroke-miterlimit="10" stroke-linecap="round" stroke-linejoin="round"/>
</svg>
