<svg width="24" height="24" viewBox="0 0 24 24" fill="none" xmlns="http://www.w3.org/2000/svg">
<path d="M22 5H2V19H22V5Z" stroke="black" stroke-width="1.5" stroke-linecap="round" stroke-linejoin="round"/>
<path d="M18 5C18 7.21 19.79 9 22 9V5H18Z" stroke="black" stroke-width="1.5" stroke-linecap="round" stroke-linejoin="round"/>
<path d="M18 19C18 16.79 19.79 15 22 15V19H18Z" stroke="black" stroke-width="1.5" stroke-linecap="round" stroke-linejoin="round"/>
<path d="M6 5C6 7.21 4.21 9 2 9V5H6Z" stroke="black" stroke-width="1.5" stroke-linecap="round" stroke-linejoin="round"/>
<path d="M6 19C6 16.79 4.21 15 2 15V19H6Z" stroke="black" stroke-width="1.5" stroke-linecap="round" stroke-linejoin="round"/>
<path d="M12 16V14.99" stroke="black" stroke-width="1.5" stroke-linecap="round" stroke-linejoin="round"/>
<path d="M12 9.01V8" stroke="black" stroke-width="1.5" stroke-linecap="round" stroke-linejoin="round"/>
<path d="M14 10.2699C13.83 9.64994 13.28 9.16994 12.58 9.03994C11.88 8.90994 11.15 9.14994 10.74 9.63994C10.69 9.69994 10.23 10.2599 10.45 10.8599C10.59 11.2399 10.92 11.4499 11.38 11.7299C11.88 12.0399 12.02 11.9899 12.78 12.3799C13.55 12.7799 13.68 12.9799 13.74 13.0799C13.96 13.4999 13.81 13.9199 13.78 13.9999C13.57 14.5399 12.99 14.7599 12.78 14.8499C12.69 14.8899 11.85 15.1899 11.02 14.8099C10.56 14.5999 10.32 14.2799 10.24 14.1799C10.11 13.9899 10.04 13.8199 10 13.6899" stroke="black" stroke-width="1.5" stroke-linecap="round" stroke-linejoin="round"/>
</svg>
