<svg width="24" height="24" viewBox="0 0 24 24" fill="none" xmlns="http://www.w3.org/2000/svg">
<path d="M5 7V12" stroke="black" stroke-width="1.5" stroke-linecap="square"/>
<path d="M12 7V12" stroke="black" stroke-width="1.5" stroke-linecap="square"/>
<path d="M19 7V12" stroke="black" stroke-width="1.5" stroke-linecap="square"/>
<path d="M16 7H15V12H16V7Z" stroke="black" stroke-width="1.5" stroke-linecap="square"/>
<path d="M9 7H8V12H9V7Z" stroke="black" stroke-width="1.5" stroke-linecap="square"/>
<path d="M5 15V17" stroke="black" stroke-width="1.5" stroke-linecap="square"/>
<path d="M12 15V17" stroke="black" stroke-width="1.5" stroke-linecap="square"/>
<path d="M19 15V17" stroke="black" stroke-width="1.5" stroke-linecap="square"/>
<path d="M16 15H15V17H16V15Z" stroke="black" stroke-width="1.5" stroke-linecap="square"/>
<path d="M9 15H8V17H9V15Z" stroke="black" stroke-width="1.5" stroke-linecap="square"/>
<path d="M22 7V2H17" stroke="black" stroke-width="1.5" stroke-linecap="round" stroke-linejoin="round"/>
<path d="M22 17V22H17" stroke="black" stroke-width="1.5" stroke-linecap="round" stroke-linejoin="round"/>
<path d="M2 7V2H7" stroke="black" stroke-width="1.5" stroke-linecap="round" stroke-linejoin="round"/>
<path d="M2 17V22H7" stroke="black" stroke-width="1.5" stroke-linecap="round" stroke-linejoin="round"/>
<path d="M2 12H22" stroke="black" stroke-width="1.5" stroke-linecap="round" stroke-linejoin="round"/>
</svg>
