<svg width="24" height="24" viewBox="0 0 24 24" fill="none" xmlns="http://www.w3.org/2000/svg">
<path d="M12 14V2" stroke="black" stroke-width="1.5" stroke-linecap="round" stroke-linejoin="round"/>
<path d="M15 5.68999C14.75 4.85999 13.92 4.21999 12.87 4.04999C11.82 3.87999 10.72 4.19999 10.11 4.84999C10.03 4.92999 9.35 5.66999 9.67 6.47999C9.87 6.98999 10.38 7.26999 11.07 7.63999C11.82 8.04999 12.04 7.97999 13.17 8.50999C14.33 9.04999 14.52 9.30999 14.61 9.44999C14.95 10.01 14.72 10.57 14.67 10.67C14.35 11.39 13.49 11.69 13.17 11.8C13.03 11.85 11.78 12.26 10.53 11.75C9.84 11.47 9.47 11.05 9.36 10.9C9.16 10.66 9.06 10.42 9 10.26" stroke="black" stroke-width="1.5" stroke-linecap="round" stroke-linejoin="round"/>
<path d="M9 19H2" stroke="black" stroke-width="1.5" stroke-linecap="round" stroke-linejoin="round"/>
<path d="M22 19H15" stroke="black" stroke-width="1.5" stroke-linecap="round" stroke-linejoin="round"/>
<path d="M5 22L2 19L5 16" stroke="black" stroke-width="1.5" stroke-linecap="round" stroke-linejoin="round"/>
<path d="M19 22L22 19L19 16" stroke="black" stroke-width="1.5" stroke-linecap="round" stroke-linejoin="round"/>
</svg>
