<svg width="24" height="24" viewBox="0 0 24 24" fill="none" xmlns="http://www.w3.org/2000/svg">
<path d="M12.8399 11.55L14.9299 14.99L18.9999 5.51L8.24993 4L10.3299 7.41L10.2899 7.44C8.99993 8.39 7.69993 9.55 6.83993 11.11C5.95993 12.68 5.77993 14.49 6.25993 16.09C6.72993 17.75 8.12993 19 9.57993 19.53C11.0499 20.09 12.6099 20.12 13.9899 19.78C12.5599 19.73 11.1999 19.28 10.1899 18.52C9.17993 17.75 8.63993 16.71 8.69993 15.71C8.73993 14.68 9.22993 13.71 9.95993 13.09C10.6899 12.43 11.7099 11.94 12.8399 11.55Z" stroke="black" stroke-width="1.5" stroke-miterlimit="10" stroke-linecap="round" stroke-linejoin="round"/>
</svg>
