<svg width="24" height="24" viewBox="0 0 24 24" fill="none" xmlns="http://www.w3.org/2000/svg">
<path d="M15 2L20 7V21C20 21.55 19.55 22 19 22H5C4.45 22 4 21.55 4 21V3C4 2.45 4.45 2 5 2H15Z" stroke="black" stroke-width="1.5" stroke-miterlimit="10" stroke-linecap="round" stroke-linejoin="round"/>
<path d="M15 18H9C8.45 18 8 17.55 8 17V11C8 10.45 8.45 10 9 10H15C15.55 10 16 10.45 16 11V17C16 17.55 15.55 18 15 18Z" stroke="black" stroke-width="1.5" stroke-miterlimit="10" stroke-linecap="round" stroke-linejoin="round"/>
<path d="M12 10V18" stroke="black" stroke-width="1.5" stroke-miterlimit="10" stroke-linecap="square" stroke-linejoin="round"/>
<path d="M12 15H16" stroke="black" stroke-width="1.5" stroke-miterlimit="10" stroke-linecap="square" stroke-linejoin="round"/>
</svg>
