<svg width="24" height="24" viewBox="0 0 24 24" fill="none" xmlns="http://www.w3.org/2000/svg">
<path fill-rule="evenodd" clip-rule="evenodd" d="M12 18C14.7614 18 17 15.3137 17 12C17 8.68629 14.7614 6 12 6C9.23858 6 7 8.68629 7 12C7 15.3137 9.23858 18 12 18Z" stroke="black" stroke-width="1.5"/>
<path fill-rule="evenodd" clip-rule="evenodd" d="M12 13C12.5523 13 13 12.5523 13 12C13 11.4477 12.5523 11 12 11C11.4477 11 11 11.4477 11 12C11 12.5523 11.4477 13 12 13Z" stroke="black" stroke-width="1.5"/>
<path fill-rule="evenodd" clip-rule="evenodd" d="M22 6.5C22 6.22386 21.7761 6 21.5 6H20V22H22V6.5Z" stroke="black" stroke-width="1.5"/>
<path fill-rule="evenodd" clip-rule="evenodd" d="M2 6.5C2 6.22386 2.22386 6 2.5 6H4V22H2V6.5Z" stroke="black" stroke-width="1.5"/>
<path fill-rule="evenodd" clip-rule="evenodd" d="M4 3C4 2.44772 4.44772 2 5 2H19C19.5523 2 20 2.44772 20 3V22H4V3Z" stroke="black" stroke-width="1.5"/>
</svg>
