<svg width="24" height="24" viewBox="0 0 24 24" fill="none" xmlns="http://www.w3.org/2000/svg">
<path d="M19.99 20C21.25 18.33 22 16.25 22 14C22 8.48 17.52 4 12 4C6.48 4 2 8.48 2 14C2 16.25 2.75 18.33 4.01 20" stroke="black" stroke-width="1.5" stroke-linecap="round" stroke-linejoin="round"/>
<path d="M12 15C12.5523 15 13 14.5523 13 14C13 13.4477 12.5523 13 12 13C11.4477 13 11 13.4477 11 14C11 14.5523 11.4477 15 12 15Z" stroke="black" stroke-width="1.5" stroke-linecap="round" stroke-linejoin="round"/>
<path d="M17 9L12.71 13.29" stroke="black" stroke-width="1.5" stroke-linecap="round" stroke-linejoin="round"/>
<path d="M16.5 19H7.5" stroke="black" stroke-width="1.5" stroke-linecap="round" stroke-linejoin="round"/>
<path d="M16.9501 13.29C16.9801 13.52 17.0001 13.76 17.0001 14C17.0001 14.71 16.8501 15.39 16.5801 16" stroke="black" stroke-width="1.5" stroke-linecap="round" stroke-linejoin="round"/>
<path d="M7.42 16C7.15 15.39 7 14.71 7 14C7 11.24 9.24 9 12 9C12.24 9 12.48 9.02 12.71 9.05" stroke="black" stroke-width="1.5" stroke-linecap="round" stroke-linejoin="round"/>
</svg>
