<svg width="24" height="24" viewBox="0 0 24 24" fill="none" xmlns="http://www.w3.org/2000/svg">
<path d="M21 8.64001C21.62 7.93001 22 7.01001 22 6.00001C22 3.79001 20.21 2.00001 18 2.00001C15.79 2.00001 14 3.79001 14 6.00001C14 7.01001 14.38 7.93001 15 8.64001" stroke="black" stroke-width="1.5" stroke-linecap="round" stroke-linejoin="round"/>
<path d="M18 22V6" stroke="black" stroke-width="1.5" stroke-linecap="round" stroke-linejoin="round"/>
<path d="M14.5 18.5L18 22L21.5 18.5" stroke="black" stroke-width="1.5" stroke-linecap="round" stroke-linejoin="round"/>
<path d="M9 8.64001C9.62 7.93001 10 7.01001 10 6.00001C10 3.79001 8.21 2.00001 6 2.00001C3.79 2.00001 2 3.79001 2 6.00001C2 7.01001 2.38 7.93001 3 8.64001" stroke="black" stroke-width="1.5" stroke-linecap="round" stroke-linejoin="round"/>
<path d="M6 22V6" stroke="black" stroke-width="1.5" stroke-linecap="round" stroke-linejoin="round"/>
<path d="M2.5 18.5L6 22L9.5 18.5" stroke="black" stroke-width="1.5" stroke-linecap="round" stroke-linejoin="round"/>
</svg>
