<svg width="24" height="24" viewBox="0 0 24 24" fill="none" xmlns="http://www.w3.org/2000/svg">
<path d="M15.3198 9C14.1998 6.63 11.7998 5 8.99982 5C5.12982 5 1.99982 8.13 1.99982 12C1.99982 15.87 5.12982 19 8.99982 19C11.7998 19 14.1998 17.37 15.3198 15" stroke="black" stroke-width="1.5" stroke-linecap="round" stroke-linejoin="round"/>
<path d="M11.6401 9C10.9301 8.38 10.0101 8 9.00014 8C6.79014 8 5.00014 9.79 5.00014 12C5.00014 14.21 6.79014 16 9.00014 16C10.0101 16 10.9301 15.62 11.6401 15" stroke="black" stroke-width="1.5" stroke-linecap="round" stroke-linejoin="round"/>
<path d="M22 12L9 12" stroke="black" stroke-width="1.5" stroke-linecap="round" stroke-linejoin="round"/>
<path d="M18.5 15.5L22 12L18.5 8.5" stroke="black" stroke-width="1.5" stroke-linecap="round" stroke-linejoin="round"/>
</svg>
