<svg width="24" height="24" viewBox="0 0 24 24" fill="none" xmlns="http://www.w3.org/2000/svg">
<path d="M15.3599 21C16.0699 21.62 16.9899 22 17.9999 22C20.2099 22 21.9999 20.21 21.9999 18C21.9999 15.79 20.2099 14 17.9999 14C16.9899 14 16.0699 14.38 15.3599 15" stroke="black" stroke-width="1.5" stroke-linecap="round" stroke-linejoin="round"/>
<path d="M2 18L18 18" stroke="black" stroke-width="1.5" stroke-linecap="round" stroke-linejoin="round"/>
<path d="M5.5 14.5L2 18L5.5 21.5" stroke="black" stroke-width="1.5" stroke-linecap="round" stroke-linejoin="round"/>
<path d="M15.3599 9C16.0699 9.62 16.9899 10 17.9999 10C20.2099 10 21.9999 8.21 21.9999 6C21.9999 3.79 20.2099 2 17.9999 2C16.9899 2 16.0699 2.38 15.3599 3" stroke="black" stroke-width="1.5" stroke-linecap="round" stroke-linejoin="round"/>
<path d="M2 6L18 6" stroke="black" stroke-width="1.5" stroke-linecap="round" stroke-linejoin="round"/>
<path d="M5.5 2.5L2 6L5.5 9.5" stroke="black" stroke-width="1.5" stroke-linecap="round" stroke-linejoin="round"/>
</svg>
