<svg width="24" height="24" viewBox="0 0 24 24" fill="none" xmlns="http://www.w3.org/2000/svg">
<path d="M8.64014 21C7.93014 21.62 7.01014 22 6.00014 22C3.79014 22 2.00014 20.21 2.00014 18C2.00014 15.79 3.79014 14 6.00014 14C7.01014 14 7.93014 14.38 8.64014 15" stroke="black" stroke-width="1.5" stroke-linecap="round" stroke-linejoin="round"/>
<path d="M22 18L6 18" stroke="black" stroke-width="1.5" stroke-linecap="round" stroke-linejoin="round"/>
<path d="M18.5 14.5L22 18L18.5 21.5" stroke="black" stroke-width="1.5" stroke-linecap="round" stroke-linejoin="round"/>
<path d="M8.64014 9C7.93014 9.62 7.01014 10 6.00014 10C3.79014 10 2.00014 8.21 2.00014 6C2.00014 3.79 3.79014 2 6.00014 2C7.01014 2 7.93014 2.38 8.64014 3" stroke="black" stroke-width="1.5" stroke-linecap="round" stroke-linejoin="round"/>
<path d="M22 6L6 6" stroke="black" stroke-width="1.5" stroke-linecap="round" stroke-linejoin="round"/>
<path d="M18.5 2.5L22 6L18.5 9.5" stroke="black" stroke-width="1.5" stroke-linecap="round" stroke-linejoin="round"/>
</svg>
