<svg width="24" height="24" viewBox="0 0 24 24" fill="none" xmlns="http://www.w3.org/2000/svg">
<path d="M15 8.67993C17.37 9.79993 19 12.1999 19 14.9999C19 18.8699 15.87 21.9999 12 21.9999C8.13 21.9999 5 18.8699 5 14.9999C5 12.1999 6.63 9.79993 9 8.67993" stroke="black" stroke-width="1.5" stroke-linecap="round" stroke-linejoin="round"/>
<path d="M15 12.36C15.62 13.07 16 13.99 16 15C16 17.21 14.21 19 12 19C9.79 19 8 17.21 8 15C8 13.99 8.38 13.07 9 12.36" stroke="black" stroke-width="1.5" stroke-linecap="round" stroke-linejoin="round"/>
<path d="M12 2V15" stroke="black" stroke-width="1.5" stroke-linecap="round" stroke-linejoin="round"/>
<path d="M8.5 5.5L12 2L15.5 5.5" stroke="black" stroke-width="1.5" stroke-linecap="round" stroke-linejoin="round"/>
</svg>
