<svg width="24" height="24" viewBox="0 0 24 24" fill="none" xmlns="http://www.w3.org/2000/svg">
<path d="M15 15.3201C17.37 14.2001 19 11.8001 19 9.00007C19 5.13007 15.87 2.00007 12 2.00007C8.13 2.00007 5 5.13007 5 9.00007C5 11.8001 6.63 14.2001 9 15.3201" stroke="black" stroke-width="1.5" stroke-linecap="round" stroke-linejoin="round"/>
<path d="M15 11.64C15.62 10.93 16 10.01 16 9.00001C16 6.79001 14.21 5.00001 12 5.00001C9.79 5.00001 8 6.79001 8 9.00001C8 10.01 8.38 10.93 9 11.64" stroke="black" stroke-width="1.5" stroke-linecap="round" stroke-linejoin="round"/>
<path d="M12 22V9" stroke="black" stroke-width="1.5" stroke-linecap="round" stroke-linejoin="round"/>
<path d="M8.5 18.5L12 22L15.5 18.5" stroke="black" stroke-width="1.5" stroke-linecap="round" stroke-linejoin="round"/>
</svg>
