<svg width="24" height="24" viewBox="0 0 24 24" fill="none" xmlns="http://www.w3.org/2000/svg">
<path d="M8.68018 9C9.80018 6.63 12.2002 5 15.0002 5C18.8702 5 22.0002 8.13 22.0002 12C22.0002 15.87 18.8702 19 15.0002 19C12.2002 19 9.80018 17.37 8.68018 15" stroke="black" stroke-width="1.5" stroke-linecap="round" stroke-linejoin="round"/>
<path d="M12.3599 9C13.0699 8.38 13.9899 8 14.9999 8C17.2099 8 18.9999 9.79 18.9999 12C18.9999 14.21 17.2099 16 14.9999 16C13.9899 16 13.0699 15.62 12.3599 15" stroke="black" stroke-width="1.5" stroke-linecap="round" stroke-linejoin="round"/>
<path d="M2 12L15 12" stroke="black" stroke-width="1.5" stroke-linecap="round" stroke-linejoin="round"/>
<path d="M5.5 15.5L2 12L5.5 8.5" stroke="black" stroke-width="1.5" stroke-linecap="round" stroke-linejoin="round"/>
</svg>
