<svg width="24" height="24" viewBox="0 0 24 24" fill="none" xmlns="http://www.w3.org/2000/svg">
<path d="M16 22H8C7.72 22 7.5 21.78 7.5 21.5C7.5 21.22 7.72 21 8 21H11.5V2.5C11.5 2.22 11.72 2 12 2C12.28 2 12.5 2.22 12.5 2.5V21H16C16.28 21 16.5 21.22 16.5 21.5C16.5 21.78 16.28 22 16 22Z" stroke="black" stroke-width="1.5" stroke-miterlimit="10" stroke-linecap="round"/>
<path d="M21.5 7C21.22 7 21 6.78 21 6.5V3H3V6.5C3 6.78 2.78 7 2.5 7C2.22 7 2 6.78 2 6.5V2.5C2 2.22 2.22 2 2.5 2H21.5C21.78 2 22 2.22 22 2.5V6.5C22 6.78 21.78 7 21.5 7Z" stroke="black" stroke-width="1.5" stroke-miterlimit="10" stroke-linecap="round"/>
</svg>
