<svg width="24" height="24" viewBox="0 0 24 24" fill="none" xmlns="http://www.w3.org/2000/svg">
<path d="M19 2.5V6.5" stroke="black" stroke-width="1.5" stroke-miterlimit="10" stroke-linecap="round" stroke-linejoin="round"/>
<path d="M5 18V22" stroke="black" stroke-width="1.5" stroke-miterlimit="10" stroke-linecap="round" stroke-linejoin="round"/>
<path d="M5 20.1632C6.82 21.2032 8.88 21.9132 10.99 21.9932C13.1 22.0732 15.28 21.5232 16.95 20.2632C18.44 19.1432 19.5 17.1532 18.7 15.5032C18.12 14.3032 16.75 13.6532 15.43 13.2432C12.92 12.4732 10.21 12.2232 7.9 11.0132C6.84 10.4532 5.85 9.65318 5.36 8.57318C4.53 6.73318 5.43 4.45318 7.11 3.24318C8.79 2.03318 11.05 1.79318 13.11 2.15318C14.98 2.47318 17.56 3.24318 19 4.46318" stroke="black" stroke-width="1.5" stroke-miterlimit="10" stroke-linecap="round" stroke-linejoin="round"/>
<path d="M2 12H22" stroke="black" stroke-width="1.5" stroke-miterlimit="10" stroke-linecap="round" stroke-linejoin="round"/>
</svg>
