<svg width="24" height="24" viewBox="0 0 24 24" fill="none" xmlns="http://www.w3.org/2000/svg">
<path d="M10 8C9.39002 8 8.79002 8.11 8.22002 8.33C6.26002 9.1 4.97002 11.28 5.00002 13.4C5.00002 13.62 5.02002 13.83 5.06002 14.05" stroke="black" stroke-width="1.5" stroke-miterlimit="10" stroke-linecap="round" stroke-linejoin="round"/>
<path d="M7.5 16C8.88071 16 10 14.8807 10 13.5C10 12.1193 8.88071 11 7.5 11C6.11929 11 5 12.1193 5 13.5C5 14.8807 6.11929 16 7.5 16Z" stroke="black" stroke-width="1.5" stroke-miterlimit="10" stroke-linecap="round" stroke-linejoin="round"/>
<path d="M19 8C18.39 8 17.79 8.11 17.22 8.33C15.26 9.1 13.97 11.28 14 13.4C14 13.62 14.02 13.83 14.06 14.05" stroke="black" stroke-width="1.5" stroke-miterlimit="10" stroke-linecap="round" stroke-linejoin="round"/>
<path d="M16.5 16C17.8807 16 19 14.8807 19 13.5C19 12.1193 17.8807 11 16.5 11C15.1193 11 14 12.1193 14 13.5C14 14.8807 15.1193 16 16.5 16Z" stroke="black" stroke-width="1.5" stroke-miterlimit="10" stroke-linecap="round" stroke-linejoin="round"/>
</svg>
