<svg width="24" height="24" viewBox="0 0 24 24" fill="none" xmlns="http://www.w3.org/2000/svg">
<path d="M19 10V14C19 15.66 17.66 17 16 17H14" stroke="black" stroke-width="1.5" stroke-miterlimit="10" stroke-linecap="round" stroke-linejoin="round"/>
<path d="M18 12H15C14.45 12 14 11.55 14 11V8C14 7.45 14.45 7 15 7H18C18.55 7 19 7.45 19 8V11C19 11.55 18.55 12 18 12Z" stroke="black" stroke-width="1.5" stroke-miterlimit="10" stroke-linecap="round" stroke-linejoin="round"/>
<path d="M10 10V14C10 15.66 8.66 17 7 17H5" stroke="black" stroke-width="1.5" stroke-miterlimit="10" stroke-linecap="round" stroke-linejoin="round"/>
<path d="M9 12H6C5.45 12 5 11.55 5 11V8C5 7.45 5.45 7 6 7H9C9.55 7 10 7.45 10 8V11C10 11.55 9.55 12 9 12Z" stroke="black" stroke-width="1.5" stroke-miterlimit="10" stroke-linecap="round" stroke-linejoin="round"/>
</svg>
