<svg width="24" height="24" viewBox="0 0 24 24" fill="none" xmlns="http://www.w3.org/2000/svg">
<path d="M18.57 11L19 8H5L6.88 21.14C6.95 21.63 7.37 22 7.87 22H16" stroke="black" stroke-width="1.5" stroke-miterlimit="10" stroke-linecap="round" stroke-linejoin="round"/>
<path d="M3.5 8H20.5" stroke="black" stroke-width="1.5" stroke-miterlimit="10" stroke-linecap="round" stroke-linejoin="round"/>
<path d="M10 12V18" stroke="black" stroke-width="1.5" stroke-miterlimit="10" stroke-linecap="round" stroke-linejoin="round"/>
<path d="M14 12V18" stroke="black" stroke-width="1.5" stroke-miterlimit="10" stroke-linecap="round" stroke-linejoin="round"/>
<path d="M16 5H8L9.7 2.45C9.89 2.17 10.2 2 10.54 2H13.47C13.8 2 14.12 2.17 14.3 2.45L16 5Z" stroke="black" stroke-width="1.5" stroke-miterlimit="10" stroke-linecap="round" stroke-linejoin="round"/>
<path d="M3 5H21" stroke="black" stroke-width="1.5" stroke-miterlimit="10" stroke-linecap="round" stroke-linejoin="round"/>
<path d="M19 22H19.01" stroke="black" stroke-width="1.5" stroke-miterlimit="10" stroke-linecap="round" stroke-linejoin="round"/>
<path d="M17 16.04C17.04 15.75 17.16 15.21 17.56 14.73C17.66 14.6 17.85 14.37 18.18 14.2C18.58 14 18.94 14 19.1 14C19.28 14 19.71 14.02 20.15 14.31C20.69 14.67 20.86 15.19 20.91 15.35C20.94 15.43 21.1 15.96 20.91 16.56C20.8 16.94 20.6 17.18 20.43 17.39C19.73 18.22 19.11 18.15 19 18.69C18.99 18.71 19 18.82 19 19" stroke="black" stroke-width="1.5" stroke-miterlimit="10" stroke-linecap="round" stroke-linejoin="round"/>
</svg>
