<svg width="24" height="24" viewBox="0 0 24 24" fill="none" xmlns="http://www.w3.org/2000/svg">
<path d="M20 9.71V5C20 3.34 18.66 2 17 2H5C3.34 2 2 3.34 2 5V17C2 18.07 2.55 19 3.39 19.53C3.48 19.59 3.58 19.64 3.68 19.69C3.82 19.76 3.96 19.82 4.11 19.86C4.16 19.88 4.22 19.9 4.28 19.91C4.34 19.93 4.41 19.94 4.47 19.95C4.54 19.97 4.6 19.98 4.67 19.98C4.78 19.99 4.89 20 5 20H14.06" stroke="black" stroke-width="1.5" stroke-miterlimit="10" stroke-linecap="round" stroke-linejoin="round"/>
<path d="M16.3401 16.05C14.9201 14.77 13.0501 14 11.0001 14C7.44014 14 4.43014 16.32 3.39014 19.53C3.48014 19.59 3.58014 19.65 3.68014 19.69C3.82014 19.76 3.96014 19.82 4.11014 19.86C4.16014 19.88 4.22014 19.9 4.28014 19.91C4.34014 19.93 4.41014 19.94 4.47014 19.95C4.54014 19.97 4.60014 19.98 4.67014 19.98C4.78014 19.99 4.89014 20 5.00014 20H14.0601" stroke="black" stroke-width="1.5" stroke-miterlimit="10" stroke-linecap="round" stroke-linejoin="round"/>
<path d="M11 11C12.6569 11 14 9.65685 14 8C14 6.34315 12.6569 5 11 5C9.34315 5 8 6.34315 8 8C8 9.65685 9.34315 11 11 11Z" stroke="black" stroke-width="1.5" stroke-miterlimit="10" stroke-linecap="round" stroke-linejoin="round"/>
<path d="M20.6401 15.6L18.1601 19.89L18.1001 21L19.0201 20.39L21.5001 16.1L20.6401 15.6Z" stroke="black" stroke-width="1.5" stroke-miterlimit="10" stroke-linecap="round"/>
</svg>
