<svg width="24" height="24" viewBox="0 0 24 24" fill="none" xmlns="http://www.w3.org/2000/svg">
<path d="M12 12C13.933 12 15.5 10.433 15.5 8.5C15.5 6.567 13.933 5 12 5C10.067 5 8.5 6.567 8.5 8.5C8.5 10.433 10.067 12 12 12Z" stroke="black" stroke-width="1.5" stroke-miterlimit="10" stroke-linecap="round" stroke-linejoin="round"/>
<path d="M20.3099 21.7C19.4799 17.87 16.0699 15 11.9999 15C7.92994 15 4.51994 17.87 3.68994 21.7C4.07994 21.89 4.52994 22 4.99994 22H18.9999C19.4699 22 19.9199 21.89 20.3099 21.7Z" stroke="black" stroke-width="1.5" stroke-miterlimit="10" stroke-linecap="round" stroke-linejoin="round"/>
<path d="M19 22H5C3.34 22 2 20.66 2 19V5C2 3.34 3.34 2 5 2H19C20.66 2 22 3.34 22 5V19C22 20.66 20.66 22 19 22Z" stroke="black" stroke-width="1.5" stroke-linecap="round" stroke-linejoin="round"/>
</svg>
