<svg width="24" height="24" viewBox="0 0 24 24" fill="none" xmlns="http://www.w3.org/2000/svg">
<path d="M17.6398 14.97C16.7098 14.79 15.9998 13.98 15.9998 13C15.9998 12.86 16.0198 12.71 16.0498 12.58C14.9898 11.6 13.5698 11 11.9998 11C10.4298 11 9.00984 11.6 7.94984 12.58C7.97984 12.71 7.99984 12.86 7.99984 13C7.99984 13.98 7.28984 14.79 6.35984 14.97C6.34984 14.99 6.33984 15 6.33984 15.02C8.38984 15.19 9.99984 16.9 9.99984 19H13.9998C13.9998 16.9 15.6098 15.19 17.6598 15.02C17.6598 15 17.6498 14.99 17.6398 14.97Z" stroke="black" stroke-width="1.5" stroke-miterlimit="10" stroke-linecap="round" stroke-linejoin="round"/>
<path d="M12 11C13.6569 11 15 9.65685 15 8C15 6.34315 13.6569 5 12 5C10.3431 5 9 6.34315 9 8C9 9.65685 10.3431 11 12 11Z" stroke="black" stroke-width="1.5" stroke-miterlimit="10" stroke-linecap="round" stroke-linejoin="round"/>
<path d="M18 15C15.79 15 14 16.79 14 19C14.01 19 22 19 22 19C22 16.79 20.21 15 18 15Z" stroke="black" stroke-width="1.5" stroke-miterlimit="10" stroke-linecap="round" stroke-linejoin="round"/>
<path d="M18 15C19.1046 15 20 14.1046 20 13C20 11.8954 19.1046 11 18 11C16.8954 11 16 11.8954 16 13C16 14.1046 16.8954 15 18 15Z" stroke="black" stroke-width="1.5" stroke-miterlimit="10" stroke-linecap="round" stroke-linejoin="round"/>
<path d="M6 15C3.79 15 2 16.79 2 19C2.01 19 10 19 10 19C10 16.79 8.21 15 6 15Z" stroke="black" stroke-width="1.5" stroke-miterlimit="10" stroke-linecap="round" stroke-linejoin="round"/>
<path d="M6 15C7.10457 15 8 14.1046 8 13C8 11.8954 7.10457 11 6 11C4.89543 11 4 11.8954 4 13C4 14.1046 4.89543 15 6 15Z" stroke="black" stroke-width="1.5" stroke-miterlimit="10" stroke-linecap="round" stroke-linejoin="round"/>
</svg>
