<svg width="24" height="24" viewBox="0 0 24 24" fill="none" xmlns="http://www.w3.org/2000/svg">
<path d="M11.8799 15.47C11.3799 13.48 9.37988 12 6.99988 12C4.23988 12 1.99988 13.99 1.99988 16.44C3.96988 16.89 5.68988 17 6.99988 17C8.44988 17 9.72988 16.86 10.7999 16.68C11.0899 16.23 11.4499 15.82 11.8799 15.47Z" stroke="black" stroke-width="1.5" stroke-miterlimit="10" stroke-linecap="round" stroke-linejoin="round"/>
<path d="M7 9C5.61929 9 4.5 7.88071 4.5 6.5C4.5 5.11929 5.61929 4 7 4C8.38071 4 9.5 5.11929 9.5 6.5C9.5 7.88071 8.38071 9 7 9Z" stroke="black" stroke-width="1.5" stroke-miterlimit="10" stroke-linecap="round" stroke-linejoin="round"/>
<path d="M10 19.33C12.36 19.87 14.43 20 16 20C18.43 20 20.48 19.68 22 19.33C22 16.39 19.31 14 16 14C12.69 14 10 16.39 10 19.33Z" stroke="black" stroke-width="1.5" stroke-miterlimit="10" stroke-linecap="round" stroke-linejoin="round"/>
<path d="M16 11C14.3431 11 13 9.65685 13 8C13 6.34315 14.3431 5 16 5C17.6569 5 19 6.34315 19 8C19 9.65685 17.6569 11 16 11Z" stroke="black" stroke-width="1.5" stroke-miterlimit="10" stroke-linecap="round" stroke-linejoin="round"/>
<path d="M2 2L22 22" stroke="black" stroke-width="1.5" stroke-miterlimit="10" stroke-linecap="round" stroke-linejoin="round"/>
</svg>
