<svg width="24" height="24" viewBox="0 0 24 24" fill="none" xmlns="http://www.w3.org/2000/svg">
<path d="M20 21C16.46 21.8 13.35 22 11 22C7.35 22 4.28 21.51 2 21C2 16.58 6.03 13 11 13C15.97 13 20 16.58 20 21Z" stroke="black" stroke-width="1.5" stroke-miterlimit="10" stroke-linecap="round" stroke-linejoin="round"/>
<path d="M11 10C13.2091 10 15 8.20914 15 6C15 3.79086 13.2091 2 11 2C8.79086 2 7 3.79086 7 6C7 8.20914 8.79086 10 11 10Z" stroke="black" stroke-width="1.5" stroke-miterlimit="10" stroke-linecap="round" stroke-linejoin="round"/>
<path d="M20 10H20.01" stroke="black" stroke-width="1.5" stroke-miterlimit="10" stroke-linecap="round" stroke-linejoin="round"/>
<path d="M18 4.04C18.04 3.75 18.16 3.21 18.56 2.73C18.66 2.6 18.85 2.37 19.18 2.2C19.58 2 19.94 2 20.1 2C20.28 2 20.71 2.02 21.15 2.31C21.69 2.67 21.86 3.19 21.91 3.35C21.94 3.43 22.1 3.96 21.91 4.56C21.8 4.94 21.6 5.18 21.43 5.39C20.73 6.22 20.11 6.15 20 6.69C19.99 6.71 20 6.82 20 7" stroke="black" stroke-width="1.5" stroke-miterlimit="10" stroke-linecap="round" stroke-linejoin="round"/>
</svg>
