<svg width="24" height="24" viewBox="0 0 24 24" fill="none" xmlns="http://www.w3.org/2000/svg">
<path d="M20 13C19.17 12.37 18.13 12 17 12C14.24 12 12 14.24 12 17C12 18.13 12.37 19.17 13 20H5C3.34 20 2 18.66 2 17V5C2 3.34 3.34 2 5 2H17C18.66 2 20 3.34 20 5V13Z" stroke="black" stroke-width="1.5" stroke-miterlimit="10" stroke-linecap="round" stroke-linejoin="round"/>
<path d="M12.8401 14.22C12.3101 15.02 12.0001 15.97 12.0001 17C12.0001 18.13 12.3701 19.17 13.0001 20H5.00014C4.41014 20 3.85014 19.83 3.39014 19.53C4.43014 16.32 7.44014 14 11.0001 14C11.6401 14 12.2501 14.07 12.8401 14.22Z" stroke="black" stroke-width="1.5" stroke-miterlimit="10" stroke-linecap="round" stroke-linejoin="round"/>
<path d="M11 11C12.6569 11 14 9.65685 14 8C14 6.34315 12.6569 5 11 5C9.34315 5 8 6.34315 8 8C8 9.65685 9.34315 11 11 11Z" stroke="black" stroke-width="1.5" stroke-miterlimit="10" stroke-linecap="round" stroke-linejoin="round"/>
<path d="M17 22C19.7614 22 22 19.7614 22 17C22 14.2386 19.7614 12 17 12C14.2386 12 12 14.2386 12 17C12 19.7614 14.2386 22 17 22Z" stroke="black" stroke-width="1.5" stroke-miterlimit="10" stroke-linecap="round" stroke-linejoin="round"/>
<path d="M14.8799 14.88L19.1199 19.12" stroke="black" stroke-width="1.5" stroke-miterlimit="10" stroke-linejoin="round"/>
<path d="M19.1199 14.88L14.8799 19.12" stroke="black" stroke-width="1.5" stroke-miterlimit="10" stroke-linejoin="round"/>
</svg>
