<svg width="24" height="24" viewBox="0 0 24 24" fill="none" xmlns="http://www.w3.org/2000/svg">
<path d="M11.88 15.47C11.38 13.48 9.38 12 7 12C4.24 12 2 13.99 2 16.44C3.97 16.89 5.69 17 7 17C8.45 17 9.73 16.86 10.8 16.68C11.09 16.23 11.45 15.82 11.88 15.47Z" stroke="black" stroke-width="1.5" stroke-miterlimit="10" stroke-linecap="round" stroke-linejoin="round"/>
<path d="M7 9C8.38071 9 9.5 7.88071 9.5 6.5C9.5 5.11929 8.38071 4 7 4C5.61929 4 4.5 5.11929 4.5 6.5C4.5 7.88071 5.61929 9 7 9Z" stroke="black" stroke-width="1.5" stroke-miterlimit="10" stroke-linecap="round" stroke-linejoin="round"/>
<path d="M10 19.33C12.36 19.86 14.43 20 16 20C18.43 20 20.48 19.68 22 19.33C22 16.38 19.31 14 16 14C12.69 14 10 16.39 10 19.33Z" stroke="black" stroke-width="1.5" stroke-miterlimit="10" stroke-linecap="round" stroke-linejoin="round"/>
<path d="M16 11C17.6569 11 19 9.65685 19 8C19 6.34315 17.6569 5 16 5C14.3431 5 13 6.34315 13 8C13 9.65685 14.3431 11 16 11Z" stroke="black" stroke-width="1.5" stroke-miterlimit="10" stroke-linecap="round" stroke-linejoin="round"/>
</svg>
