<svg width="24" height="24" viewBox="0 0 24 24" fill="none" xmlns="http://www.w3.org/2000/svg">
<circle cx="15" cy="5" r="2" stroke="black" stroke-width="1.5"/>
<circle cx="9" cy="5" r="2" stroke="black" stroke-width="1.5"/>
<path d="M9 11H11.5" stroke="black" stroke-width="1.5" stroke-linecap="round"/>
<path d="M2 9.37501L6 9V15L2 14.625V9.37501Z" stroke="black" stroke-width="1.5" stroke-linecap="round" stroke-linejoin="round"/>
<path d="M22 7L18 10.4286V13.8571L22 15V7Z" stroke="black" stroke-width="1.5" stroke-linejoin="round"/>
<path d="M10 17H14V21H10V17Z" stroke="black" stroke-width="1.5" stroke-linecap="round" stroke-linejoin="round"/>
<path d="M6 9C6 7.89543 6.89543 7 8 7H16C17.1046 7 18 7.89543 18 9V15C18 16.1046 17.1046 17 16 17H8C6.89543 17 6 16.1046 6 15V9Z" stroke="black" stroke-width="1.5"/>
</svg>
