<svg width="24" height="24" viewBox="0 0 24 24" fill="none" xmlns="http://www.w3.org/2000/svg">
<path d="M20 20H4C2.9 20 2 19.1 2 18V6C2 4.9 2.9 4 4 4H20C21.1 4 22 4.9 22 6V18C22 19.1 21.1 20 20 20Z" stroke="black" stroke-width="1.5" stroke-miterlimit="10" stroke-linecap="round" stroke-linejoin="round"/>
<path d="M7.5 16H16.5" stroke="black" stroke-width="1.5" stroke-miterlimit="10" stroke-linecap="round" stroke-linejoin="round"/>
<path d="M7.5 16C8.88071 16 10 14.8807 10 13.5C10 12.1193 8.88071 11 7.5 11C6.11929 11 5 12.1193 5 13.5C5 14.8807 6.11929 16 7.5 16Z" stroke="black" stroke-width="1.5" stroke-miterlimit="10" stroke-linecap="round" stroke-linejoin="round"/>
<path d="M16.5 16C17.8807 16 19 14.8807 19 13.5C19 12.1193 17.8807 11 16.5 11C15.1193 11 14 12.1193 14 13.5C14 14.8807 15.1193 16 16.5 16Z" stroke="black" stroke-width="1.5" stroke-miterlimit="10" stroke-linecap="round" stroke-linejoin="round"/>
</svg>
