<svg width="24" height="24" viewBox="0 0 24 24" fill="none" xmlns="http://www.w3.org/2000/svg">
<path d="M12 15C14.7614 15 17 12.7614 17 10C17 7.23858 14.7614 5 12 5C9.23858 5 7 7.23858 7 10C7 12.7614 9.23858 15 12 15Z" stroke="black" stroke-width="1.5" stroke-linecap="round"/>
<path d="M17 10V20.5C17 21.33 16.33 22 15.5 22H8.5C7.67 22 7 21.33 7 20.5V10C7 12.76 9.24 15 12 15C14.76 15 17 12.76 17 10Z" stroke="black" stroke-width="1.5" stroke-linecap="round"/>
<path d="M13 18H11" stroke="black" stroke-width="1.5" stroke-linecap="round" stroke-linejoin="round"/>
<path d="M12 11C12.5523 11 13 10.5523 13 10C13 9.44772 12.5523 9 12 9C11.4477 9 11 9.44772 11 10C11 10.5523 11.4477 11 12 11Z" stroke="black" stroke-width="1.5" stroke-linecap="round"/>
<path d="M10 2V5.42" stroke="black" stroke-width="1.5" stroke-linecap="round" stroke-linejoin="round"/>
<path d="M3 3L21 21" stroke="black" stroke-width="1.5" stroke-miterlimit="10" stroke-linecap="round" stroke-linejoin="round"/>
</svg>
