<svg width="24" height="24" viewBox="0 0 24 24" fill="none" xmlns="http://www.w3.org/2000/svg">
<path d="M6 14C3.79 14 2 12.21 2 10V20.5C2 21.33 2.67 22 3.5 22H8.5C9.33 22 10 21.33 10 20.5V10C10 12.21 8.21 14 6 14Z" stroke="black" stroke-width="1.5" stroke-linecap="round"/>
<path d="M7 19H5" stroke="black" stroke-width="1.5" stroke-linecap="round" stroke-linejoin="round"/>
<path d="M4 2V6.54" stroke="black" stroke-width="1.5" stroke-linecap="round" stroke-linejoin="round"/>
<path d="M6 14C8.20914 14 10 12.2091 10 10C10 7.79086 8.20914 6 6 6C3.79086 6 2 7.79086 2 10C2 12.2091 3.79086 14 6 14Z" stroke="black" stroke-width="1.5" stroke-linecap="round"/>
<path d="M6 11C6.55228 11 7 10.5523 7 10C7 9.44772 6.55228 9 6 9C5.44772 9 5 9.44772 5 10C5 10.5523 5.44772 11 6 11Z" stroke="black" stroke-width="1.5" stroke-linecap="round" stroke-linejoin="round"/>
<path d="M18 14C15.79 14 14 12.21 14 10V20.5C14 21.33 14.67 22 15.5 22H20.5C21.33 22 22 21.33 22 20.5V10C22 12.21 20.21 14 18 14Z" stroke="black" stroke-width="1.5" stroke-linecap="round"/>
<path d="M19 19H17" stroke="black" stroke-width="1.5" stroke-linecap="round" stroke-linejoin="round"/>
<path d="M16 2V6.54" stroke="black" stroke-width="1.5" stroke-linecap="round" stroke-linejoin="round"/>
<path d="M18 14C20.2091 14 22 12.2091 22 10C22 7.79086 20.2091 6 18 6C15.7909 6 14 7.79086 14 10C14 12.2091 15.7909 14 18 14Z" stroke="black" stroke-width="1.5" stroke-linecap="round"/>
<path d="M18 11C18.5523 11 19 10.5523 19 10C19 9.44772 18.5523 9 18 9C17.4477 9 17 9.44772 17 10C17 10.5523 17.4477 11 18 11Z" stroke="black" stroke-width="1.5" stroke-linecap="round" stroke-linejoin="round"/>
</svg>
