<svg width="22" height="22" viewBox="0 0 22 22" fill="none" xmlns="http://www.w3.org/2000/svg">
<path d="M1 4C1 2.34315 2.34315 1 4 1H18C19.6569 1 21 2.34315 21 4V16C21 17.6569 19.6569 19 18 19H4C2.34315 19 1 17.6569 1 16V4Z" stroke="black" stroke-width="1.5"/>
<path d="M7 20C7 19.4477 7.44772 19 8 19H14C14.5523 19 15 19.4477 15 20C15 20.5523 14.5523 21 14 21H8C7.44772 21 7 20.5523 7 20Z" stroke="black" stroke-width="1.5" stroke-linecap="round"/>
<path d="M11 15C13.7614 15 16 12.7614 16 10C16 7.23858 13.7614 5 11 5C8.23858 5 6 7.23858 6 10C6 12.7614 8.23858 15 11 15Z" stroke="black" stroke-width="1.5"/>
<path d="M11 12C12.1046 12 13 11.1046 13 10C13 8.89543 12.1046 8 11 8C9.89543 8 9 8.89543 9 10C9 11.1046 9.89543 12 11 12Z" stroke="black" stroke-width="1.5"/>
<path d="M4 5V5.5" stroke="black" stroke-width="1.5" stroke-linecap="round" stroke-linejoin="round"/>
</svg>
