<svg width="24" height="24" viewBox="0 0 24 24" fill="none" xmlns="http://www.w3.org/2000/svg">
<path d="M10 13V22H2V6" stroke="black" stroke-width="1.5" stroke-miterlimit="10" stroke-linecap="round" stroke-linejoin="round"/>
<path d="M22 6V22H14V13" stroke="black" stroke-width="1.5" stroke-miterlimit="10" stroke-linecap="round" stroke-linejoin="round"/>
<path d="M18 10.5H18.01" stroke="black" stroke-width="1.5" stroke-miterlimit="10" stroke-linecap="round" stroke-linejoin="round"/>
<path d="M6 10.5H6.01" stroke="black" stroke-width="1.5" stroke-miterlimit="10" stroke-linecap="round" stroke-linejoin="round"/>
<path d="M18 11C18.28 11 18.5 10.78 18.5 10.5C18.5 10.22 18.28 10 18 10C17.72 10 17.5 10.22 17.5 10.5C17.5 10.78 17.72 11 18 11Z" stroke="black" stroke-width="1.5" stroke-miterlimit="10" stroke-linecap="round" stroke-linejoin="round"/>
<path d="M6 11C6.28 11 6.5 10.78 6.5 10.5C6.5 10.22 6.28 10 6 10C5.72 10 5.5 10.22 5.5 10.5C5.5 10.78 5.72 11 6 11Z" stroke="black" stroke-width="1.5" stroke-miterlimit="10" stroke-linecap="round" stroke-linejoin="round"/>
<path d="M18 19C18.55 19 19 18.55 19 18C19 17.45 18.55 17 18 17C17.45 17 17 17.45 17 18C17 18.55 17.45 19 18 19Z" stroke="black" stroke-width="1.5" stroke-miterlimit="10" stroke-linecap="round" stroke-linejoin="round"/>
<path d="M6 19C6.55 19 7 18.55 7 18C7 17.45 6.55 17 6 17C5.45 17 5 17.45 5 18C5 18.55 5.45 19 6 19Z" stroke="black" stroke-width="1.5" stroke-miterlimit="10" stroke-linecap="round" stroke-linejoin="round"/>
<path d="M13.5 10.25C13.08 9.94 12.56 9.75 12 9.75C11.44 9.75 10.92 9.94 10.5 10.25" stroke="black" stroke-width="1.5" stroke-linecap="round" stroke-linejoin="round"/>
<path d="M16 7.25C14.89 6.47 13.5 6 12 6C10.5 6 9.11 6.47 8 7.25" stroke="black" stroke-width="1.5" stroke-linecap="round" stroke-linejoin="round"/>
<path d="M19 4.5C17.13 2.94 14.68 2 12 2C9.32 2 6.87 2.94 5 4.5" stroke="black" stroke-width="1.5" stroke-linecap="round" stroke-linejoin="round"/>
<path d="M2 2L22 22" stroke="black" stroke-width="1.5" stroke-miterlimit="10" stroke-linecap="round" stroke-linejoin="round"/>
</svg>
