<svg width="24" height="24" viewBox="0 0 24 24" fill="none" xmlns="http://www.w3.org/2000/svg">
<path d="M21.5498 13.67C21.3697 11.04 19.1986 9 16.5773 9H7.43272C4.81141 9 2.64032 11.04 2.46023 13.67L2 19.56V19.7C2 20.96 3.01051 22 4.26113 22C5.06153 22 5.7919 21.58 6.21211 20.89L7.72286 18.81C8.11306 18.3 8.70335 18 9.33367 18H14.6763C15.3067 18 15.907 18.3 16.2771 18.81L17.7879 20.89C18.2081 21.58 18.9485 22 19.7389 22C20.9895 22 22 20.96 22 19.7V19.56L21.5498 13.67Z" stroke="black" stroke-width="1.5" stroke-linecap="round" stroke-linejoin="round"/>
<path d="M11 13.5H6" stroke="black" stroke-width="1.5" stroke-linejoin="round"/>
<path d="M8.5 16V11" stroke="black" stroke-width="1.5" stroke-linejoin="round"/>
<path d="M15 12H15.01" stroke="black" stroke-width="1.5" stroke-miterlimit="10" stroke-linecap="round" stroke-linejoin="round"/>
<path d="M17 15H17.01" stroke="black" stroke-width="1.5" stroke-miterlimit="10" stroke-linecap="round" stroke-linejoin="round"/>
<path d="M15.5 6C14.53 5.37 13.31 5 12 5C10.69 5 9.47 5.37 8.5 6" stroke="black" stroke-width="1.5" stroke-linecap="round" stroke-linejoin="round"/>
<path d="M18 4C16.4 2.76 14.3 2 12 2C9.7 2 7.6 2.76 6 4" stroke="black" stroke-width="1.5" stroke-linecap="round" stroke-linejoin="round"/>
</svg>
